<?xml version="1.0"?>
<svg xmlns="http://www.w3.org/2000/svg" xmlns:xlink="http://www.w3.org/1999/xlink" xmlns:svgjs="http://svgjs.com/svgjs" version="1.1" width="512" height="512" x="0" y="0" viewBox="0 0 512 512" style="enable-background:new 0 0 512 512" xml:space="preserve" class=""><g><g xmlns="http://www.w3.org/2000/svg"><path d="m261.302 124.341c-1.406-1.407-3.314-2.197-5.304-2.197s-3.897.791-5.304 2.197l-77.617 77.635c-2.928 2.929-2.928 7.677 0 10.605l28.55 28.556c1.406 1.407 3.314 2.197 5.304 2.197s3.897-.791 5.304-2.197l43.763-43.77 43.789 43.796c1.407 1.407 3.314 2.197 5.304 2.197s3.897-.791 5.304-2.197l28.55-28.557c2.928-2.929 2.928-7.677 0-10.605zm43.789 100.913-43.789-43.796c-1.407-1.407-3.314-2.197-5.304-2.197s-3.897.791-5.304 2.197l-43.763 43.77-17.945-17.949 67.012-67.027 67.038 67.053z" fill="#4d5d81" data-original="#000000" style="" class=""/><path d="m158.22 219.939c-1.989 0-3.897.791-5.304 2.197l-28.551 28.558c-2.928 2.929-2.928 7.677 0 10.605l28.55 28.556c1.406 1.407 3.314 2.197 5.304 2.197s3.897-.791 5.304-2.197l28.551-28.557c2.928-2.929 2.928-7.677 0-10.605l-28.55-28.556c-1.407-1.407-3.315-2.198-5.304-2.198zm-.002 54.006-17.944-17.948 17.946-17.95 17.944 17.948z" fill="#4d5d81" data-original="#000000" style="" class=""/><path d="m201.635 270.854-28.592 28.519c-1.41 1.406-2.182 3.334-2.184 5.325s.809 3.92 2.216 5.328l77.619 77.633c1.407 1.407 3.314 2.197 5.304 2.197s3.897-.791 5.304-2.197l77.643-77.659c.114-.114.238-.247.344-.368 2.611-2.971 2.466-7.46-.333-10.256l-28.566-28.541c-2.93-2.927-7.677-2.926-10.604.003l-43.787 43.794-43.763-43.771c-2.926-2.926-7.671-2.929-10.601-.007zm54.364 61.885c1.989 0 3.897-.791 5.304-2.197l43.79-43.797 17.956 17.94-67.05 67.064-67.046-67.059 17.972-17.926 43.771 43.778c1.406 1.407 3.313 2.197 5.303 2.197z" fill="#4d5d81" data-original="#000000" style="" class=""/><path d="m353.78 292.066c1.989 0 3.897-.791 5.304-2.197l28.551-28.558c2.928-2.929 2.928-7.677 0-10.605l-28.55-28.556c-1.406-1.407-3.314-2.197-5.304-2.197s-3.897.791-5.304 2.197l-28.551 28.557c-2.928 2.929-2.928 7.677 0 10.605l28.55 28.556c1.407 1.408 3.315 2.198 5.304 2.198zm.001-54.005 17.945 17.948-17.946 17.95-17.945-17.948z" fill="#4d5d81" data-original="#000000" style="" class=""/><path d="m255.999 292.493c1.989 0 3.897-.791 5.304-2.197l28.972-28.978c.145-.145.297-.311.429-.466 2.526-2.977 2.346-7.394-.415-10.155l-28.985-28.992c-1.406-1.407-3.314-2.197-5.304-2.197s-3.897.791-5.304 2.197l-28.986 28.992c-2.928 2.929-2.928 7.676 0 10.605l28.986 28.994c1.405 1.406 3.313 2.197 5.303 2.197zm0-54.878 18.38 18.385-18.381 18.385-18.38-18.386z" fill="#4d5d81" data-original="#000000" style="" class=""/><path d="m437.02 74.98c-48.353-48.351-112.64-74.98-181.02-74.98-45.875 0-90.881 12.279-130.152 35.509-3.565 2.109-4.746 6.708-2.637 10.273 2.108 3.565 6.708 4.747 10.273 2.637 36.961-21.863 79.326-33.419 122.516-33.419 64.374 0 124.894 25.068 170.413 70.587s70.587 106.039 70.587 170.413-25.068 124.894-70.587 170.413-106.039 70.587-170.413 70.587-124.894-25.068-170.413-70.587-70.587-106.039-70.587-170.413c0-73.891 33.208-142.68 91.109-188.729 3.242-2.579 3.78-7.297 1.202-10.539-2.579-3.242-7.296-3.779-10.539-1.202-61.5 48.913-96.772 121.981-96.772 200.47 0 68.38 26.629 132.667 74.98 181.02 48.353 48.351 112.64 74.98 181.02 74.98s132.667-26.629 181.02-74.98c48.351-48.353 74.98-112.64 74.98-181.02s-26.629-132.667-74.98-181.02z" fill="#4d5d81" data-original="#000000" style="" class=""/><path d="m159.424 458.04c30.272 14.496 62.765 21.845 96.576 21.845 59.802 0 116.024-23.288 158.311-65.574 42.286-42.287 65.574-98.509 65.574-158.311s-23.288-116.024-65.574-158.311c-42.287-42.286-98.509-65.574-158.311-65.574s-116.024 23.288-158.311 65.574c-42.286 42.287-65.574 98.509-65.574 158.311 0 73.882 36.43 142.963 97.45 184.791 3.417 2.343 8.085 1.47 10.426-1.946 2.342-3.417 1.471-8.084-1.945-10.426-56.938-39.03-90.931-103.485-90.931-172.419 0-115.179 93.706-208.885 208.885-208.885s208.885 93.706 208.885 208.885-93.706 208.885-208.885 208.885c-31.551 0-61.864-6.855-90.098-20.375-3.737-1.789-8.215-.21-10.004 3.525s-.21 8.215 3.526 10.005z" fill="#4d5d81" data-original="#000000" style="" class=""/></g></g></svg>
