<?xml version="1.0"?>
<svg xmlns="http://www.w3.org/2000/svg" xmlns:xlink="http://www.w3.org/1999/xlink" xmlns:svgjs="http://svgjs.com/svgjs" version="1.1" width="512" height="512" x="0" y="0" viewBox="0 0 512 512" style="enable-background:new 0 0 512 512" xml:space="preserve" class=""><g><g xmlns="http://www.w3.org/2000/svg"><g><g><path d="m256 512c-68.38 0-132.667-26.629-181.019-74.981s-74.981-112.64-74.981-181.019 26.629-132.667 74.981-181.019c20.134-20.133 43.134-36.62 68.362-49.002 3.692-1.812 8.153-.287 9.965 3.403 1.811 3.692.288 8.153-3.403 9.965-23.756 11.658-45.422 27.19-64.395 46.163-45.54 45.54-70.619 106.088-70.619 170.49s25.079 124.95 70.619 170.49 106.088 70.619 170.49 70.619 124.95-25.079 170.49-70.619 70.619-106.088 70.619-170.49-25.079-124.95-70.619-170.49-106.088-70.619-170.49-70.619c-25.289 0-50.158 3.862-73.913 11.479-3.915 1.254-8.108-.901-9.364-4.817-1.255-3.916.901-8.108 4.817-9.364 25.227-8.088 51.625-12.189 78.46-12.189 68.38 0 132.667 26.629 181.019 74.981s74.981 112.64 74.981 181.019-26.629 132.667-74.981 181.019-112.639 74.981-181.019 74.981zm0-39.709c-47.124 0-91.946-14.952-129.62-43.24-3.288-2.469-3.952-7.136-1.483-10.425 2.469-3.288 7.136-3.952 10.425-1.483 35.075 26.336 76.805 40.257 120.678 40.257 111.052 0 201.4-90.348 201.4-201.4s-90.348-201.4-201.4-201.4-201.4 90.348-201.4 201.4c0 51.701 19.64 100.883 55.302 138.486 2.829 2.984 2.705 7.696-.279 10.526-2.984 2.829-7.696 2.704-10.526-.279-38.297-40.382-59.388-93.202-59.388-148.733 0-119.263 97.028-216.291 216.291-216.291s216.291 97.028 216.291 216.291-97.028 216.291-216.291 216.291z" fill="#f7931a" data-original="#000000" style="" class=""/></g></g><g><path d="m321.46 239.159c4.117-5.808 7.352-12.247 9.504-18.974 1.254-3.916-.905-8.107-4.822-9.36-3.915-1.252-8.107.905-9.36 4.822-2.371 7.41-6.421 14.381-11.714 20.162-1.517 1.658-2.205 3.911-1.871 6.133s1.653 4.175 3.59 5.313c19.056 11.201 30.894 31.823 30.894 53.82 0 34.403-27.988 62.391-62.391 62.391-14.848 0-69.071.24-69.65.242-1.983 0-3.848-.77-5.254-2.17-1.393-1.387-2.192-3.31-2.192-5.276v-204.13c0-4.106 3.34-7.445 7.445-7.445h59.295c24.655 0 46.289 16.646 52.609 40.48 1.054 3.975 5.13 6.343 9.105 5.288 3.975-1.054 6.342-5.13 5.288-9.105-7.428-28.013-31.47-48.214-59.816-51.166v-22.414c0-5.483-4.445-9.927-9.927-9.927s-9.927 4.445-9.927 9.927v22.027h-20.142v-22.027c0-5.483-4.445-9.927-9.927-9.927s-9.927 4.445-9.927 9.927v22.027h-6.63c-12.317 0-22.336 10.02-22.336 22.336v204.13c0 5.899 2.397 11.669 6.577 15.829 4.215 4.196 9.811 6.508 15.858 6.508.114 0 2.578-.011 6.531-.028v18.742c0 5.483 4.445 9.927 9.927 9.927s9.927-4.444 9.927-9.927v-18.824c6.551-.026 13.575-.052 20.142-.075v18.899c0 5.483 4.444 9.927 9.927 9.927s9.927-4.444 9.927-9.927v-18.954c1.191-.002 2.255-.003 3.169-.003 42.614 0 77.282-34.668 77.282-77.282.002-24.391-11.735-47.411-31.111-61.916z" fill="#f7931a" data-original="#000000" style="" class=""/><path d="m264.936 159.579h-44.404c-4.112 0-7.445 3.333-7.445 7.445v64.215c0 4.112 3.333 7.445 7.445 7.445 0 0 40.076-.055 44.404-.055 21.794 0 39.525-17.731 39.525-39.525s-17.731-39.525-39.525-39.525zm0 64.16c-4.339 0-36.958.055-36.958.055v-49.324h36.958c13.584 0 24.635 11.051 24.635 24.634-.001 13.584-11.052 24.635-24.635 24.635z" fill="#f7931a" data-original="#000000" style="" class=""/><path d="m213.086 261.021v80.288c0 1.98.789 3.878 2.191 5.276 1.396 1.39 3.285 2.17 5.254 2.17h.031c16.032-.067 44.462-.179 54.728-.179 26.192 0 47.5-21.308 47.5-47.5s-21.308-47.5-47.5-47.5h-54.759c-4.111 0-7.445 3.333-7.445 7.445zm14.891 7.446h47.314c17.981 0 32.609 14.628 32.609 32.609s-14.628 32.609-32.609 32.609c-8.836 0-31.051.082-47.314.148z" fill="#f7931a" data-original="#000000" style="" class=""/></g></g></g></svg>
