<?xml version="1.0"?>
<svg xmlns="http://www.w3.org/2000/svg" xmlns:xlink="http://www.w3.org/1999/xlink" xmlns:svgjs="http://svgjs.com/svgjs" version="1.1" width="512" height="512" x="0" y="0" viewBox="0 0 512 512" style="enable-background:new 0 0 512 512" xml:space="preserve" class=""><g><g xmlns="http://www.w3.org/2000/svg"><path d="m437.02 74.98c-48.353-48.351-112.64-74.98-181.02-74.98-33.577 0-66.223 6.403-97.03 19.031-3.833 1.571-5.667 5.951-4.095 9.784 1.571 3.833 5.951 5.666 9.784 4.096 28.993-11.885 59.725-17.911 91.341-17.911 64.374 0 124.894 25.068 170.413 70.587s70.587 106.039 70.587 170.413-25.068 124.894-70.587 170.413-106.039 70.587-170.413 70.587-124.894-25.068-170.413-70.587-70.587-106.039-70.587-170.413c0-43.448 11.687-86.033 33.796-123.15 21.477-36.056 52.125-66.041 88.63-86.712 3.604-2.041 4.872-6.618 2.831-10.222-2.04-3.604-6.616-4.87-10.222-2.831-38.769 21.954-71.317 53.797-94.125 92.089-23.493 39.438-35.91 84.677-35.91 130.826 0 68.38 26.629 132.667 74.98 181.02 48.353 48.351 112.64 74.98 181.02 74.98s132.667-26.629 181.02-74.98c48.351-48.353 74.98-112.64 74.98-181.02s-26.629-132.667-74.98-181.02z" fill="#4d5d81" data-original="#000000" style="" class=""/><path d="m180.252 466.744c24.256 8.72 49.741 13.141 75.748 13.141 59.802 0 116.024-23.288 158.311-65.574 42.286-42.287 65.574-98.509 65.574-158.311s-23.288-116.024-65.574-158.311c-42.287-42.286-98.509-65.574-158.311-65.574s-116.024 23.288-158.311 65.574c-42.286 42.287-65.574 98.509-65.574 158.311 0 82.168 44.894 157.6 117.163 196.858 3.64 1.977 8.193.629 10.17-3.01 1.977-3.64.629-8.193-3.01-10.17-67.433-36.632-109.323-107.013-109.323-183.678 0-115.179 93.706-208.885 208.885-208.885s208.885 93.706 208.885 208.885-93.706 208.885-208.885 208.885c-24.272 0-48.05-4.124-70.674-12.256-3.898-1.401-8.194.622-9.595 4.521-1.401 3.897.623 8.193 4.521 9.594z" fill="#4d5d81" data-original="#000000" style="" class=""/><path d="m295.77 234.482c8.341-2.192 15.316-7.522 19.639-15.008 4.373-7.572 5.506-16.413 3.191-24.895-4.74-17.368-22.65-27.805-39.924-23.266l-79.007 20.763c-1.936.509-3.588 1.77-4.589 3.503-1 1.733-1.267 3.794-.74 5.725l13.282 48.662c.91 3.332 3.93 5.527 7.23 5.527.631 0 1.272-.081 1.911-.248zm-84.967-29.823 71.685-18.838c9.353-2.46 19.058 3.244 21.641 12.707 1.253 4.591.646 9.366-1.71 13.445-2.306 3.993-6.021 6.835-10.461 8.001l-71.822 18.875z" fill="#4d5d81" data-original="#000000" style="" class=""/><path d="m237.72 339.28c.631 0 1.272-.081 1.911-.248l90.667-23.827c9.243-2.429 16.972-8.338 21.765-16.638 4.856-8.41 6.113-18.232 3.541-27.658-5.266-19.292-25.141-30.891-44.305-25.855l-90.667 23.827c-1.936.509-3.588 1.77-4.588 3.503-1.001 1.733-1.268 3.794-.741 5.725l15.187 55.644c.909 3.332 3.929 5.527 7.23 5.527zm77.39-79.718c11.241-2.954 22.914 3.908 26.022 15.297 1.511 5.535.779 11.291-2.06 16.208-2.776 4.807-7.246 8.227-12.588 9.631l-83.481 21.938-11.237-41.172z" fill="#4d5d81" data-original="#000000" style="" class=""/><path d="m173.645 347.375c-2.962 5.13-3.721 11.153-2.137 16.959 3.197 11.712 15.113 18.79 26.562 15.782l31.358-8.241 2.021 7.402c2.699 9.889 11.613 16.475 21.215 16.475 1.771 0 3.565-.224 5.347-.692 5.48-1.44 10.073-4.96 12.931-9.911 2.962-5.13 3.721-11.153 2.136-16.958l-1.983-7.265 15.449-4.06 2.021 7.402c3.196 11.711 15.113 18.793 26.563 15.782 5.48-1.44 10.072-4.96 12.931-9.911 2.962-5.13 3.721-11.152 2.136-16.958l-1.983-7.265 9.768-2.567c16.289-4.281 29.94-14.743 38.437-29.458 8.769-15.186 11.023-32.985 6.346-50.119-5.338-19.556-18.917-35.291-37.001-43.32 2.987-10.725 3.003-21.998-.002-33.011-8.813-32.288-41.3-52.023-73.004-44.706l-2.732-10.012c-3.196-11.711-15.111-18.792-26.563-15.782-5.48 1.44-10.073 4.96-12.931 9.911-2.962 5.13-3.721 11.153-2.136 16.958l2.688 9.849-15.449 4.06-2.726-9.986c-3.196-11.712-15.114-18.792-26.563-15.782-5.48 1.44-10.072 4.96-12.931 9.911-2.962 5.13-3.721 11.152-2.136 16.958l2.688 9.849-31.221 8.204c-5.48 1.44-10.073 4.959-12.931 9.91-2.963 5.13-3.722 11.153-2.137 16.959 3.196 11.711 15.109 18.792 26.562 15.783l14.898-3.916 32.201 117.977-14.761 3.879c-5.48 1.44-10.073 4.959-12.931 9.91zm16.743 4.598 22.084-5.804c1.936-.509 3.588-1.77 4.589-3.503 1-1.733 1.267-3.794.74-5.725l-36.15-132.448c-1.083-3.97-5.163-6.322-9.142-5.279l-22.084 5.804c-3.521.929-7.239-1.417-8.278-5.224-.522-1.915-.29-3.871.655-5.508.842-1.458 2.175-2.488 3.754-2.903l38.543-10.129c1.936-.509 3.588-1.77 4.589-3.503 1-1.733 1.267-3.794.74-5.726l-4.682-17.153c-.522-1.915-.29-3.871.656-5.508.841-1.458 2.175-2.489 3.754-2.904 3.524-.931 7.239 1.417 8.279 5.224l4.682 17.153c1.083 3.969 5.159 6.323 9.142 5.279l29.957-7.873c1.936-.509 3.588-1.77 4.588-3.503 1.001-1.733 1.268-3.794.741-5.725l-4.682-17.154c-.523-1.915-.29-3.871.655-5.508.841-1.458 2.175-2.489 3.754-2.904 3.523-.93 7.239 1.417 8.279 5.224l4.682 17.153c1.084 3.97 5.165 6.324 9.142 5.279l5.431-1.427c24.323-6.395 49.663 8.731 56.481 33.713 2.812 10.302 2.151 20.888-1.912 30.611-.814 1.949-.769 4.15.125 6.063.893 1.914 2.551 3.362 4.568 3.989 16.756 5.213 29.55 18.547 34.223 35.667 3.615 13.243 1.887 26.976-4.865 38.669-6.48 11.222-16.872 19.195-29.26 22.451l-17.091 4.491c-1.936.509-3.588 1.77-4.588 3.503-1.001 1.733-1.268 3.794-.741 5.725l3.977 14.569c.522 1.915.29 3.871-.655 5.508-.842 1.458-2.175 2.489-3.754 2.904-3.529.927-7.24-1.417-8.279-5.224l-3.977-14.569c-1.083-3.97-5.162-6.323-9.142-5.279l-29.957 7.873c-1.936.509-3.588 1.77-4.588 3.503-1.001 1.733-1.268 3.794-.741 5.725l3.976 14.57c.523 1.915.29 3.871-.655 5.508-.841 1.458-2.175 2.489-3.754 2.904-3.528.93-7.24-1.417-8.279-5.224l-3.977-14.569c-.91-3.333-3.93-5.527-7.23-5.527-.631 0-1.272.081-1.911.248l-38.544 10.129c-3.53.925-7.239-1.417-8.278-5.224-.522-1.915-.29-3.872.655-5.508.843-1.459 2.176-2.49 3.755-2.904z" fill="#4d5d81" data-original="#000000" style="" class=""/></g></g></svg>
