<?xml version="1.0"?>
<svg xmlns="http://www.w3.org/2000/svg" xmlns:xlink="http://www.w3.org/1999/xlink" xmlns:svgjs="http://svgjs.com/svgjs" version="1.1" width="512" height="512" x="0" y="0" viewBox="0 0 512 512" style="enable-background:new 0 0 512 512" xml:space="preserve" class=""><g><g xmlns="http://www.w3.org/2000/svg"><path d="m437.019 74.98c-48.352-48.352-112.639-74.98-181.019-74.98s-132.667 26.628-181.019 74.98c-48.352 48.354-74.981 112.641-74.981 181.02s26.629 132.666 74.981 181.02c48.352 48.352 112.64 74.98 181.019 74.98 22.775 0 45.34-2.97 67.067-8.83 3.97-1.07 6.321-5.157 5.25-9.127-1.071-3.969-5.158-6.324-9.127-5.25-20.464 5.518-41.724 8.316-63.19 8.316-64.402 0-124.95-25.08-170.49-70.619-45.54-45.54-70.619-106.089-70.619-170.49s25.079-124.95 70.619-170.49 106.087-70.619 170.49-70.619 124.951 25.08 170.49 70.619 70.619 106.089 70.619 170.49-25.079 124.95-70.619 170.49c-22.021 22.02-47.5 39.301-75.73 51.364-3.781 1.615-5.537 5.99-3.921 9.772 1.616 3.78 5.99 5.538 9.772 3.921 29.985-12.812 57.038-31.158 80.409-54.526 48.351-48.355 74.98-112.642 74.98-181.021s-26.629-132.666-74.981-181.02z" fill="#f7931a" data-original="#000000" style="" class=""/><path d="m93.173 125.146c-3.293-2.466-7.958-1.793-10.422 1.499-28.158 37.62-43.042 82.35-43.042 129.355 0 119.263 97.028 216.291 216.291 216.291s216.291-97.028 216.291-216.291-97.028-216.291-216.291-216.291c-55.922 0-109.014 21.349-149.496 60.115-2.969 2.844-3.072 7.557-.228 10.527 2.844 2.968 7.556 3.072 10.527.228 37.697-36.098 87.131-55.979 139.197-55.979 111.052 0 201.4 90.348 201.4 201.4s-90.348 201.4-201.4 201.4-201.4-90.348-201.4-201.4c0-43.763 13.857-85.408 40.072-120.432 2.464-3.293 1.793-7.959-1.499-10.422z" fill="#f7931a" data-original="#000000" style="" class=""/><path d="m141.186 346.889c3.883 4.853 9.675 7.636 15.89 7.636h139.271c18.446 0 36.538-6.347 50.941-17.872s24.563-27.784 28.609-45.781l12.858-57.2c4.965-22.086-.3-44.893-14.444-62.57s-35.24-27.815-57.879-27.815h-121.021c-9.588 0-17.752 6.533-19.855 15.888l-13.861 61.664h-32.581c-7.529 0-14.064 5.101-15.89 12.404l-7.025 28.081c-1.035 4.139-.123 8.44 2.502 11.802 2.624 3.362 6.576 5.29 10.841 5.29h29.21l-11.531 51.294c-1.364 6.065.081 12.326 3.965 17.179zm-13.517-110.032c.166-.664.76-1.127 1.445-1.127h136.733l-6.672 26.669c-.166.664-.76 1.128-1.444 1.128h-136.734zm80.097 41.56h49.964c7.528 0 14.063-5.1 15.89-12.404l7.025-28.081c1.035-4.139.123-8.44-2.502-11.802-2.624-3.362-6.576-5.29-10.841-5.29h-46.594l4.49-19.973h90.692c5.298 0 10.144 2.188 13.295 6.004 3.286 3.98 4.523 9.146 3.392 14.175l-12.858 57.199c-2.476 11.012-12.087 18.703-23.374 18.703h-92.746zm-15.262 0-4.929 21.923c-.631 2.81.039 5.711 1.839 7.959 1.8 2.249 4.484 3.539 7.364 3.539h99.57c18.302 0 33.888-12.471 37.902-30.328l12.858-57.199c2.148-9.554-.199-19.367-6.438-26.923-5.99-7.254-15.021-11.413-24.778-11.413h-95.062c-4.444 0-8.228 3.029-9.201 7.363l-6.182 27.501h-28.491l13.128-58.398c.564-2.509 2.755-4.262 5.327-4.262h121.021c18.091 0 34.95 8.102 46.253 22.227 11.303 14.127 15.51 32.352 11.542 50.002l-12.858 57.2c-3.307 14.71-11.611 27.999-23.384 37.419s-26.56 14.608-41.638 14.608h-139.271c-2.283 0-3.651-1.284-4.263-2.048-.613-.766-1.565-2.382-1.064-4.61l12.265-54.559h28.49z" fill="#f7931a" data-original="#000000" style="" class=""/></g></g></svg>
