<svg width="75" height="75" viewBox="0 0 75 75" fill="none" xmlns="http://www.w3.org/2000/svg">
<rect width="75" height="75" fill="#191919"/>
<path d="M64.0166 10.9834C56.9338 3.90073 47.5166 0 37.5 0C29.3931 0 21.6763 2.54517 15.1834 7.3604C14.696 7.72178 14.5941 8.40996 14.9553 8.89731C15.3168 9.38467 16.005 9.48677 16.4922 9.12524C22.6037 4.59287 29.8679 2.19727 37.5 2.19727C46.9298 2.19727 55.795 5.86934 62.4628 12.5372C69.1307 19.205 72.8027 28.0702 72.8027 37.5C72.8027 46.9298 69.1307 55.795 62.4628 62.4628C55.795 69.1307 46.9298 72.8027 37.5 72.8027C28.0702 72.8027 19.205 69.1307 12.5372 62.4628C5.86934 55.795 2.19727 46.9298 2.19727 37.5C2.19727 27.9589 5.94419 19.0194 12.7478 12.3283C13.1804 11.9029 13.1862 11.2072 12.7608 10.7747C12.3353 10.3419 11.6396 10.3362 11.2072 10.7618C3.98013 17.8692 0 27.365 0 37.5C0 47.5166 3.90073 56.9336 10.9834 64.0166C18.0662 71.0993 27.4834 75 37.5 75C47.5166 75 56.9338 71.0993 64.0166 64.0166C71.0993 56.9336 75 47.5166 75 37.5C75 27.4834 71.0993 18.0664 64.0166 10.9834V10.9834Z" fill="#4D5D81"/>
<path d="M26.7306 68.4862C30.1857 69.6869 33.809 70.2957 37.5 70.2957C46.2601 70.2957 54.4957 66.8844 60.6901 60.6901C66.8843 54.4957 70.2957 46.2601 70.2957 37.5C70.2957 28.74 66.8843 20.5043 60.6901 14.3099C54.4957 8.11571 46.2601 4.70438 37.5 4.70438C28.7399 4.70438 20.5043 8.11571 14.3099 14.3099C8.11568 20.5043 4.70435 28.74 4.70435 37.5C4.70435 49.5362 11.2808 60.5858 21.8669 66.3367C22.4005 66.6266 23.0672 66.4288 23.3566 65.8957C23.6464 65.3625 23.4489 64.6956 22.9157 64.406C13.038 59.0398 6.90161 48.7303 6.90161 37.5C6.90161 20.6281 20.6279 6.90164 37.5 6.90164C54.3721 6.90164 68.0984 20.6281 68.0984 37.5C68.0984 54.372 54.3721 68.0984 37.5 68.0984C34.0551 68.0984 30.6746 67.5307 27.4519 66.4108C26.8783 66.2117 26.2526 66.5148 26.0536 67.088C25.8543 67.6609 26.1576 68.287 26.7306 68.4862V68.4862Z" fill="#4D5D81"/>
<g clip-path="url(#clip0)">
<rect width="42" height="42" transform="translate(17 17)" fill="#191919"/>
<path d="M51.3038 28.7787C50.0338 27.1556 48.4877 25.8073 46.7093 24.7723L46.3415 24.5933L46.3282 24.6003L45.2582 24.0241C43.1652 23.0765 40.9358 22.596 38.6336 22.596C29.765 22.596 22.5495 29.8115 22.5495 38.6801C22.5495 40.7074 22.9265 42.6914 23.6943 44.6313L24.5537 46.3502L24.5222 46.4061L24.725 46.7537C25.8599 48.7047 27.43 50.4321 29.2656 51.7502L29.6488 52.0258L30.0468 51.7719C38.8 46.218 50.5827 30.6688 51.1107 29.9646C51.1107 29.9646 51.2065 29.815 51.3541 29.5667L51.5981 29.1555L51.3038 28.7787ZM25.3629 46.3831L25.3468 46.3733L25.3636 46.3831H25.3629ZM29.7007 50.3313C28.2923 49.2481 27.0713 47.8984 26.1377 46.39L24.9706 44.0627C24.2923 42.3417 23.9482 40.5313 23.9482 38.6801C23.9482 30.5821 30.5357 23.9946 38.6337 23.9946C40.7365 23.9946 42.7708 24.4338 44.6387 25.2771L45.9946 26.0086L46.2317 26.1149C47.6219 26.9576 48.8513 28.0128 49.8946 29.2597C48.9122 30.5493 37.8672 44.9117 29.7007 50.3313Z" fill="#4D5D81"/>
<path d="M53.6604 32.9445L53.1884 31.7074L52.4331 32.7948C50.0373 36.2445 46.875 39.9411 43.0351 43.781L43.0169 43.7992C39.6343 47.4411 36.3378 50.4223 33.2181 52.6587L32.1174 53.4475L33.3978 53.8881C35.0874 54.4699 36.8489 54.7643 38.6335 54.7643C47.5022 54.7643 54.7176 47.5495 54.7176 38.6816C54.7178 36.7116 54.3619 34.7815 53.6604 32.9445ZM38.6337 53.3656C37.4637 53.3656 36.3043 53.2272 35.1721 52.9524C38.0225 50.7782 40.9973 48.0286 44.0324 44.7592C47.5128 41.2788 50.4486 37.9074 52.7766 34.7206C53.1374 36.0067 53.3193 37.3332 53.3193 38.6801C53.3192 46.7782 46.7317 53.3656 38.6337 53.3656Z" fill="#4D5D81"/>
<path d="M57.6661 18.1835C56.8486 17.3842 55.7346 16.9512 54.6017 17.0044C49.1792 17.2422 43.2435 23.1178 42.9939 23.3674L42.2659 24.0954L47.0673 26.173L47.3708 25.9996C51.1219 23.8569 51.7352 24.4317 51.7408 24.4374C52.1261 24.8437 51.2471 27.1633 49.9632 29.1668L49.8269 29.3458C48.5814 30.9772 37.4218 45.4348 29.2993 50.5901L29.1713 50.674C24.9685 53.3013 24.2013 52.8419 24.1985 52.8419C23.9538 52.4929 24.6132 50.5006 26.4881 47.6677L26.7468 47.2768L26.3706 46.7229C26.2831 46.5949 26.1958 46.4676 26.1111 46.3376L24.9705 44.0621C24.9558 44.0243 24.9439 43.9859 24.9314 43.9474C24.9139 43.8928 24.8957 43.839 24.8762 43.7859L24.0873 42.4474L23.4537 43.081C23.2034 43.3314 17.3278 49.2664 17.0907 54.6888C17.0418 55.8182 17.4712 56.9357 18.2698 57.7532C19.046 58.5483 20.1132 59.0002 21.2076 59.0002C21.2335 59.0002 21.2594 59.0001 21.286 58.9994C25.7119 58.912 33.2526 56.3693 44.0226 44.7678C47.4751 41.3159 58.7508 29.4144 58.9123 21.1989C58.934 20.0772 58.4801 18.9779 57.6661 18.1835ZM43.017 43.7992C38.2925 48.8866 29.1839 57.4448 21.2587 57.6007C20.5153 57.6071 19.8048 57.3231 19.2712 56.7763C18.7411 56.2343 18.4565 55.4952 18.4886 54.7503C18.6579 50.8902 22.2523 46.4866 23.7733 44.7894L24.5537 46.351L24.5222 46.4062L24.7243 46.7545C24.8313 46.9377 24.9461 47.1147 25.0642 47.2901C22.8908 50.6636 22.262 52.858 23.1949 53.816C24.1474 54.7937 26.1565 54.2084 29.9139 51.8607L30.0495 51.7719C38.3762 46.4872 49.6777 31.8471 50.9449 30.1877L51.1099 29.9675C51.8498 28.8171 54.154 24.9478 52.7561 23.4751C51.8658 22.5373 50.0791 22.8856 46.984 24.6136L44.749 23.6465C46.479 22.1024 50.8379 18.5701 54.6638 18.403C55.4079 18.3729 56.147 18.6562 56.6897 19.1856C57.2366 19.7184 57.5289 20.4248 57.5142 21.1731C57.4766 23.1178 56.3192 30.4962 43.017 43.7992Z" fill="#4D5D81"/>
<path d="M38.6337 26.0926C38.633 26.0926 38.6323 26.0926 38.6316 26.0926C35.3098 26.0926 31.9 27.5164 29.7336 29.8081C29.4685 30.0892 29.4811 30.5319 29.7615 30.7969C29.8965 30.9249 30.0692 30.9878 30.242 30.9878C30.4273 30.9878 30.6126 30.9144 30.7504 30.7689C32.6616 28.7473 35.6812 27.4913 38.6316 27.4913C38.6322 27.4913 38.633 27.4913 38.6337 27.4913C39.0197 27.4913 39.333 27.178 39.333 26.792C39.333 26.4059 39.0204 26.0926 38.6337 26.0926Z" fill="#4D5D81"/>
<path d="M27.7049 40.2165C27.5343 39.227 27.4469 38.2396 27.4455 37.2816C27.4448 36.8955 27.1322 36.5829 26.7462 36.5829H26.7454C26.3588 36.5836 26.0462 36.8969 26.0468 37.2829C26.0482 38.3193 26.1426 39.3865 26.3265 40.4536C26.3853 40.7942 26.6804 41.034 27.0147 41.034C27.0538 41.034 27.0937 41.0312 27.1349 41.0242C27.5154 40.9592 27.7706 40.597 27.7049 40.2165Z" fill="#4D5D81"/>
<path d="M29.0028 46.8173L29.5427 46.3726L29.3622 46.5132L29.0028 46.8173Z" fill="#4D5D81"/>
<path d="M28.7846 43.9942C28.63 43.6404 28.2174 43.4789 27.8636 43.6341C27.5097 43.7886 27.3482 44.2012 27.5034 44.5551C27.9152 45.4964 28.3901 46.0726 28.9908 46.8027L29.3621 46.5132L30.0705 45.9138C29.4972 45.2173 29.1189 44.7572 28.7846 43.9942Z" fill="#4D5D81"/>
</g>
<defs>
<clipPath id="clip0">
<rect width="42" height="42" fill="white" transform="translate(17 17)"/>
</clipPath>
</defs>
</svg>
