<?xml version="1.0"?>
<svg xmlns="http://www.w3.org/2000/svg" xmlns:xlink="http://www.w3.org/1999/xlink" xmlns:svgjs="http://svgjs.com/svgjs" version="1.1" width="512" height="512" x="0" y="0" viewBox="0 0 512 512" style="enable-background:new 0 0 512 512" xml:space="preserve" class=""><g><g xmlns="http://www.w3.org/2000/svg"><path d="m54.6 256c0-111.052 90.348-201.4 201.4-201.4 20.553 0 40.833 3.099 60.278 9.212 3.924 1.234 8.103-.947 9.336-4.871 1.232-3.922-.948-8.103-4.871-9.336-20.892-6.566-42.675-9.896-64.744-9.896-119.262 0-216.29 97.028-216.29 216.291 0 33.514 7.493 65.664 22.272 95.554 1.298 2.625 3.936 4.147 6.68 4.147 1.108 0 2.234-.249 3.294-.773 3.686-1.823 5.196-6.289 3.374-9.975-13.755-27.819-20.729-57.748-20.729-88.953z" fill="#f7931a" data-original="#000000" style="" class=""/><path d="m437.02 74.98c-48.354-48.352-112.641-74.98-181.02-74.98s-132.666 26.628-181.02 74.98c-48.352 48.354-74.98 112.641-74.98 181.02s26.628 132.666 74.98 181.02c48.352 48.352 112.64 74.98 181.02 74.98s132.668-26.628 181.02-74.98c48.352-48.354 74.98-112.641 74.98-181.02s-26.628-132.666-74.98-181.02zm-10.53 351.51c-45.539 45.539-106.087 70.619-170.49 70.619s-124.951-25.08-170.49-70.619c-45.539-45.54-70.619-106.089-70.619-170.49s25.08-124.95 70.619-170.49 106.089-70.619 170.49-70.619 124.95 25.08 170.49 70.619 70.619 106.089 70.619 170.49-25.08 124.95-70.619 170.49z" fill="#f7931a" data-original="#000000" style="" class=""/><path d="m357.448 65.009c-3.632-1.936-8.139-.56-10.074 3.066-1.934 3.629-.561 8.139 3.066 10.074 65.976 35.18 106.96 103.328 106.96 177.851 0 111.052-90.348 201.4-201.4 201.4-63.461 0-123.994-30.568-161.925-81.771-2.448-3.302-7.109-3.997-10.415-1.55-3.304 2.448-3.998 7.11-1.55 10.415 19.723 26.622 45.666 48.703 75.025 63.853 30.358 15.665 64.545 23.945 98.866 23.945 119.263 0 216.291-97.028 216.291-216.291-.001-80.035-44.006-153.219-114.844-190.992z" fill="#f7931a" data-original="#000000" style="" class=""/><path d="m288.4 238.241c2.394.266 4.789.399 7.176.399 24.084 0 47.295-13.345 58.696-36.346 16.013-32.308 2.756-71.619-29.55-87.632-32.309-16.013-71.618-2.755-87.633 29.552-1.28 2.583-2.397 5.267-3.323 7.978-1.329 3.891.748 8.123 4.64 9.452 3.891 1.328 8.123-.747 9.452-4.64.716-2.098 1.582-4.177 2.574-6.178 12.366-24.95 42.726-35.191 67.676-22.822 24.951 12.366 35.189 42.726 22.822 67.676-12.366 24.951-42.728 35.188-67.676 22.822-11.704-5.801-20.6-15.757-25.05-28.033-1.401-3.865-5.667-5.864-9.537-4.462-3.866 1.401-5.864 5.67-4.462 9.537 3.131 8.64 7.975 16.381 14.166 22.864l-5.643 11.385c-1.49 3.006-4.347 5.176-7.643 5.802l-10.815 2.058c-5.594-15.088-16.701-28.166-32.223-35.859-32.31-16.016-71.618-2.756-87.632 29.55-7.757 15.65-8.955 33.384-3.374 49.935 5.581 16.552 17.274 29.939 32.924 37.696 9.306 4.613 19.192 6.796 28.936 6.796 24.084 0 47.295-13.345 58.696-36.346 1.029-2.076 1.932-4.181 2.722-6.306l10.651-2.026c4.72-.897 9.515 1.478 11.661 5.78l4.837 9.702c-1.213 1.916-2.341 3.909-3.37 5.985-16.013 32.307-2.756 71.618 29.55 87.632 9.306 4.612 19.191 6.796 28.935 6.796 24.084 0 47.295-13.345 58.697-36.346 16.013-32.307 2.756-71.619-29.55-87.632-15.524-7.694-32.658-8.615-48.052-3.928l-4.911-9.852c-1.497-3.003-1.501-6.59-.011-9.598zm-80.144 44.569c-12.366 24.952-42.729 35.188-67.676 22.822-12.087-5.99-21.117-16.33-25.427-29.112-4.311-12.782-3.385-26.478 2.605-38.563 8.806-17.766 26.728-28.071 45.33-28.071 7.523 0 15.161 1.688 22.346 5.249 24.95 12.367 35.187 42.726 22.822 67.675zm120.86 3.54c24.95 12.366 35.189 42.726 22.822 67.676-12.367 24.949-42.724 35.187-67.676 22.822-24.95-12.367-35.189-42.727-22.822-67.676 8.806-17.766 26.728-28.071 45.33-28.071 7.523 0 15.161 1.688 22.346 5.249zm-67.273-2.341-1.886-3.783c-5.107-10.243-16.525-15.902-27.77-13.764l-4.152.79c.53-5.068.455-10.142-.187-15.122l10.02-1.906c7.85-1.493 14.654-6.659 18.203-13.818l4.094-8.26c2.078 1.341 4.232 2.585 6.476 3.697 2.256 1.118 4.547 2.091 6.86 2.927l-4.088 8.247c-3.548 7.159-3.539 15.702.026 22.853l4.551 9.129c-4.351 2.506-8.434 5.519-12.147 9.01z" fill="#f7931a" data-original="#000000" style="" class=""/></g></g></svg>
