<?xml version="1.0" encoding="iso-8859-1"?>
<!-- Generator: Adobe Illustrator 19.0.0, SVG Export Plug-In . SVG Version: 6.00 Build 0)  -->
<svg version="1.1" id="Capa_1" xmlns="http://www.w3.org/2000/svg" xmlns:xlink="http://www.w3.org/1999/xlink" x="0px" y="0px"
	 viewBox="0 0 512.019 512.019" style="enable-background:new 0 0 512.019 512.019;" xml:space="preserve">
<g>
	<g>
		<path d="M418.195,143.593c-15.482-19.787-34.331-36.224-56.011-48.841l-4.484-2.182l-0.162,0.085l-13.044-7.025
			c-25.516-11.552-52.694-17.409-80.76-17.409c-108.117,0-196.08,87.963-196.08,196.08c0,24.715,4.595,48.901,13.956,72.55
			l10.477,20.955l-0.384,0.682l2.472,4.237c13.836,23.785,32.976,44.843,55.354,60.913l4.672,3.359l4.851-3.095
			c106.71-67.707,250.352-257.266,256.789-265.851c0,0,1.168-1.824,2.967-4.851l2.975-5.013L418.195,143.593z M101.951,358.207
			l-0.196-0.119l0.205,0.119H101.951z M154.833,406.34c-17.17-13.206-32.055-29.659-43.436-48.048L97.169,329.92
			c-8.269-20.981-12.464-43.052-12.464-65.619c0-98.722,80.308-179.03,179.03-179.03c25.635,0,50.435,5.354,73.206,15.635
			l16.53,8.917l2.89,1.296c16.948,10.273,31.936,23.137,44.655,38.338C389.039,165.179,254.391,340.27,154.833,406.34z"/>
	</g>
</g>
<g>
	<g>
		<path d="M446.925,194.378l-5.755-15.081l-9.207,13.257c-29.207,42.055-67.759,87.119-114.571,133.931l-0.222,0.222
			c-41.237,44.399-81.424,80.742-119.456,108.006l-13.419,9.616l15.61,5.371c20.597,7.093,42.072,10.682,63.828,10.682
			c108.117,0,196.08-87.955,196.08-196.063C459.815,240.303,455.476,216.773,446.925,194.378z M263.735,443.331
			c-14.263,0-28.398-1.688-42.2-5.038c34.749-26.505,71.015-60.026,108.015-99.882c42.43-42.43,78.219-83.53,106.6-122.38
			c4.399,15.678,6.616,31.85,6.616,48.27C442.765,363.024,362.457,443.331,263.735,443.331z"/>
	</g>
</g>
<g>
	<g>
		<path d="M495.758,14.427C485.792,4.683,472.211-0.595,458.4,0.053c-66.105,2.899-138.467,74.528-141.51,77.571l-8.875,8.875
			l58.534,25.328l3.7-2.114c45.729-26.121,53.206-19.114,53.274-19.045c4.697,4.953-6.019,33.231-21.671,57.656l-1.662,2.182
			c-15.183,19.889-151.229,196.14-250.25,258.988l-1.56,1.023c-51.237,32.029-60.589,26.428-60.623,26.428
			c-2.984-4.254,5.055-28.542,27.912-63.078l3.154-4.766l-4.587-6.752c-1.066-1.56-2.131-3.112-3.163-4.697l-13.905-27.741
			c-0.179-0.46-0.324-0.929-0.477-1.398c-0.213-0.665-0.435-1.321-0.673-1.969l-9.617-16.317l-7.724,7.724
			c-3.052,3.052-74.681,75.406-77.571,141.51c-0.597,13.768,4.638,27.392,14.374,37.358c9.463,9.693,22.473,15.201,35.815,15.201
			c0.315,0,0.631,0,0.955-0.009c53.956-1.066,145.884-32.063,277.181-173.497c42.089-42.081,179.55-187.172,181.519-287.326
			C511.214,37.513,505.681,24.112,495.758,14.427z M317.171,326.706C259.575,388.727,148.533,493.059,51.917,494.96
			c-9.062,0.077-17.724-3.385-24.229-10.051c-6.462-6.607-9.932-15.618-9.54-24.698c2.063-47.059,45.883-100.743,64.425-121.433
			l9.514,19.037l-0.384,0.673l2.464,4.246c1.304,2.234,2.703,4.391,4.143,6.53c-26.496,41.126-34.161,67.878-22.788,79.557
			c11.611,11.918,36.104,4.783,81.91-23.837l1.654-1.083c101.51-64.425,239.286-242.901,254.734-263.131l2.012-2.685
			c9.02-14.024,37.11-61.194,20.068-79.148c-10.853-11.432-32.635-7.187-70.367,13.879l-27.247-11.79
			c21.091-18.824,74.229-61.885,120.871-63.922c9.071-0.367,18.082,3.086,24.698,9.54c6.667,6.496,10.23,15.107,10.051,24.229
			C493.447,74.581,479.338,164.531,317.171,326.706z"/>
	</g>
</g>
<g>
	<g>
		<path d="M263.735,110.847c-0.009,0-0.017,0-0.026,0c-40.495,0-82.064,17.357-108.475,45.295
			c-3.231,3.427-3.078,8.824,0.341,12.055c1.645,1.56,3.751,2.327,5.857,2.327c2.259,0,4.518-0.895,6.198-2.668
			c23.299-24.646,60.111-39.958,96.079-39.958c0.008,0,0.017,0,0.026,0c4.706,0,8.525-3.819,8.525-8.525
			S268.449,110.847,263.735,110.847z"/>
	</g>
</g>
<g>
	<g>
		<path d="M130.503,283.031c-2.08-12.063-3.146-24.101-3.163-35.78c-0.008-4.706-3.819-8.517-8.525-8.517h-0.009
			c-4.714,0.008-8.525,3.828-8.517,8.534c0.017,12.634,1.168,25.644,3.41,38.653c0.716,4.152,4.314,7.076,8.389,7.076
			c0.477,0,0.963-0.034,1.466-0.119C128.192,292.085,131.304,287.669,130.503,283.031z"/>
	</g>
</g>
<g>
	<g>
		<g>
			<polygon points="146.325,363.501 152.907,358.079 150.707,359.793 			"/>
			<path d="M143.665,329.085c-1.884-4.314-6.914-6.283-11.228-4.391c-4.314,1.884-6.283,6.914-4.391,11.228
				c5.021,11.475,10.81,18.5,18.133,27.4l4.527-3.529l8.636-7.307C152.353,343.995,147.741,338.386,143.665,329.085z"/>
		</g>
	</g>
</g>
<g>
</g>
<g>
</g>
<g>
</g>
<g>
</g>
<g>
</g>
<g>
</g>
<g>
</g>
<g>
</g>
<g>
</g>
<g>
</g>
<g>
</g>
<g>
</g>
<g>
</g>
<g>
</g>
<g>
</g>
</svg>
