<svg width="43" height="43" viewBox="0 0 43 43" fill="none" xmlns="http://www.w3.org/2000/svg">
<path d="M15.308 40.0236C15.308 40.0236 22.2946 35.776 29.4412 40.0236H15.308Z" fill="#C47502"/>
<path d="M16.6023 37.5768C16.6023 37.5029 15.7595 34.8386 15.7595 34.8386L15.0285 35.1422L15.4241 32.7135L17.1897 34.3656L16.4922 34.6193L17.4331 37.3945L16.6023 37.5768Z" fill="white"/>
<path d="M30.4844 21.6591C30.5205 21.5955 31.0864 18.8589 31.0864 18.8589L30.3004 18.7669L31.832 16.8414L32.5648 19.1453L31.8329 19.0258L31.298 21.9059L30.4844 21.6591Z" fill="white"/>
<path d="M9.32584 14.7404C9.31638 14.6682 8.12872 12.138 8.12872 12.138L7.44072 12.5362L7.51124 10.0766L9.47978 11.4802L8.82274 11.8242L10.1248 14.448L9.32584 14.7404Z" fill="white"/>
<path d="M37.3399 28.78C39.9029 27.889 41.2583 25.089 40.3672 22.526C39.4762 19.963 36.6762 18.6076 34.1132 19.4986C31.5501 20.3896 30.1947 23.1897 31.0858 25.7527C31.9768 28.3157 34.7768 29.6711 37.3399 28.78Z" fill="#C47502"/>
<path d="M38.7838 27.186C40.7025 25.2673 40.7025 22.1565 38.7838 20.2377C36.8651 18.319 33.7542 18.319 31.8355 20.2377C29.9168 22.1565 29.9168 25.2673 31.8355 27.186C33.7542 29.1048 36.8651 29.1048 38.7838 27.186Z" fill="#FAA61A"/>
<path d="M36.5065 27.1098C38.452 26.4101 39.4761 24.3049 38.7938 22.4076C38.1114 20.5104 35.9812 19.5395 34.0356 20.2392C32.0901 20.9389 31.066 23.0441 31.7483 24.9414C32.4307 26.8386 34.5609 27.8095 36.5065 27.1098Z" fill="#F5F5F5"/>
<path d="M36.5027 27.09C35.5869 27.4198 34.5785 27.3798 33.6917 26.9784C32.8049 26.577 32.1094 25.8458 31.7529 24.94C31.7641 24.9735 31.7744 25.0071 31.7864 25.0415C31.9478 25.5105 32.2007 25.9427 32.5305 26.3131C32.8604 26.6834 33.2605 26.9846 33.7077 27.1989C34.155 27.4133 34.6403 27.5367 35.1356 27.5619C35.6309 27.587 36.1263 27.5135 36.593 27.3456C37.0596 27.1777 37.4882 26.9186 37.8539 26.5836C38.2196 26.2486 38.515 25.8443 38.7231 25.3941C38.9311 24.9439 39.0476 24.4568 39.0658 23.9612C39.084 23.4656 39.0035 22.9713 38.829 22.5071C38.817 22.4735 38.8041 22.4409 38.7912 22.4082C39.0929 23.3329 39.0228 24.3389 38.5956 25.2128C38.1684 26.0867 37.4178 26.76 36.5027 27.09V27.09Z" fill="#FFE571"/>
<path d="M34.0414 20.2504C34.9579 19.9209 35.9667 19.9616 36.8536 20.3641C37.7405 20.7665 38.4356 21.4989 38.7911 22.4056C38.78 22.372 38.7696 22.3376 38.7567 22.3041C38.4208 21.3702 37.7276 20.608 36.8296 20.1852C35.9317 19.7624 34.9026 19.7136 33.9687 20.0496C33.0348 20.3856 32.2726 21.0788 31.8498 21.9767C31.427 22.8747 31.3782 23.9038 31.7142 24.8377C31.7263 24.8712 31.74 24.9039 31.7529 24.9374C31.4494 24.012 31.5186 23.0047 31.9459 22.1295C32.3733 21.2543 33.125 20.5802 34.0414 20.2504V20.2504Z" fill="#C47502"/>
<path d="M37.4685 24.0129C37.2905 23.5184 36.9387 23.2828 36.5448 23.2776C36.7383 23.0299 36.8028 22.6816 36.6601 22.2903C36.4881 21.8044 36.0908 21.5568 35.5361 21.6256L35.3202 21.0236L34.7664 21.2231L34.9667 21.7812L34.652 21.8947L34.4516 21.3366L33.8969 21.5361L34.0981 22.0934L33.5933 22.274L33.2416 22.4004L33.4411 22.9543L33.7928 22.8278L34.7621 25.5231L34.3733 25.6633L34.5729 26.2171L34.9616 26.0778L35.4664 25.8963L35.6995 26.5448L36.2542 26.3452L36.0211 25.6968L36.335 25.5833L36.5689 26.2326L37.1228 26.0331L36.882 25.3631C37.4754 25.0535 37.668 24.5762 37.4685 24.0129ZM34.4955 22.5784L35.2454 22.3084C35.6616 22.1588 35.9609 22.2482 36.0873 22.6008C36.2137 22.9534 36.0392 23.208 35.6229 23.3576L34.7715 23.6638L34.394 22.618L34.4955 22.5784ZM36.335 24.9606L35.432 25.284L35.3684 25.3072L34.9728 24.209L35.9446 23.8598C36.3986 23.6964 36.7039 23.7738 36.8407 24.1574C36.9774 24.541 36.7891 24.7981 36.335 24.9606Z" fill="#C47502"/>
<path d="M37.1993 24.1101C37.0213 23.6156 36.6695 23.38 36.2756 23.3739C36.4691 23.1271 36.5336 22.7788 36.3909 22.3875C36.2189 21.9008 35.8216 21.6539 35.2669 21.7227L35.051 21.1207L34.4972 21.3203L34.6975 21.8784L34.3828 21.9911L34.1824 21.4338L33.626 21.6342L33.8272 22.1923L33.3224 22.3738L32.9707 22.5002L33.1693 23.0549L33.5211 22.9285L34.4929 25.628L34.1041 25.7682L34.3037 26.322L34.6924 26.1827L35.1972 26.0004L35.4303 26.6497L35.985 26.4502L35.751 25.8L36.0658 25.6873L36.2997 26.3358L36.8536 26.1371L36.6128 25.4663C37.2062 25.1507 37.4014 24.6734 37.1993 24.1101ZM34.228 22.6756L34.9788 22.4056C35.395 22.2559 35.6934 22.3445 35.8207 22.698C35.948 23.0514 35.7725 23.3043 35.3563 23.4548L34.5049 23.7609L34.1274 22.7117L34.228 22.6756ZM36.0684 25.0578L35.1611 25.3846L35.0966 25.407L34.7018 24.3096L35.6736 23.9596C36.1277 23.7971 36.433 23.8736 36.5698 24.2572C36.7065 24.6407 36.5199 24.8944 36.0658 25.0578H36.0684Z" fill="#FAA61A"/>
<path d="M34.1824 21.4355C34.1902 21.457 33.9786 21.5542 33.6466 21.6866L33.6802 21.6161C33.7438 21.7744 33.8161 21.9601 33.8917 22.17L33.9141 22.2319L33.8513 22.2551L33.7025 22.3093C33.4402 22.4039 33.1951 22.4873 32.9913 22.5526L33.0249 22.4821C33.1332 22.8201 33.1969 23.0471 33.1711 23.0549C33.1453 23.0626 33.0515 22.8502 32.9199 22.5191L32.9002 22.4692L32.9535 22.4486C33.1521 22.3686 33.3947 22.2766 33.657 22.1829L33.8057 22.1295L33.7662 22.2155C33.6931 22.0091 33.6277 21.8165 33.5761 21.6539L33.5581 21.5998L33.6088 21.5834C33.9494 21.4725 34.1747 21.414 34.1824 21.4355Z" fill="#FFE571"/>
<path d="M35.174 21.0907C35.186 21.1251 35.0467 21.2076 34.8618 21.2738C34.6769 21.3401 34.5178 21.3667 34.5032 21.3315C34.4886 21.2962 34.6305 21.2145 34.8162 21.1474C35.002 21.0803 35.1585 21.0554 35.174 21.0907Z" fill="#FFE571"/>
<path d="M34.4499 25.5953C34.4146 25.6074 34.1738 25.026 33.9115 24.2967C33.6492 23.5674 33.4643 22.9654 33.4996 22.9525C33.5348 22.9396 33.7756 23.521 34.0379 24.2511C34.3002 24.9813 34.486 25.5824 34.4499 25.5953Z" fill="#FFE571"/>
<path d="M35.6358 23.3585C35.6487 23.3929 35.4191 23.5081 35.1241 23.6165C34.8291 23.7248 34.5789 23.7807 34.5668 23.7455C34.5548 23.7102 34.7827 23.5967 35.0785 23.4875C35.3744 23.3782 35.6229 23.3232 35.6358 23.3585Z" fill="#FFE571"/>
<path d="M36.249 24.9968C36.261 25.032 36.0323 25.1464 35.733 25.2548C35.4337 25.3631 35.1886 25.4191 35.1757 25.3838C35.1628 25.3485 35.3924 25.235 35.6874 25.1258C35.9824 25.0166 36.2361 24.9615 36.249 24.9968Z" fill="#FFE571"/>
<path d="M9.72058 34.6675C11.6342 34.6675 13.1855 33.1162 13.1855 31.2025C13.1855 29.2889 11.6342 27.7376 9.72058 27.7376C7.80694 27.7376 6.25564 29.2889 6.25564 31.2025C6.25564 33.1162 7.80694 34.6675 9.72058 34.6675Z" fill="#C47502"/>
<path d="M10.4496 34.1904C12.3282 33.8259 13.5556 32.0075 13.1911 30.1289C12.8266 28.2503 11.0083 27.0229 9.12965 27.3873C7.25105 27.7518 6.02361 29.5702 6.38809 31.4488C6.75258 33.3274 8.57096 34.5549 10.4496 34.1904Z" fill="#FAA61A"/>
<path d="M11.9825 32.2331C12.783 31.0583 12.4551 29.4404 11.2501 28.6193C10.0451 27.7983 8.41931 28.085 7.61884 29.2598C6.81836 30.4345 7.14629 32.0525 8.35129 32.8735C9.55629 33.6946 11.182 33.4079 11.9825 32.2331Z" fill="#F5F5F5"/>
<path d="M8.35576 32.8675C7.78838 32.4806 7.39416 31.8878 7.25686 31.215C7.11956 30.5421 7.25 29.8423 7.62046 29.2641L7.5766 29.3251C7.38144 29.6115 7.2446 29.9335 7.17388 30.2727C7.10317 30.6119 7.09996 30.9618 7.16445 31.3023C7.22893 31.6427 7.35985 31.9672 7.54972 32.2571C7.73959 32.5469 7.9847 32.7966 8.27105 32.9917C8.5574 33.1869 8.87939 33.3237 9.21862 33.3944C9.55786 33.4652 9.9077 33.4684 10.2482 33.4039C10.5887 33.3394 10.9131 33.2085 11.203 33.0186C11.4929 32.8287 11.7425 32.5836 11.9377 32.2973C11.9523 32.2766 11.9652 32.2551 11.9789 32.2336C11.5763 32.7901 10.9726 33.1676 10.296 33.286C9.61943 33.4043 8.92338 33.2542 8.35576 32.8675V32.8675Z" fill="#FFE571"/>
<path d="M11.2436 28.6303C11.811 29.0171 12.2052 29.6099 12.3425 30.2828C12.4798 30.9556 12.3494 31.6555 11.9789 32.2337C11.9936 32.2139 12.0082 32.1941 12.0228 32.1726C12.4169 31.5943 12.5652 30.8831 12.435 30.1955C12.3047 29.5079 11.9067 28.9001 11.3284 28.506C11.042 28.3108 10.72 28.174 10.3808 28.1033C10.0415 28.0326 9.6917 28.0294 9.35122 28.0938C8.6636 28.2241 8.05587 28.6221 7.66174 29.2004C7.64712 29.2219 7.63422 29.2426 7.62046 29.2641C8.02309 28.7076 8.62684 28.3301 9.3034 28.2118C9.97997 28.0934 10.676 28.2435 11.2436 28.6303V28.6303Z" fill="#C47502"/>
<path d="M10.5135 32.1442C10.7225 31.8381 10.7113 31.5422 10.5513 31.3126C10.6744 31.3134 10.7955 31.282 10.9027 31.2217C11.0099 31.1614 11.0996 31.0741 11.1628 30.9686C11.3683 30.6676 11.346 30.3391 11.0768 30.0518L11.3305 29.6803L10.9865 29.4464L10.7509 29.7904L10.5556 29.658L10.7913 29.314L10.4473 29.08L10.2116 29.424L9.89946 29.2108L9.68274 29.068L9.44882 29.412L9.66726 29.5599L8.52948 31.2257L8.28868 31.0615L8.05476 31.4055L8.29556 31.5689L8.60774 31.7822L8.33426 32.1838L8.67826 32.4177L8.9526 32.0161L9.14696 32.1485L8.87348 32.551L9.21748 32.7849L9.50042 32.3695C9.92268 32.5794 10.2761 32.4934 10.5135 32.1442ZM10.1024 29.8532L10.5668 30.1697C10.8248 30.346 10.8971 30.5532 10.7483 30.7717C10.5995 30.9901 10.3819 30.9953 10.1239 30.8198L9.59674 30.4603L10.0396 29.8102L10.1024 29.8532ZM9.50042 31.8897L8.944 31.507L8.90444 31.4794L9.36798 30.8L9.96998 31.2103C10.2512 31.4012 10.332 31.6093 10.1712 31.8449C10.0104 32.0806 9.78422 32.078 9.50386 31.8897H9.50042Z" fill="#C47502"/>
<path d="M10.3467 32.0307C10.5556 31.7245 10.5445 31.4287 10.3845 31.1991C10.5075 31.1998 10.6286 31.1685 10.7359 31.1082C10.8431 31.0479 10.9327 30.9606 10.996 30.8551C11.2015 30.5541 11.1791 30.2256 10.91 29.9383L11.168 29.5659L10.824 29.332L10.5883 29.676L10.3931 29.5436L10.6287 29.1996L10.2847 28.9657L10.0491 29.3097L9.73692 29.0964L9.51848 28.9476L9.28456 29.2916L9.503 29.4395L8.36264 31.1122L8.12184 30.948L7.88792 31.292L8.12872 31.4562L8.44176 31.6695L8.17 32.0703L8.514 32.3042L8.78834 31.9026L8.9827 32.035L8.70922 32.4375L9.05322 32.6714L9.33616 32.256C9.75584 32.4659 10.1093 32.3799 10.3467 32.0307ZM9.93558 29.7397L10.4 30.0561C10.658 30.2324 10.7302 30.4397 10.5814 30.6581C10.4327 30.8766 10.2151 30.8817 9.95708 30.7054L9.4299 30.3468L9.8728 29.6967L9.93558 29.7397ZM9.33358 31.7761L8.772 31.39L8.73244 31.3625L9.19598 30.6831L9.79798 31.0933C10.0783 31.2842 10.1592 31.4923 9.99836 31.728C9.83754 31.9636 9.61738 31.9679 9.33702 31.7761H9.33358Z" fill="#FAA61A"/>
<path d="M10.6253 29.2013C10.6124 29.2202 10.4653 29.1454 10.2512 29.013L10.3277 28.9983C10.265 29.1015 10.1876 29.2219 10.1016 29.3501L10.0646 29.406L10.0095 29.3681L9.91666 29.3054C9.75412 29.1944 9.60534 29.0886 9.48666 28.9975L9.56406 28.9829C9.4127 29.1832 9.30606 29.3079 9.2837 29.295C9.26134 29.2821 9.34046 29.1342 9.47204 28.9201L9.49956 28.8754L9.54944 28.9055C9.67844 28.9846 9.83152 29.0835 9.99406 29.1944L10.0861 29.2581L9.9932 29.2753C10.0792 29.148 10.1652 29.0319 10.2383 28.9364L10.2727 28.89L10.3148 28.9218C10.5144 29.0732 10.6382 29.1824 10.6253 29.2013Z" fill="#FFE571"/>
<path d="M11.2316 29.6236C11.211 29.6537 11.1009 29.6158 10.9865 29.5376C10.8721 29.4593 10.7956 29.3707 10.8145 29.3406C10.8334 29.3105 10.9452 29.3484 11.0605 29.4266C11.1757 29.5049 11.2522 29.5926 11.2316 29.6236Z" fill="#FFE571"/>
<path d="M8.36092 31.0761C8.33082 31.0546 8.55528 30.6719 8.86316 30.2161C9.17104 29.7603 9.44538 29.4155 9.47634 29.4361C9.5073 29.4567 9.28198 29.8403 8.9741 30.2918C8.66622 30.7433 8.39188 31.0967 8.36092 31.0761Z" fill="#FFE571"/>
<path d="M10.1291 30.8276C10.1084 30.8577 9.94331 30.782 9.76013 30.6556C9.57695 30.5291 9.44623 30.4044 9.46687 30.3743C9.48751 30.3442 9.65263 30.4199 9.83581 30.5463C10.019 30.6728 10.148 30.7966 10.1291 30.8276Z" fill="#FFE571"/>
<path d="M9.4471 31.8552C9.42646 31.8862 9.26134 31.8097 9.07816 31.6833C8.89498 31.5568 8.76426 31.433 8.7849 31.402C8.80554 31.3711 8.97152 31.4476 9.15384 31.574C9.33616 31.7005 9.4686 31.8243 9.4471 31.8552Z" fill="#FFE571"/>
<path d="M26.7367 6.07603C27.3483 4.72154 26.7461 3.12772 25.3916 2.51614C24.0371 1.90456 22.4432 2.50681 21.8317 3.86131C21.2201 5.21581 21.8223 6.80962 23.1768 7.4212C24.5313 8.03278 26.1251 7.43053 26.7367 6.07603Z" fill="#C47502"/>
<path d="M26.3447 6.35843C27.292 5.21332 27.1316 3.51707 25.9865 2.56976C24.8414 1.62244 23.1452 1.78278 22.1978 2.92789C21.2505 4.073 21.4109 5.76925 22.556 6.71657C23.7011 7.66388 25.3973 7.50354 26.3447 6.35843Z" fill="#FAA61A"/>
<path d="M26.1706 5.3814C26.585 4.35781 26.0701 3.18356 25.0205 2.75866C23.9709 2.33375 22.7841 2.81908 22.3697 3.84268C21.9554 4.86627 22.4703 6.04051 23.5198 6.46542C24.5694 6.89033 25.7562 6.40499 26.1706 5.3814Z" fill="#F5F5F5"/>
<path d="M23.5227 6.45774C23.0283 6.25755 22.6314 5.8724 22.4165 5.38417C22.2017 4.89595 22.1857 4.34316 22.372 3.84334C22.3634 3.8614 22.3557 3.87946 22.3479 3.89752C22.1568 4.39889 22.1698 4.95521 22.3842 5.44708C22.5986 5.93896 22.9973 6.32719 23.4947 6.52844C23.9921 6.7297 24.5486 6.72794 25.0447 6.52355C25.5408 6.31916 25.937 5.92842 26.1483 5.4352C26.1552 5.41714 26.1621 5.39908 26.1681 5.38016C25.9542 5.86884 25.5582 6.25483 25.0642 6.45606C24.5702 6.6573 24.0172 6.6579 23.5227 6.45774V6.45774Z" fill="#FFE571"/>
<path d="M25.0174 2.76663C25.5118 2.96664 25.9086 3.35163 26.1235 3.83972C26.3384 4.32781 26.3544 4.88047 26.1681 5.38017C26.1767 5.36297 26.1844 5.34491 26.1922 5.32685C26.3833 4.82548 26.3703 4.26916 26.1559 3.77729C25.9415 3.28541 25.5428 2.89718 25.0454 2.69593C24.548 2.49468 23.9915 2.49643 23.4954 2.70082C22.9993 2.90522 22.6031 3.29595 22.3918 3.78917C22.3849 3.80723 22.3781 3.82529 22.372 3.84335C22.586 3.35483 22.9821 2.96903 23.4761 2.76796C23.9701 2.5669 24.5231 2.56642 25.0174 2.76663V2.76663Z" fill="#C47502"/>
<path d="M25.0415 5.55388C25.1498 5.28728 25.0922 5.06282 24.9331 4.91662C25.0266 4.89695 25.1133 4.85331 25.1848 4.78998C25.2562 4.72665 25.31 4.64582 25.3408 4.55542C25.4474 4.29742 25.376 4.04802 25.1249 3.87344L25.2565 3.55008L24.9572 3.42882L24.8351 3.72982L24.6631 3.66102L24.7843 3.36002L24.4859 3.23962L24.3638 3.54062L24.0912 3.42968L23.908 3.354L23.7867 3.65328L23.9768 3.72982L23.3877 5.18408L23.1779 5.09808L23.0566 5.39736L23.2664 5.48336L23.5356 5.59L23.392 5.9426L23.6913 6.06386L23.8332 5.71384L24.0052 5.78264L23.8633 6.13266L24.1626 6.25306L24.3088 5.89186C24.6648 5.9813 24.9185 5.85746 25.0415 5.55388ZM24.3535 3.88204L24.7585 4.0463C24.983 4.13746 25.0724 4.2828 24.995 4.4763C24.9176 4.6698 24.7542 4.70678 24.5298 4.61562L24.0705 4.42986L24.2993 3.86398L24.3535 3.88204ZM24.2348 5.52636L23.7437 5.332L23.7085 5.31824L23.9484 4.7257L24.473 4.93812C24.7173 5.03702 24.8127 5.1815 24.731 5.38704C24.6493 5.59258 24.4782 5.62612 24.2331 5.52636H24.2348Z" fill="#C47502"/>
<path d="M24.8961 5.49455C25.0045 5.22795 24.9469 5.00349 24.7886 4.85729C24.8823 4.83804 24.9694 4.79468 25.0412 4.73148C25.1129 4.66828 25.167 4.58744 25.198 4.49695C25.3046 4.23895 25.2332 3.98955 24.9821 3.81497L25.112 3.49161L24.8127 3.37035L24.6906 3.67135L24.5186 3.60255L24.6398 3.30155L24.3431 3.18201L24.221 3.48301L23.9484 3.37293L23.7592 3.29639L23.6379 3.59481L23.828 3.67221L23.2389 5.12647L23.0291 5.04047L22.9087 5.33975L23.1177 5.42575L23.392 5.53325L23.2501 5.88413L23.5494 6.00453L23.6913 5.65451L23.8633 5.72331L23.7214 6.07333L24.0163 6.19201L24.1625 5.83081C24.5194 5.92197 24.7731 5.79899 24.8961 5.49455ZM24.2081 3.82357L24.6132 3.98783C24.8376 4.07813 24.9271 4.22347 24.8505 4.41783C24.774 4.61219 24.6072 4.64401 24.3827 4.55801L23.9235 4.37139L24.1522 3.80551L24.2081 3.82357ZM24.0894 5.46789L23.6001 5.27009L23.5657 5.25547L23.8048 4.66379L24.3294 4.87535C24.5736 4.97511 24.6691 5.11959 24.5874 5.32427C24.5057 5.52895 24.3328 5.56679 24.0877 5.46789H24.0894Z" fill="#FAA61A"/>
<path d="M24.6416 3.30154C24.633 3.32304 24.5083 3.2938 24.3225 3.23188L24.3948 3.20092C24.3647 3.28692 24.3268 3.39442 24.283 3.50622L24.2589 3.56814L24.1961 3.5432L24.1153 3.51138C23.9742 3.45376 23.8444 3.397 23.7377 3.34626L23.8108 3.3153C23.7248 3.4916 23.6595 3.60168 23.6388 3.59308C23.6182 3.58448 23.6466 3.45892 23.7085 3.27316L23.7248 3.22414L23.7807 3.24306C23.8925 3.28004 24.025 3.32906 24.1669 3.38668L24.2468 3.41936L24.1608 3.45634C24.2073 3.3454 24.2529 3.24392 24.2933 3.15964L24.3191 3.10632L24.3655 3.12868C24.5401 3.21382 24.651 3.28004 24.6416 3.30154Z" fill="#FFE571"/>
<path d="M25.1713 3.52601C25.1576 3.56041 25.0656 3.55611 24.9658 3.51569C24.866 3.47527 24.7938 3.41421 24.8101 3.37981C24.8265 3.34541 24.9159 3.35057 25.0157 3.39099C25.1154 3.43141 25.1851 3.48731 25.1713 3.52601Z" fill="#FFE571"/>
<path d="M23.232 5.09722C23.1976 5.08346 23.2991 4.75322 23.4582 4.35934C23.6173 3.96546 23.7747 3.65758 23.8091 3.67134C23.8435 3.6851 23.742 4.01534 23.5829 4.40922C23.4238 4.8031 23.2664 5.11098 23.232 5.09722Z" fill="#FFE571"/>
<path d="M24.5332 4.61734C24.5186 4.65174 24.3784 4.6268 24.2193 4.56317C24.0602 4.49953 23.9424 4.41783 23.9562 4.38343C23.9699 4.34903 24.1101 4.37397 24.2692 4.43847C24.4283 4.50297 24.547 4.58294 24.5332 4.61734Z" fill="#FFE571"/>
<path d="M24.1849 5.51003C24.1703 5.54443 24.0301 5.51949 23.871 5.45499C23.7119 5.39049 23.5941 5.31051 23.6079 5.27611C23.6216 5.24171 23.7618 5.26579 23.9217 5.33029C24.0817 5.39479 24.1986 5.47563 24.1849 5.51003Z" fill="#FFE571"/>
<path d="M38.3637 40.0236C38.3637 40.0364 30.9677 40.0468 21.8466 40.0468C12.7254 40.0468 5.332 40.0364 5.332 40.0236C5.332 40.0107 12.728 40.0012 21.8509 40.0012C30.9738 40.0012 38.3637 40.0115 38.3637 40.0236Z" fill="#263238"/>
<path d="M38.2115 3.57159C38.2115 3.57159 35.8534 2.63333 30.616 7.87245C30.616 7.87245 25.1636 12.5603 28.0782 14.5297C30.5584 16.2058 33.8315 13.8056 35.5601 12.2344C36.5482 11.3094 37.4248 10.2721 38.172 9.14353C39.3656 7.29797 40.076 4.85987 38.2115 3.57159Z" fill="#202020"/>
<path opacity="0.4" d="M38.2115 3.57159C38.2115 3.57159 35.8534 2.63333 30.616 7.87245C30.616 7.87245 25.1636 12.5603 28.0782 14.5297C30.5584 16.2058 33.8315 13.8056 35.5601 12.2344C36.5482 11.3094 37.4248 10.2721 38.172 9.14353C39.3656 7.29797 40.076 4.85987 38.2115 3.57159Z" fill="black"/>
<path d="M38.0326 3.5045C38.0326 3.5045 35.1086 1.88598 29.8626 7.1251C29.8626 7.1251 24.7973 12.525 27.8846 14.2167C29.9994 15.3759 33.0808 13.0582 34.8094 11.487C35.7175 10.664 36.9387 9.374 37.6061 8.342C38.8023 6.49558 39.4628 4.41524 38.0326 3.5045Z" fill="#202020"/>
<path opacity="0.2" d="M34.4983 10.4828C36.7871 8.19393 37.9186 5.61453 37.0256 4.72151C36.1326 3.82848 33.5532 4.96 31.2644 7.24882C28.9755 9.53764 27.844 12.117 28.737 13.0101C29.6301 13.9031 32.2095 12.7716 34.4983 10.4828Z" fill="white"/>
<path d="M35.899 6.28403L35.1628 7.02105L34.9727 6.83099L35.69 6.11633L35.3176 5.74481L34.5522 6.51021L34.2598 6.21867L30.3726 10.1059L30.5695 10.3028L29.7792 11.0433L30.2092 11.4733L30.9832 10.6993L31.1036 10.8197L30.352 11.5713L30.7639 11.9833L31.648 11.1052C31.648 11.1052 31.9696 11.4406 33.0782 10.492C33.9227 9.76961 33.749 9.07043 33.749 9.07043C33.749 9.07043 34.1721 9.12117 34.799 8.62495C35.1832 8.3062 35.4478 7.86659 35.5498 7.37795L36.2722 6.65641L35.899 6.28403ZM32.6937 10.001C32.0677 10.5367 31.5456 9.82895 31.5456 9.82895L32.508 8.86575C32.508 8.86575 33.3207 9.46603 32.6937 10.001V10.001ZM34.222 8.36695C33.62 8.86317 33.276 8.15797 33.276 8.15797L34.1059 7.32721C34.1059 7.32721 34.916 7.79849 34.222 8.36953V8.36695Z" fill="#202020"/>
<path opacity="0.4" d="M35.899 6.28403L35.1628 7.02105L34.9727 6.83099L35.69 6.11633L35.3176 5.74481L34.5522 6.51021L34.2598 6.21867L30.3726 10.1059L30.5695 10.3028L29.7792 11.0433L30.2092 11.4733L30.9832 10.6993L31.1036 10.8197L30.352 11.5713L30.7639 11.9833L31.648 11.1052C31.648 11.1052 31.9696 11.4406 33.0782 10.492C33.9227 9.76961 33.749 9.07043 33.749 9.07043C33.749 9.07043 34.1721 9.12117 34.799 8.62495C35.1832 8.3062 35.4478 7.86659 35.5498 7.37795L36.2722 6.65641L35.899 6.28403ZM32.6937 10.001C32.0677 10.5367 31.5456 9.82895 31.5456 9.82895L32.508 8.86575C32.508 8.86575 33.3207 9.46603 32.6937 10.001V10.001ZM34.222 8.36695C33.62 8.86317 33.276 8.15797 33.276 8.15797L34.1059 7.32721C34.1059 7.32721 34.916 7.79849 34.222 8.36953V8.36695Z" fill="black"/>
<path d="M35.5016 6.07934L34.7646 6.8155L34.5754 6.6263L35.2901 5.91164L34.916 5.53926L34.1506 6.30552L33.859 6.01398L29.9718 9.90032L30.1688 10.0973L29.3776 10.8386L29.8076 11.2686L30.5816 10.4946L30.702 10.615L29.9503 11.3658L30.3631 11.7777L31.2455 10.8953C31.2455 10.8953 31.5663 11.2307 32.6748 10.283C33.5193 9.56062 33.3456 8.86144 33.3456 8.86144C33.3456 8.86144 33.7687 8.91218 34.3957 8.41596C34.7797 8.09699 35.0446 7.65752 35.1473 7.16896L35.8689 6.44656L35.5016 6.07934ZM32.2964 9.79626C31.6695 10.3312 31.1475 9.62426 31.1475 9.62426L32.1132 8.65848C32.1132 8.65848 32.9225 9.26134 32.2964 9.79626ZM33.8238 8.16226C33.2218 8.65848 32.8778 7.95328 32.8778 7.95328L33.712 7.1251C33.712 7.1251 34.5144 7.5938 33.8238 8.16484V8.16226Z" fill="#202020"/>
<path d="M37.6955 3.38324C37.6955 3.397 37.4676 3.35056 37.0557 3.33164C36.4743 3.30944 35.8928 3.3726 35.3297 3.51912C34.9411 3.61887 34.5612 3.74972 34.1936 3.91042C33.7722 4.09635 33.3657 4.31428 32.9776 4.5623C32.1528 5.0783 31.329 5.7749 30.5025 6.5403C28.8384 8.05907 27.6998 9.81433 27.2044 11.1981C26.9602 11.8912 26.9103 12.4984 26.9782 12.9026L26.9997 13.0453L27.0307 13.1692C27.0401 13.2079 27.0496 13.2431 27.0573 13.2758C27.0651 13.3085 27.0788 13.3352 27.0874 13.3618C27.1098 13.4129 27.1265 13.4662 27.1373 13.5209C27.1072 13.4738 27.0821 13.4236 27.0625 13.3713C27.0513 13.3463 27.0376 13.3188 27.0255 13.2853C27.0135 13.2517 27.0049 13.2173 26.9928 13.1795C26.9808 13.1417 26.967 13.0995 26.955 13.0548C26.943 13.0101 26.9361 12.9611 26.9266 12.9095C26.8406 12.4992 26.8776 11.8775 27.115 11.1662C27.594 9.75412 28.7326 7.97392 30.4113 6.44054C31.2404 5.6717 32.0737 4.97854 32.9122 4.45566C33.3069 4.20653 33.7207 3.98913 34.1497 3.8055C34.5243 3.6464 34.9115 3.51896 35.3073 3.42452C35.8799 3.28395 36.471 3.23404 37.0591 3.2766C37.1632 3.28262 37.2543 3.29552 37.3343 3.3067C37.4014 3.31448 37.468 3.32568 37.5338 3.34024C37.5891 3.34907 37.6432 3.36348 37.6955 3.38324V3.38324Z" fill="#FAFAFA"/>
<path opacity="0.4" d="M28.6191 12.8647C28.6191 12.8647 27.0633 10.9727 30.9694 6.96944C34.8756 2.96614 37.0256 4.7214 37.0256 4.7214C37.0256 4.7214 35.2437 3.27574 31.1475 7.35042C27.581 10.8988 28.6191 12.8647 28.6191 12.8647Z" fill="black"/>
<path d="M35.002 5.53926C34.9413 5.62327 34.8705 5.69952 34.7913 5.7663C34.6494 5.90476 34.4413 6.1017 34.1833 6.3425L34.1463 6.3769L34.1119 6.33648L33.884 6.0587H33.97C33.5744 6.46118 33.0893 6.94966 32.5622 7.47254C31.8742 8.15366 31.2481 8.76254 30.7897 9.20286C30.5601 9.42216 30.3726 9.5976 30.2419 9.71886C30.1783 9.78528 30.1063 9.8431 30.0277 9.89086C30.0776 9.8129 30.1372 9.74153 30.2049 9.67844C30.3253 9.54772 30.5016 9.36196 30.7209 9.13492C31.1621 8.67998 31.7787 8.05734 32.4658 7.37622C32.993 6.85334 33.4841 6.37174 33.89 5.97958L33.9347 5.93658L33.9717 5.98388L34.1901 6.278L34.1188 6.27284C34.3854 6.0415 34.6029 5.85574 34.756 5.72932C34.8304 5.65666 34.9129 5.59288 35.002 5.53926V5.53926Z" fill="#FAFAFA"/>
<path d="M33.927 8.12269C33.9399 8.13473 33.927 8.17773 33.8754 8.22847C33.8096 8.29336 33.7286 8.34068 33.6398 8.36607C33.5513 8.39265 33.4576 8.39679 33.3672 8.37811C33.2984 8.36177 33.2622 8.33425 33.2657 8.31705C33.2751 8.28007 33.4291 8.29039 33.6019 8.23707C33.7748 8.18375 33.8995 8.09604 33.927 8.12269Z" fill="#FAFAFA"/>
<path d="M32.1046 9.93559C32.115 9.95021 32.0995 9.98289 32.0573 10.0216C32.0005 10.0643 31.9338 10.0918 31.8633 10.1016C31.7929 10.1114 31.7212 10.1031 31.6549 10.0775C31.605 10.056 31.5809 10.0285 31.5869 10.0113C31.6007 9.97601 31.7142 9.98805 31.8449 9.96827C31.9756 9.94849 32.078 9.90549 32.1046 9.93559Z" fill="#FAFAFA"/>
<path d="M35.4578 9.59072C35.4853 9.61308 35.1903 10.0078 34.7388 10.4112C34.2873 10.8145 33.8642 11.0656 33.8444 11.0364C33.8246 11.0071 34.2065 10.7087 34.6494 10.3114C35.0923 9.91409 35.432 9.56578 35.4578 9.59072Z" fill="#FAFAFA"/>
<path d="M30.6065 15.05C30.5984 15.0435 30.5912 15.036 30.585 15.0277L30.53 14.964C30.4844 14.9073 30.4216 14.8281 30.358 14.7396C30.2705 14.6363 30.1941 14.5242 30.1301 14.405C30.2295 14.4967 30.3178 14.5998 30.3932 14.712C30.5231 14.8866 30.6246 15.0406 30.6065 15.05Z" fill="#263238"/>
<path d="M29.3389 15.05C29.3321 15.0449 29.326 15.0388 29.3208 15.032L29.2752 14.9795C29.2383 14.9348 29.1892 14.8711 29.1333 14.8006C29.0618 14.7184 29.0011 14.6273 28.9527 14.5297C29.0362 14.5999 29.1089 14.6819 29.1686 14.7731C29.277 14.915 29.3578 15.0406 29.3389 15.05Z" fill="#263238"/>
<path d="M31.648 14.78C31.5423 14.6751 31.4476 14.5598 31.365 14.436C31.2708 14.3213 31.1884 14.1974 31.1191 14.0662C31.224 14.1714 31.3185 14.2866 31.4012 14.4102C31.4955 14.525 31.5781 14.6488 31.648 14.78V14.78Z" fill="#263238"/>
<path d="M32.6086 14.356C32.4965 14.2434 32.3957 14.1201 32.3076 13.9879C32.2069 13.8649 32.118 13.7327 32.0419 13.5932C32.1537 13.706 32.2545 13.8293 32.3429 13.9613C32.4432 14.0845 32.5321 14.2167 32.6086 14.356V14.356Z" fill="#263238"/>
<path d="M33.6019 13.7273C33.4899 13.6144 33.3889 13.4912 33.3001 13.3593C33.1994 13.2361 33.1107 13.1037 33.0352 12.9637C33.1466 13.0772 33.2473 13.2007 33.3362 13.3326C33.4367 13.4557 33.5257 13.5878 33.6019 13.7273V13.7273Z" fill="#263238"/>
<path d="M34.4938 13.0608C34.3815 12.9481 34.2804 12.8249 34.1919 12.6927C34.0913 12.5699 34.0026 12.4377 33.927 12.298C34.0385 12.4111 34.1393 12.5343 34.228 12.6661C34.3286 12.7892 34.4175 12.9213 34.4938 13.0608V13.0608Z" fill="#263238"/>
<path d="M35.3856 12.3943C35.2733 12.2816 35.1722 12.1584 35.0837 12.0262C34.9831 11.9033 34.8944 11.7712 34.8188 11.6315C34.9304 11.7446 35.0311 11.8678 35.1198 11.9996C35.2202 12.1229 35.3091 12.255 35.3856 12.3943V12.3943Z" fill="#263238"/>
<path d="M36.163 11.5739C36.051 11.4612 35.9502 11.3379 35.862 11.2058C35.7612 11.0831 35.6725 10.9509 35.5971 10.8111C35.7086 10.9242 35.8094 11.0474 35.8981 11.1791C35.9981 11.3025 36.0868 11.4346 36.163 11.5739V11.5739Z" fill="#263238"/>
<path d="M36.9241 10.7328C36.8128 10.6195 36.7121 10.4963 36.6231 10.3647C36.5221 10.2418 36.4334 10.1093 36.3582 9.96913C36.4696 10.0827 36.5704 10.2062 36.6592 10.3381C36.76 10.4608 36.8487 10.593 36.9241 10.7328Z" fill="#263238"/>
<path d="M37.668 9.8685C37.5565 9.7554 37.4557 9.63218 37.367 9.50042C37.2664 9.37753 37.1777 9.24536 37.1021 9.10568C37.2136 9.21878 37.3144 9.34201 37.4031 9.47376C37.5037 9.59666 37.5924 9.72883 37.668 9.8685V9.8685Z" fill="#263238"/>
<path d="M38.3165 8.95003C38.2033 8.83747 38.1014 8.7142 38.012 8.58195C37.9138 8.45877 37.8274 8.3266 37.754 8.18721C37.8655 8.30031 37.9663 8.42353 38.055 8.55529C38.1538 8.67875 38.2413 8.81086 38.3165 8.95003V8.95003Z" fill="#263238"/>
<path d="M38.8832 7.88879C38.771 7.77568 38.67 7.65214 38.5813 7.51985C38.4805 7.39712 38.3918 7.26492 38.3164 7.12511C38.4277 7.23844 38.5284 7.36164 38.6174 7.49319C38.7181 7.61652 38.8071 7.74896 38.8832 7.88879V7.88879Z" fill="#263238"/>
<path d="M39.2066 6.74412C39.1053 6.64471 39.0146 6.53521 38.9357 6.41732C38.8446 6.30806 38.7656 6.18926 38.7 6.063C38.8009 6.16277 38.8914 6.27256 38.9701 6.39066C39.0613 6.49968 39.1406 6.61818 39.2066 6.74412V6.74412Z" fill="#263238"/>
<path d="M39.351 5.60978C39.2495 5.51062 39.1588 5.40109 39.0801 5.28298C38.9903 5.1733 38.9116 5.05489 38.8454 4.92952C38.9473 5.0282 39.0382 5.13779 39.1163 5.25632C39.2066 5.36568 39.2852 5.48414 39.351 5.60978V5.60978Z" fill="#263238"/>
<path d="M15.3718 9.79073C17.1377 8.02483 17.1377 5.16173 15.3718 3.39582C13.6059 1.62992 10.7428 1.62992 8.97687 3.39582C7.21096 5.16173 7.21096 8.02483 8.97687 9.79073C10.7428 11.5566 13.6059 11.5566 15.3718 9.79073Z" fill="#202020"/>
<path opacity="0.2" d="M15.3718 9.79073C17.1377 8.02483 17.1377 5.16173 15.3718 3.39582C13.6059 1.62992 10.7428 1.62992 8.97687 3.39582C7.21096 5.16173 7.21096 8.02483 8.97687 9.79073C10.7428 11.5566 13.6059 11.5566 15.3718 9.79073Z" fill="white"/>
<path d="M13.1468 2.17752C13.2093 2.24571 13.2604 2.32353 13.2982 2.408C13.3492 2.48437 13.3873 2.56863 13.4108 2.6574C13.3486 2.59026 13.2975 2.51361 13.2595 2.43036C13.2081 2.35294 13.17 2.26749 13.1468 2.17752V2.17752Z" fill="#263238"/>
<path d="M13.8881 2.42349C13.9485 2.48752 13.9978 2.56103 14.0343 2.64107C14.0832 2.71413 14.1193 2.79498 14.141 2.88015C14.0807 2.81612 14.0313 2.74262 13.9948 2.66257C13.9457 2.5896 13.9097 2.50872 13.8881 2.42349V2.42349Z" fill="#263238"/>
<path d="M14.5658 2.75803C14.6268 2.82154 14.6763 2.89516 14.712 2.97561C14.7614 3.04852 14.7977 3.1294 14.8195 3.21469C14.7586 3.15117 14.7091 3.07755 14.6733 2.99711C14.6243 2.92405 14.5879 2.84321 14.5658 2.75803Z" fill="#263238"/>
<path d="M12.3616 2.0726C12.4239 2.13974 12.4749 2.21639 12.513 2.29964C12.564 2.37601 12.6021 2.46027 12.6257 2.54904C12.5634 2.4819 12.5123 2.40525 12.4743 2.322C12.4231 2.24571 12.3851 2.16142 12.3616 2.0726V2.0726Z" fill="#263238"/>
<path d="M11.6315 2.10443C11.6938 2.17132 11.7447 2.24803 11.782 2.33147C11.8326 2.40806 11.8707 2.49226 11.8947 2.58087C11.8317 2.51412 11.7803 2.4374 11.7424 2.35383C11.6924 2.27713 11.655 2.19294 11.6315 2.10443V2.10443Z" fill="#263238"/>
<path d="M10.9143 2.26352C10.9761 2.329 11.0272 2.40389 11.0656 2.4854C11.1161 2.55975 11.1539 2.64201 11.1774 2.72878C11.1154 2.66372 11.0643 2.58909 11.0261 2.50776C10.9756 2.43306 10.9378 2.35053 10.9143 2.26352V2.26352Z" fill="#263238"/>
<path d="M10.2546 2.4854C10.3173 2.55222 10.3684 2.62893 10.406 2.71244C10.4566 2.78903 10.4947 2.87322 10.5187 2.96184C10.4558 2.89468 10.4044 2.81769 10.3664 2.73394C10.3162 2.65756 10.2785 2.57366 10.2546 2.4854V2.4854Z" fill="#263238"/>
<path d="M9.62426 2.84575C9.68707 2.91242 9.73823 2.98917 9.77562 3.07279C9.82664 3.14915 9.86471 3.23342 9.88828 3.32219C9.82638 3.25512 9.77531 3.17881 9.73692 3.09601C9.68598 3.01928 9.64793 2.93475 9.62426 2.84575V2.84575Z" fill="#263238"/>
<path d="M9.07471 3.28865C9.13677 3.35624 9.18784 3.43314 9.22607 3.51655C9.277 3.59266 9.31506 3.67663 9.33873 3.76509C9.27652 3.69795 9.22542 3.6213 9.18738 3.53805C9.13635 3.46169 9.09828 3.37742 9.07471 3.28865V3.28865Z" fill="#263238"/>
<path d="M8.63955 3.75478C8.7016 3.82237 8.75268 3.89927 8.79091 3.98268C8.84184 4.05878 8.8799 4.14275 8.90357 4.23122C8.84136 4.16407 8.79026 4.08743 8.75221 4.00418C8.70119 3.92781 8.66312 3.84354 8.63955 3.75478V3.75478Z" fill="#263238"/>
<path d="M8.26976 4.34903C8.33427 4.41901 8.38764 4.49848 8.428 4.58467C8.48048 4.66389 8.51997 4.75099 8.54496 4.84267C8.48106 4.77258 8.42828 4.69311 8.38844 4.60703C8.33535 4.52792 8.29529 4.44082 8.26976 4.34903V4.34903Z" fill="#263238"/>
<path d="M7.95671 4.98801C8.02074 5.05769 8.07354 5.13689 8.11323 5.22279C8.16486 5.30248 8.20428 5.38944 8.23019 5.48078C8.16586 5.41135 8.11302 5.3321 8.07367 5.246C8.02103 5.16687 7.98154 5.07975 7.95671 4.98801V4.98801Z" fill="#263238"/>
<path d="M7.74601 5.67599C7.80973 5.74454 7.86542 5.82014 7.91199 5.90132C7.97253 5.97483 8.01916 6.05876 8.04959 6.14899C7.98288 6.08249 7.92507 6.00762 7.87759 5.92626C7.81688 5.85284 7.77207 5.76762 7.74601 5.67599Z" fill="#263238"/>
<path d="M7.654 6.43968C7.72399 6.52035 7.78192 6.61073 7.826 6.708C7.88339 6.79657 7.92825 6.89266 7.9593 6.99352C7.88947 6.91432 7.83153 6.82538 7.7873 6.7295C7.7297 6.63952 7.68484 6.54198 7.654 6.43968V6.43968Z" fill="#263238"/>
<path d="M7.74 7.4691C7.81419 7.554 7.87693 7.64825 7.92662 7.74946C7.98954 7.84325 8.03958 7.94507 8.0754 8.05218C8.00113 7.96717 7.93811 7.87294 7.88792 7.77182C7.82546 7.67789 7.77572 7.5761 7.74 7.4691V7.4691Z" fill="#263238"/>
<path d="M13.7074 11.4124C16.1119 10.7379 17.5144 8.24178 16.8398 5.83723C16.1653 3.43269 13.6692 2.03023 11.2647 2.70476C8.86013 3.37929 7.45768 5.87537 8.13221 8.27992C8.80674 10.6845 11.3028 12.0869 13.7074 11.4124Z" fill="#202020"/>
<path opacity="0.2" d="M12.7465 10.363C14.6423 10.2008 16.0509 8.57048 15.8927 6.72154C15.7345 4.87261 14.0695 3.50524 12.1737 3.66743C10.2779 3.82962 8.8693 5.45996 9.02749 7.30889C9.18567 9.15783 10.8507 10.5252 12.7465 10.363Z" fill="white"/>
<path d="M12.7461 10.3475C11.853 10.4252 10.9649 10.1512 10.2708 9.5839C9.5767 9.01656 9.13151 8.20068 9.03 7.31C9.03 7.34268 9.03 7.37536 9.03602 7.40804C9.11391 8.31811 9.55014 9.15995 10.2487 9.74839C10.5946 10.0398 10.9945 10.2601 11.4256 10.3969C11.8567 10.5338 12.3105 10.5843 12.7611 10.5458C13.2117 10.5072 13.6503 10.3802 14.0519 10.1722C14.4535 9.96409 14.8101 9.67896 15.1015 9.33305C15.3928 8.98714 15.6132 8.58723 15.75 8.15616C15.8868 7.72508 15.9374 7.27128 15.8988 6.82066C15.8988 6.78798 15.8919 6.7553 15.8885 6.72348C15.9397 7.61779 15.64 8.49678 15.0531 9.17355C14.4663 9.85033 13.6386 10.2715 12.7461 10.3475V10.3475Z" fill="#FAFAFA"/>
<path opacity="0.3" d="M12.1759 3.6808C13.0691 3.60361 13.9571 3.87816 14.6509 4.446C15.3446 5.01383 15.7893 5.83007 15.8902 6.7209C15.8902 6.68822 15.8902 6.65554 15.8842 6.62286C15.8063 5.7128 15.3701 4.87095 14.6715 4.28251C13.9729 3.69408 13.0692 3.40726 12.1591 3.48515C11.249 3.56304 10.4072 3.99926 9.81876 4.69785C9.23032 5.39644 8.9435 6.30018 9.02139 7.21024C9.02139 7.24292 9.02827 7.2756 9.03171 7.30742C8.97988 6.41241 9.27951 5.53252 9.86677 4.85514C10.454 4.17776 11.2826 3.7564 12.1759 3.6808V3.6808Z" fill="black"/>
<path d="M14.0464 7.60586C14.0051 7.12426 13.748 6.83186 13.3988 6.73296C13.6293 6.56096 13.7677 6.26426 13.7351 5.88328C13.6946 5.40856 13.4014 5.09552 12.8923 5.02328L12.8424 4.43848L12.3023 4.48492L12.3487 5.02844L12.0426 5.05424L11.9953 4.51072L11.4552 4.55802L11.5025 5.10154L11.0097 5.14368L10.6657 5.17292L10.7122 5.713L11.0562 5.68376L11.2815 8.3102L10.9022 8.34288L10.9487 8.88296L11.3271 8.85028L11.8198 8.80814L11.874 9.4411L12.4141 9.39466L12.3599 8.76256L12.6661 8.7359L12.7203 9.368L13.2603 9.32242L13.2044 8.66882C13.8064 8.53294 14.0928 8.15454 14.0464 7.60586ZM11.7407 5.62786L12.47 5.56422C12.8751 5.52982 13.1202 5.67946 13.1494 6.02346C13.1786 6.36746 12.9628 6.5515 12.5569 6.5859L11.7278 6.65728L11.6418 5.6356L11.7407 5.62786ZM12.814 8.1812L11.9299 8.25602L11.8671 8.26118L11.776 7.19134L12.722 7.1105C13.164 7.07266 13.4169 7.21628 13.4487 7.58694C13.4805 7.9576 13.256 8.14336 12.814 8.1812Z" fill="#202020"/>
<path opacity="0.3" d="M14.0464 7.60586C14.0051 7.12426 13.748 6.83186 13.3988 6.73296C13.6293 6.56096 13.7677 6.26426 13.7351 5.88328C13.6946 5.40856 13.4014 5.09552 12.8923 5.02328L12.8424 4.43848L12.3023 4.48492L12.3487 5.02844L12.0426 5.05424L11.9953 4.51072L11.4552 4.55802L11.5025 5.10154L11.0097 5.14368L10.6657 5.17292L10.7122 5.713L11.0562 5.68376L11.2815 8.3102L10.9022 8.34288L10.9487 8.88296L11.3271 8.85028L11.8198 8.80814L11.874 9.4411L12.4141 9.39466L12.3599 8.76256L12.6661 8.7359L12.7203 9.368L13.2603 9.32242L13.2044 8.66882C13.8064 8.53294 14.0928 8.15454 14.0464 7.60586ZM11.7407 5.62786L12.47 5.56422C12.8751 5.52982 13.1202 5.67946 13.1494 6.02346C13.1786 6.36746 12.9628 6.5515 12.5569 6.5859L11.7278 6.65728L11.6418 5.6356L11.7407 5.62786ZM12.814 8.1812L11.9299 8.25602L11.8671 8.26118L11.776 7.19134L12.722 7.1105C13.164 7.07266 13.4169 7.21628 13.4487 7.58694C13.4805 7.9576 13.256 8.14336 12.814 8.1812Z" fill="black"/>
<path d="M14.0713 7.86042C14.03 7.37796 13.7729 7.08642 13.4237 6.98752C13.6542 6.81552 13.7927 6.51882 13.76 6.13698C13.7196 5.66312 13.4263 5.35008 12.9172 5.27698L12.8673 4.69131L12.3272 4.73775L12.3737 5.28128L12.0675 5.30794L12.0211 4.76441L11.4801 4.81085L11.524 5.35782L11.0312 5.39996L10.6872 5.4292L10.7337 5.96928L11.0777 5.94004L11.303 8.56648L10.9237 8.59916L10.9702 9.13924L11.3486 9.10656L11.8405 9.06442L11.8947 9.69652L12.4347 9.65008L12.3806 9.01798L12.6867 8.99218L12.7409 9.62428L13.281 9.57784L13.2251 8.9251C13.8314 8.7875 14.1178 8.4091 14.0713 7.86042ZM11.7657 5.88242L12.4975 5.81964C12.9034 5.78438 13.1477 5.93402 13.1769 6.27888C13.2062 6.62374 12.9903 6.80692 12.5844 6.84132L11.7553 6.9127L11.6693 5.89016L11.7657 5.88242ZM12.8389 8.43576L11.954 8.51402L11.8912 8.51918L11.8001 7.4502L12.7461 7.3642C13.1881 7.32636 13.4409 7.46998 13.4728 7.8415C13.5046 8.21302 13.281 8.39706 12.8389 8.4349V8.43576Z" fill="#202020"/>
<path d="M11.2746 8.53034C11.2376 8.53034 11.1585 7.96016 11.0974 7.24894C11.0364 6.53772 11.0175 5.95894 11.0544 5.95894C11.0914 5.95894 11.1705 6.52998 11.2316 7.2412C11.2927 7.95242 11.3116 8.52776 11.2746 8.53034Z" fill="#FAFAFA"/>
<path d="M12.8587 6.82153C12.8587 6.8585 12.6308 6.90752 12.3427 6.93332C12.0546 6.95912 11.819 6.94794 11.8155 6.91096C11.8121 6.87398 12.0434 6.82497 12.3315 6.80003C12.6196 6.77509 12.8553 6.78455 12.8587 6.82153Z" fill="#FAFAFA"/>
<path d="M13.0161 8.428C13.0161 8.46498 12.7882 8.514 12.5001 8.5398C12.212 8.5656 11.9764 8.55442 11.9729 8.51744C11.9695 8.48046 12.2008 8.43144 12.4889 8.40564C12.777 8.37984 13.0127 8.38672 13.0161 8.428Z" fill="#FAFAFA"/>
<path d="M28.1393 34.1175C31.0628 31.1939 31.0628 26.4538 28.1393 23.5302C25.2157 20.6067 20.4756 20.6067 17.552 23.5302C14.6284 26.4538 14.6284 31.1939 17.552 34.1175C20.4756 37.0411 25.2157 37.0411 28.1393 34.1175Z" fill="#202020"/>
<path opacity="0.4" d="M28.1393 34.1175C31.0628 31.1939 31.0628 26.4538 28.1393 23.5302C25.2157 20.6067 20.4756 20.6067 17.552 23.5302C14.6284 26.4538 14.6284 31.1939 17.552 34.1175C20.4756 37.0411 25.2157 37.0411 28.1393 34.1175Z" fill="black"/>
<path d="M27.6836 33.3304C30.6072 30.4068 30.6072 25.6667 27.6836 22.7431C24.7601 19.8196 20.02 19.8196 17.0964 22.7431C14.1728 25.6667 14.1728 30.4068 17.0964 33.3304C20.02 36.2539 24.7601 36.2539 27.6836 33.3304Z" fill="#202020"/>
<path opacity="0.2" d="M22.8866 33.4994C26.0222 33.1948 28.3233 30.469 28.0262 27.4113C27.7291 24.3537 24.9463 22.1219 21.8106 22.4266C18.6749 22.7313 16.3738 25.4571 16.671 28.5147C16.9681 31.5724 19.7509 33.8041 22.8866 33.4994Z" fill="white"/>
<path d="M22.8855 33.4755C21.4085 33.619 19.9339 33.1808 18.7749 32.2542C17.6159 31.3276 16.864 29.9856 16.6788 28.5133C16.6788 28.5675 16.6849 28.6217 16.69 28.6758C16.8363 30.1812 17.5747 31.5668 18.7426 32.5278C19.9105 33.4888 21.4123 33.9465 22.9177 33.8002C24.4231 33.6538 25.8087 32.9155 26.7697 31.7476C27.7307 30.5797 28.1883 29.0778 28.042 27.5725C28.036 27.5183 28.0283 27.465 28.0223 27.4108C28.1239 28.8914 27.6441 30.3533 26.6849 31.4858C25.7257 32.6183 24.3627 33.3321 22.8855 33.4755V33.4755Z" fill="#FAFAFA"/>
<path opacity="0.3" d="M21.813 22.446C23.29 22.3028 24.7646 22.7409 25.9237 23.6675C27.0828 24.594 27.835 25.936 28.0205 27.4082C28.0162 27.354 28.0136 27.3007 28.0085 27.2457C27.8622 25.7403 27.1238 24.3547 25.9559 23.3937C24.788 22.4327 23.2862 21.975 21.7808 22.1214C20.2754 22.2677 18.8898 23.006 17.9288 24.1739C16.9678 25.3418 16.5102 26.8437 16.6565 28.3491C16.6625 28.4041 16.6702 28.4574 16.6771 28.5107C16.5755 27.0302 17.0551 25.5684 18.0141 24.4359C18.9732 23.3035 20.336 22.5896 21.813 22.446V22.446Z" fill="black"/>
<path d="M25.4646 29.2899C25.3872 28.4927 24.9572 28.0136 24.3767 27.8571C24.7551 27.5639 24.9787 27.0737 24.9168 26.4433C24.8411 25.6598 24.35 25.1464 23.5064 25.0406L23.4118 24.0731L22.5191 24.1591L22.6051 25.0587L22.102 25.112L22.016 24.2124L21.1225 24.2984L21.2085 25.198L20.3949 25.2771L19.8282 25.3322L19.9142 26.2257L20.4809 26.1698L20.898 30.5111L20.2711 30.5721L20.3571 31.4657L20.984 31.4046L21.7976 31.3255L21.899 32.3713L22.7926 32.2853L22.6911 31.2395L23.1976 31.1905L23.306 32.2354L24.1995 32.1494L24.0946 31.0692C25.0862 30.8293 25.5532 30.198 25.4646 29.2899ZM21.6109 26.058L22.821 25.941C23.4918 25.8757 23.8994 26.1191 23.9544 26.6884C24.0095 27.2577 23.656 27.5656 22.9852 27.6344L21.6092 27.7677L21.445 26.0778L21.6109 26.058ZM23.4367 30.266L21.9747 30.4079L21.8715 30.4182L21.6995 28.6492L23.2656 28.497C23.9966 28.4256 24.418 28.6586 24.4773 29.271C24.5367 29.8833 24.166 30.1937 23.4367 30.2651V30.266Z" fill="#202020"/>
<path opacity="0.3" d="M25.4646 29.2899C25.3872 28.4927 24.9572 28.0136 24.3767 27.8571C24.7551 27.5639 24.9787 27.0737 24.9168 26.4433C24.8411 25.6598 24.35 25.1464 23.5064 25.0406L23.4118 24.0731L22.5191 24.1591L22.6051 25.0587L22.102 25.112L22.016 24.2124L21.1225 24.2984L21.2085 25.198L20.3949 25.2771L19.8282 25.3322L19.9142 26.2257L20.4809 26.1698L20.898 30.5111L20.2711 30.5721L20.3571 31.4657L20.984 31.4046L21.7976 31.3255L21.899 32.3713L22.7926 32.2853L22.6911 31.2395L23.1976 31.1905L23.306 32.2354L24.1995 32.1494L24.0946 31.0692C25.0862 30.8293 25.5532 30.198 25.4646 29.2899ZM21.6109 26.058L22.821 25.941C23.4918 25.8757 23.8994 26.1191 23.9544 26.6884C24.0095 27.2577 23.656 27.5656 22.9852 27.6344L21.6092 27.7677L21.445 26.0778L21.6109 26.058ZM23.4367 30.266L21.9747 30.4079L21.8715 30.4182L21.6995 28.6492L23.2656 28.497C23.9966 28.4256 24.418 28.6586 24.4773 29.271C24.5367 29.8833 24.166 30.1937 23.4367 30.2651V30.266Z" fill="black"/>
<path d="M25.0312 29.332C24.9538 28.5348 24.5229 28.0558 23.9433 27.8993C24.3208 27.606 24.5453 27.1158 24.4833 26.4854C24.4068 25.702 23.9166 25.1885 23.0721 25.0828L22.9783 24.1153L22.0848 24.2013L22.1708 25.1008L21.6634 25.1498L21.5774 24.2503L20.6847 24.3363L20.7707 25.2358L19.9572 25.315L19.3904 25.37L19.4764 26.2635L20.0432 26.2085L20.468 30.5541L19.8419 30.6143L19.9279 31.5078L20.554 31.4468L21.3676 31.3676L21.4699 32.4134L22.3626 32.3274L22.2611 31.2816L22.7685 31.2326L22.87 32.2784L23.7635 32.1924L23.6577 31.1122C24.6519 30.874 25.1189 30.2402 25.0312 29.332ZM21.1775 26.1001L22.3867 25.9823C23.0575 25.917 23.4651 26.1603 23.521 26.7297C23.5769 27.299 23.2226 27.6069 22.5509 27.6757L21.1749 27.809L21.0098 26.1191L21.1775 26.1001ZM23.0024 30.3073L21.5404 30.4492L21.4372 30.4595L21.2652 28.6905L22.8321 28.5382C23.5623 28.4669 23.9845 28.6999 24.0439 29.3122C24.1032 29.9246 23.736 30.2359 23.0024 30.3073Z" fill="#202020"/>
<path d="M29.154 24.8153C29.1409 24.7998 29.1296 24.7827 29.1205 24.7646L29.0345 24.6089C28.9983 24.5392 28.9485 24.455 28.8917 24.3578C28.8349 24.2606 28.7679 24.1454 28.6836 24.0232C28.2265 23.3216 27.6553 22.7013 26.9937 22.188C26.5374 21.8354 26.0426 21.5356 25.5188 21.2945C24.9162 21.0201 24.28 20.8264 23.6268 20.7183C23.2747 20.6577 22.9185 20.6243 22.5612 20.6185C22.1876 20.6091 21.8137 20.6292 21.4432 20.6787C21.0607 20.7288 20.6826 20.8085 20.3123 20.9169C19.5482 21.1407 18.8249 21.4857 18.1701 21.9386C17.8523 22.1576 17.5524 22.4015 17.2731 22.6679C16.744 23.1724 16.292 23.7519 15.9315 24.3879C15.6051 24.9633 15.3559 25.5792 15.1902 26.2197C15.0508 26.7784 14.9749 27.3511 14.964 27.9268C14.9526 28.4029 14.9878 28.879 15.0689 29.3484C15.1296 29.7033 15.2158 30.0533 15.3269 30.3958C15.3691 30.5377 15.4129 30.6607 15.4559 30.7682C15.4989 30.8757 15.5307 30.9652 15.5617 31.0374L15.6279 31.2025C15.6369 31.221 15.6429 31.2407 15.646 31.261C15.6337 31.2448 15.6233 31.2272 15.615 31.2085L15.5368 31.0486C15.5015 30.9781 15.4602 30.8895 15.4189 30.7828C15.3777 30.6762 15.3235 30.5541 15.2779 30.4122C15.157 30.0697 15.063 29.7183 14.9967 29.3613C14.9071 28.8879 14.8647 28.4068 14.8703 27.9251C14.8823 26.6631 15.2133 25.4247 15.8326 24.3251C16.1966 23.677 16.6545 23.0864 17.1914 22.5724C17.4758 22.3012 17.7809 22.0524 18.1039 21.8285C18.7698 21.3668 19.506 21.0157 20.284 20.7888C20.6612 20.6786 21.0465 20.598 21.4364 20.548C21.8121 20.4991 22.1911 20.4798 22.5698 20.4904C22.9332 20.4977 23.2955 20.5331 23.6534 20.5961C24.8976 20.8058 26.0682 21.3278 27.0556 22.1132C27.4339 22.4117 27.7814 22.7473 28.0928 23.1151C28.3272 23.3912 28.54 23.6851 28.7292 23.994C28.8109 24.1187 28.8728 24.2365 28.9278 24.338C28.9829 24.4395 29.0276 24.5246 29.0603 24.596L29.1351 24.7585C29.154 24.7955 29.1592 24.8144 29.154 24.8153Z" fill="#FAFAFA"/>
<path d="M21.5774 24.252C21.5774 24.2752 21.2334 24.3294 20.6899 24.3948L20.7398 24.3337C20.7707 24.5917 20.8043 24.8996 20.8387 25.2315L20.8447 25.2978L20.7785 25.3046L20.5377 25.3287C20.1154 25.37 19.7224 25.4035 19.3964 25.4276L19.4472 25.3674C19.4876 25.9075 19.5014 26.2635 19.4781 26.2661C19.4549 26.2687 19.4007 25.9161 19.3362 25.3777L19.3294 25.3236L19.3861 25.3175C19.7103 25.278 20.1025 25.2358 20.5248 25.1946L20.7656 25.1722L20.7054 25.2444C20.6744 24.9125 20.6486 24.6037 20.6288 24.3449V24.2881L20.6821 24.2838C21.2214 24.2425 21.5757 24.2288 21.5774 24.252Z" fill="#FAFAFA"/>
<path d="M23.1675 24.1127C23.1675 24.1497 22.9319 24.203 22.6335 24.2322C22.3351 24.2615 22.0908 24.2546 22.0874 24.2176C22.0839 24.1806 22.3222 24.1273 22.6206 24.0989C22.919 24.0705 23.1641 24.08 23.1675 24.1127Z" fill="#FAFAFA"/>
<path d="M20.4147 30.4956C20.3777 30.4956 20.2547 29.5496 20.1412 28.3723C20.0277 27.1949 19.964 26.2403 20.001 26.2369C20.038 26.2334 20.1601 27.1829 20.2745 28.3594C20.3889 29.5359 20.4517 30.4922 20.4147 30.4956Z" fill="#FAFAFA"/>
<path d="M23.0042 27.6361C23.0042 27.6731 22.6249 27.741 22.1485 27.7866C21.672 27.8322 21.2842 27.8408 21.2807 27.8038C21.2773 27.7668 21.66 27.6998 22.1356 27.6533C22.6111 27.6069 23.0007 27.5991 23.0042 27.6361Z" fill="#FAFAFA"/>
<path d="M23.2948 30.2858C23.2991 30.3228 22.9156 30.3898 22.44 30.4363C21.9644 30.4827 21.5757 30.4896 21.5714 30.4535C21.5671 30.4173 21.9506 30.3486 22.4271 30.3021C22.9035 30.2557 23.2914 30.2488 23.2948 30.2858Z" fill="#FAFAFA"/>
<path d="M21.3202 36.1535C21.1455 35.9079 20.9957 35.6455 20.873 35.3701C21.0474 35.6159 21.1972 35.8784 21.3202 36.1535V36.1535Z" fill="#263238"/>
<path d="M20.0879 35.7605C19.9976 35.6473 19.9192 35.5251 19.854 35.3959C19.7759 35.274 19.7108 35.1443 19.6596 35.0089C19.8289 35.2437 19.973 35.4956 20.0896 35.7605H20.0879Z" fill="#263238"/>
<path d="M18.9587 35.2196C18.8689 35.1062 18.7908 34.9841 18.7256 34.855C18.6474 34.733 18.5819 34.6034 18.5304 34.468C18.6207 34.5812 18.6991 34.7034 18.7643 34.8326C18.8424 34.9545 18.9075 35.0842 18.9587 35.2196V35.2196Z" fill="#263238"/>
<path d="M22.618 36.3127C22.5249 36.1939 22.4436 36.0663 22.3755 35.9317C22.2941 35.8047 22.2259 35.6699 22.1717 35.5292C22.2649 35.6475 22.3462 35.7749 22.4142 35.9093C22.4956 36.0365 22.5639 36.1716 22.618 36.3127V36.3127Z" fill="#263238"/>
<path d="M23.8289 36.2456C23.6545 35.9997 23.5047 35.7373 23.3817 35.4621C23.5564 35.7077 23.7062 35.9702 23.8289 36.2456V36.2456Z" fill="#263238"/>
<path d="M25.0157 35.9867C24.9222 35.8683 24.8407 35.741 24.7723 35.6066C24.6917 35.4789 24.6234 35.3439 24.5685 35.2032C24.6621 35.3218 24.7436 35.4495 24.8119 35.5842C24.8926 35.7115 24.9608 35.8463 25.0157 35.9867V35.9867Z" fill="#263238"/>
<path d="M26.101 35.5894C26.0074 35.4708 25.9259 35.3432 25.8576 35.2084C25.7771 35.081 25.7088 34.9462 25.6538 34.8059C25.7475 34.9241 25.8291 35.0515 25.8972 35.186C25.9778 35.3137 26.0461 35.4487 26.101 35.5894V35.5894Z" fill="#263238"/>
<path d="M27.1382 34.9814C27.0448 34.8626 26.9633 34.735 26.8948 34.6004C26.8141 34.4727 26.7459 34.3377 26.691 34.1971C26.7846 34.3156 26.8661 34.4433 26.9344 34.578C27.0152 34.7056 27.0834 34.8406 27.1382 34.9814V34.9814Z" fill="#263238"/>
<path d="M28.036 34.2366C27.9427 34.1179 27.8611 33.9903 27.7926 33.8556C27.712 33.728 27.6437 33.5929 27.5888 33.4523C27.6824 33.5709 27.7639 33.6985 27.8322 33.8333C27.913 33.9608 27.9813 34.0959 28.036 34.2366V34.2366Z" fill="#263238"/>
<path d="M28.7507 33.454C28.6578 33.3351 28.5766 33.2075 28.5081 33.073C28.4267 32.9458 28.3584 32.8107 28.3043 32.6697C28.3975 32.7884 28.4787 32.916 28.5469 33.0507C28.6285 33.1777 28.6968 33.3129 28.7507 33.454V33.454Z" fill="#263238"/>
<path d="M29.3991 32.5493C29.2249 32.303 29.0751 32.0403 28.9519 31.765C29.0452 31.8837 29.1267 32.0113 29.1953 32.146C29.2763 32.2734 29.3446 32.4085 29.3991 32.5493V32.5493Z" fill="#263238"/>
<path d="M29.928 31.5224C29.8344 31.4039 29.7529 31.2762 29.6846 31.1415C29.6038 31.0139 29.5355 30.8789 29.4808 30.7381C29.5742 30.8569 29.6557 30.9845 29.7242 31.1191C29.8048 31.2467 29.8731 31.3818 29.928 31.5224V31.5224Z" fill="#263238"/>
<path d="M30.2634 30.3701C30.1698 30.2515 30.0883 30.1238 30.02 29.9891C29.9391 29.861 29.8708 29.7253 29.8162 29.584C29.9096 29.7028 29.9911 29.8304 30.0596 29.965C30.1403 30.0932 30.2086 30.2288 30.2634 30.3701V30.3701Z" fill="#263238"/>
<path d="M30.4191 29.1471C30.3094 29.0003 30.2119 28.8447 30.1275 28.6819C30.0302 28.5266 29.9459 28.3635 29.8756 28.1942C30.0819 28.4968 30.2636 28.8155 30.4191 29.1471V29.1471Z" fill="#263238"/>
<path d="M30.2505 27.4246C30.1413 27.2775 30.0441 27.1219 29.9598 26.9593C29.8627 26.804 29.7782 26.6413 29.707 26.4725C29.8169 26.6192 29.9145 26.7749 29.9985 26.9378C30.0953 27.0931 30.1796 27.2559 30.2505 27.4246V27.4246Z" fill="#263238"/>
<g opacity="0.2">
<path opacity="0.2" d="M17.5578 25.591L23.6354 24.995L24.5358 25.935L24.541 25.941H24.5496L26.3917 25.7501L26.8862 25.6968L27.0135 25.6813H27.0375C27.0389 25.689 27.0412 25.6965 27.0444 25.7037C27.0571 25.7314 27.078 25.7544 27.1044 25.7697C27.1308 25.7849 27.1612 25.7915 27.1915 25.7885C27.2218 25.7856 27.2505 25.7733 27.2734 25.7533C27.2964 25.7333 27.3125 25.7066 27.3196 25.677C27.3251 25.6533 27.3245 25.6287 27.3177 25.6053C27.3109 25.582 27.2982 25.5608 27.2809 25.5437C27.2578 25.5214 27.227 25.5088 27.1949 25.5085C27.1734 25.5085 27.1631 25.5145 27.1631 25.5171C27.1631 25.5196 27.2121 25.5171 27.2491 25.5687C27.2598 25.582 27.2671 25.5977 27.2704 25.6145C27.2737 25.6313 27.2729 25.6486 27.268 25.665C27.2624 25.6842 27.2511 25.7013 27.2356 25.7141C27.2201 25.7269 27.2012 25.7348 27.1812 25.7367C27.1613 25.7386 27.1412 25.7346 27.1235 25.725C27.1059 25.7154 27.0915 25.7008 27.0823 25.683C27.0744 25.6679 27.0703 25.6511 27.0703 25.634C27.0703 25.617 27.0744 25.6002 27.0823 25.585C27.1124 25.53 27.1622 25.5257 27.1597 25.5171C27.1571 25.5085 27.1485 25.511 27.127 25.5171C27.0961 25.524 27.0691 25.5425 27.0513 25.5687C27.0403 25.585 27.0328 25.6035 27.0294 25.6229C27.026 25.6423 27.0267 25.6622 27.0315 25.6813H27.0074L26.8802 25.6916L26.3848 25.7364L24.5496 25.9084L23.6526 24.9624L23.6457 24.9546H23.6362L17.5526 25.542L15.2564 25.7665C15.2504 25.7837 15.2452 25.8009 15.2392 25.8181L17.5578 25.591Z" fill="white"/>
<path opacity="0.2" d="M27.096 24.1608L28.0558 25.1404L28.0627 25.1473H28.073L29.2452 25.026C29.2452 25.0174 29.2374 25.0088 29.234 24.9993L28.0799 25.1034L27.1235 24.1187L27.1149 24.1101H27.1029L26.3384 24.1841L23.509 24.467L22.649 24.5582L22.4168 24.5857C22.3895 24.5877 22.3625 24.592 22.3359 24.5986C22.3631 24.6009 22.3904 24.6009 22.4176 24.5986L22.6515 24.5805L23.5115 24.5057L26.3427 24.2382L27.096 24.1608Z" fill="white"/>
<path opacity="0.2" d="M20.9599 27.5484L21.5551 27.7961H21.5594L22.5613 27.704L22.827 27.6774H22.8451C22.8476 27.6965 22.8575 27.7138 22.8725 27.7259C22.8876 27.7379 22.9067 27.7436 22.9259 27.7419C22.9457 27.7399 22.964 27.7302 22.9767 27.7148C22.9893 27.6994 22.9953 27.6796 22.9934 27.6598C22.9915 27.6399 22.9817 27.6217 22.9663 27.609C22.9509 27.5963 22.9311 27.5903 22.9113 27.5922C22.8924 27.5944 22.8751 27.6035 22.8627 27.6179C22.8502 27.6322 22.8436 27.6507 22.8442 27.6696H22.8261L22.5595 27.6877L21.5611 27.7651L20.9668 27.5123H20.9625H20.9574L16.6892 27.9199L15.1936 28.0661L14.9012 27.9242C14.9012 27.9423 14.9012 27.9603 14.9012 27.9784L15.179 28.1143H15.185H15.1928L16.6943 27.9689L20.9599 27.5484Z" fill="white"/>
<path opacity="0.2" d="M21.5069 27.1674L20.9453 26.9954H20.9401H20.935L20.5755 27.0324C20.5557 26.8019 20.5368 26.5817 20.5187 26.3736V26.3513H20.4964L18.8495 26.5336L18.3894 26.5878L18.3386 26.5946C18.3355 26.5764 18.3256 26.56 18.311 26.5487C18.2963 26.5374 18.278 26.532 18.2595 26.5336C18.2398 26.5355 18.2217 26.5452 18.2091 26.5606C18.1965 26.5759 18.1905 26.5956 18.1924 26.6153C18.1937 26.6349 18.2027 26.6532 18.2174 26.6662C18.2322 26.6792 18.2515 26.6858 18.2711 26.6845C18.2907 26.6833 18.3091 26.6743 18.322 26.6595C18.335 26.6447 18.3416 26.6254 18.3404 26.6058L18.3911 26.6015L18.8529 26.5594L20.4766 26.402C20.4926 26.6113 20.5101 26.8314 20.5291 27.0625V27.0866H20.554L20.9333 27.0487L21.4948 27.2207H21.5H21.5052L22.2043 27.1528L25.3554 26.8389L25.9393 27.1597H25.9436H25.9479L26.5396 27.0952L26.6961 27.0762H26.7039C26.7164 27.1043 26.7374 27.1276 26.764 27.143C26.7905 27.1584 26.8213 27.165 26.8518 27.162C26.8823 27.159 26.9112 27.1464 26.9341 27.126C26.9571 27.1057 26.9732 27.0787 26.9799 27.0487C26.9854 27.0252 26.9848 27.0006 26.978 26.9774C26.9712 26.9542 26.9585 26.9331 26.9412 26.9163C26.9183 26.8936 26.8875 26.8806 26.8552 26.8802C26.8337 26.8802 26.8234 26.8862 26.8234 26.8896C26.8234 26.8931 26.8724 26.8896 26.9094 26.9412C26.9202 26.9545 26.9277 26.9702 26.9312 26.9869C26.9346 27.0037 26.9339 27.0211 26.9292 27.0375C26.9237 27.057 26.9124 27.0744 26.8968 27.0874C26.8813 27.1004 26.8622 27.1084 26.842 27.1103C26.8219 27.1123 26.8016 27.1081 26.7838 27.0983C26.7661 27.0886 26.7517 27.0737 26.7425 27.0556C26.7348 27.0404 26.7308 27.0236 26.7308 27.0066C26.7308 26.9895 26.7348 26.9727 26.7425 26.9576C26.7726 26.9025 26.8225 26.8974 26.8199 26.8896C26.8174 26.8819 26.8079 26.8827 26.7873 26.8896C26.7565 26.8962 26.7294 26.9144 26.7116 26.9404C26.6989 26.959 26.6908 26.9805 26.6881 27.003C26.6854 27.0254 26.6882 27.0482 26.6961 27.0694H26.6901L26.5327 27.0805L25.9445 27.1313L25.37 26.8019H25.3648H25.3588L22.2009 27.102L21.5069 27.1674Z" fill="white"/>
<path opacity="0.2" d="M18.2053 32.8142C18.1825 32.7914 18.1516 32.7784 18.1193 32.7781C18.0978 32.7781 18.0875 32.7841 18.0875 32.7875C18.0875 32.791 18.1365 32.7875 18.1735 32.8391C18.1842 32.8525 18.1915 32.8682 18.1948 32.885C18.1981 32.9017 18.1973 32.9191 18.1924 32.9354C18.1868 32.9547 18.1755 32.9718 18.16 32.9846C18.1445 32.9974 18.1256 33.0052 18.1057 33.0072C18.0857 33.0091 18.0656 33.005 18.048 32.9955C18.0303 32.9859 18.0159 32.9713 18.0067 32.9535C17.9988 32.9384 17.9947 32.9215 17.9947 32.9045C17.9947 32.8874 17.9988 32.8706 18.0067 32.8555C18.0368 32.8004 18.0867 32.7953 18.0841 32.7875C18.0815 32.7798 18.072 32.7806 18.0514 32.7875C18.0206 32.7941 17.9935 32.8123 17.9757 32.8383C17.9621 32.8584 17.9538 32.8817 17.9517 32.9059C17.9496 32.9302 17.9537 32.9545 17.9637 32.9767C17.9761 33.0046 17.997 33.0279 18.0234 33.0434C18.0498 33.0588 18.0803 33.0656 18.1107 33.0627C18.1411 33.0595 18.1697 33.0469 18.1927 33.0267C18.2156 33.0066 18.2318 32.9798 18.2389 32.9501C18.2389 32.9501 18.2389 32.9501 18.2389 32.9449H18.2612L18.3722 32.9372L18.7919 32.9036L20.2625 32.7703H20.2754L20.2814 32.7583L20.7045 31.8613V31.8553V31.8475C20.6916 31.7117 20.6778 31.5723 20.6641 31.4313C20.6039 30.825 20.5471 30.2548 20.499 29.7672V29.756L20.4895 29.7508L19.786 29.289H19.78L19.092 29.3638L18.9071 29.3862H18.8822C18.8793 29.3536 18.865 29.3232 18.8417 29.3002C18.8188 29.2775 18.788 29.2645 18.7557 29.2641C18.7342 29.2641 18.7239 29.2701 18.7239 29.2735C18.7239 29.277 18.7729 29.2735 18.8099 29.3251C18.8204 29.3384 18.8276 29.354 18.8309 29.3706C18.8342 29.3872 18.8335 29.4043 18.8288 29.4206C18.8236 29.4402 18.8126 29.4578 18.7972 29.471C18.7818 29.4841 18.7627 29.4923 18.7425 29.4943C18.7223 29.4964 18.702 29.4922 18.6842 29.4825C18.6665 29.4727 18.6521 29.4577 18.6431 29.4395C18.6352 29.4244 18.6311 29.4076 18.6311 29.3905C18.6311 29.3734 18.6352 29.3566 18.6431 29.3415C18.6732 29.2864 18.7231 29.2813 18.7205 29.2735C18.7179 29.2658 18.7084 29.2667 18.6878 29.2735C18.6569 29.2798 18.6297 29.298 18.6121 29.3243C18.5981 29.3441 18.5895 29.3672 18.5873 29.3914C18.585 29.4155 18.5891 29.4398 18.5992 29.4619C18.6117 29.4899 18.6326 29.5133 18.6591 29.5288C18.6856 29.5442 18.7163 29.5509 18.7468 29.548C18.7774 29.545 18.8062 29.5326 18.8293 29.5123C18.8523 29.4921 18.8684 29.4651 18.8753 29.4352C18.8774 29.4218 18.8774 29.4082 18.8753 29.3948H18.8994L19.086 29.381L19.7688 29.3226C19.9658 29.455 20.1988 29.6115 20.4568 29.7827C20.5033 30.2686 20.5566 30.8353 20.6142 31.4373C20.628 31.5758 20.6409 31.7125 20.6546 31.8467L20.2435 32.7265L18.7876 32.8778L18.3696 32.9251L18.2595 32.9397H18.238C18.2432 32.9177 18.2429 32.8948 18.2372 32.8729C18.2315 32.8511 18.2206 32.8309 18.2053 32.8142V32.8142Z" fill="white"/>
<path opacity="0.2" d="M26.058 30.6581C26.0767 30.6562 26.0939 30.6472 26.1062 30.633C26.1185 30.6188 26.125 30.6004 26.1242 30.5816L26.3418 30.5653L27.1468 30.4956H27.1519H27.1562L27.999 29.7999L29.7027 29.6365C29.7027 29.6184 29.7104 29.6012 29.7147 29.5831L27.987 29.7551H27.9801L27.9741 29.7603L27.1373 30.4655L26.3401 30.5515L26.1225 30.5782C26.12 30.5587 26.1098 30.541 26.0943 30.5289C26.0787 30.5169 26.059 30.5116 26.0395 30.5141C26.02 30.5166 26.0023 30.5268 25.9903 30.5423C25.9783 30.5579 25.9729 30.5776 25.9754 30.5971C25.9786 30.616 25.989 30.6329 26.0044 30.6443C26.0198 30.6557 26.039 30.6606 26.058 30.6581V30.6581Z" fill="white"/>
<path opacity="0.2" d="M22.1717 35.4914C22.1717 35.4656 22.1717 35.432 22.1656 35.3925C22.157 35.2764 22.1441 35.1233 22.1304 34.9375C22.0977 34.5548 22.0487 34.0251 21.9919 33.4411C21.9739 33.2588 21.9567 33.0808 21.9395 32.9122V32.9019L21.9317 32.8959L21.0717 32.1967C21.0554 32.0574 21.0416 31.9387 21.0313 31.8527C21.0236 31.7942 21.0175 31.7555 21.0141 31.7383C21.0234 31.7405 21.0331 31.7405 21.0425 31.7383C21.0572 31.7369 21.0712 31.7311 21.0826 31.7217C21.0941 31.7123 21.1025 31.6998 21.1068 31.6856C21.1111 31.6714 21.1111 31.6563 21.1068 31.6422C21.1025 31.628 21.0942 31.6154 21.0827 31.606C21.0713 31.5966 21.0573 31.5908 21.0426 31.5894C21.0278 31.5879 21.013 31.5909 20.9999 31.5979C20.9869 31.6048 20.9762 31.6155 20.9692 31.6286C20.9623 31.6417 20.9593 31.6565 20.9608 31.6712C20.9621 31.6851 20.9673 31.6982 20.9758 31.7092C20.9844 31.7202 20.9959 31.7285 21.0089 31.7331C21.0089 31.7495 21.0089 31.789 21.0141 31.851C21.021 31.937 21.0296 32.0582 21.0408 32.2018V32.2079L21.0459 32.213L21.8956 32.9225C21.9111 33.0885 21.9274 33.2622 21.9446 33.4385C22.0014 34.0225 22.0556 34.5514 22.0977 34.9341C22.1192 35.1181 22.1364 35.2703 22.1502 35.3864L22.1631 35.4853C22.1455 35.4883 22.1297 35.4974 22.1183 35.5111H22.2362C22.2277 35.5031 22.2174 35.4971 22.2062 35.4937C22.195 35.4902 22.1832 35.4894 22.1717 35.4914V35.4914Z" fill="white"/>
<path opacity="0.2" d="M18.6947 24.4524C18.6955 24.4626 18.6984 24.4726 18.7033 24.4816C18.7081 24.4906 18.7148 24.4985 18.7229 24.5048C18.731 24.5112 18.7403 24.5157 18.7503 24.5182C18.7602 24.5207 18.7706 24.5212 18.7807 24.5195C18.7951 24.5172 18.8086 24.5108 18.8194 24.501C18.8302 24.4912 18.8379 24.4785 18.8416 24.4643C18.8453 24.4502 18.8447 24.4353 18.84 24.4215C18.8353 24.4077 18.8267 24.3955 18.8152 24.3865C18.8037 24.3776 18.7898 24.3721 18.7752 24.371C18.7607 24.3698 18.7461 24.3729 18.7333 24.3799C18.7205 24.3869 18.71 24.3975 18.7031 24.4103C18.6963 24.4232 18.6933 24.4378 18.6947 24.4524V24.4524Z" fill="white"/>
<path opacity="0.2" d="M24.6364 31.2481L24.7852 31.2326H24.811C24.8106 31.2375 24.8106 31.2424 24.811 31.2472C24.8119 31.2571 24.8147 31.2666 24.8193 31.2753C24.8238 31.284 24.8301 31.2917 24.8377 31.298C24.8454 31.3042 24.8541 31.3089 24.8636 31.3117C24.873 31.3145 24.8829 31.3154 24.8927 31.3143C24.9123 31.3122 24.9303 31.3024 24.9429 31.2871C24.9554 31.2719 24.9615 31.2523 24.9598 31.2326C24.9589 31.2143 24.9511 31.1969 24.9381 31.184C24.9251 31.171 24.9077 31.1633 24.8894 31.1625C24.871 31.1616 24.853 31.1676 24.8388 31.1793C24.8247 31.191 24.8154 31.2076 24.8127 31.2257H24.7852L24.6356 31.2326L24.0774 31.2679L22.2069 31.4012C22.1811 31.1925 22.1547 30.9775 22.1278 30.7562C22.1201 30.6951 22.1123 30.6341 22.1054 30.5773L22.7762 29.8403L22.784 29.8325V29.8214C22.759 29.5814 22.7358 29.3544 22.7152 29.1497V29.1411L22.7083 29.1351L22.4847 28.9528L22.4778 28.9476H22.4701L21.6204 29.0388L21.3882 29.0671H21.3598C21.3571 29.0344 21.3424 29.0038 21.3185 28.9811C21.2957 28.9584 21.2648 28.9454 21.2325 28.945C21.211 28.945 21.2007 28.951 21.2007 28.9545C21.2007 28.9579 21.2497 28.9545 21.2867 29.0061C21.3027 29.026 21.311 29.0511 21.3099 29.0766H21.3022H21.3091C21.3103 29.0837 21.3103 29.091 21.3091 29.0981C21.3038 29.1177 21.2927 29.1351 21.2772 29.1482C21.2617 29.1613 21.2426 29.1694 21.2224 29.1713C21.2023 29.1733 21.182 29.1691 21.1643 29.1592C21.1466 29.1493 21.1323 29.1343 21.1233 29.1162C21.1155 29.101 21.1114 29.0842 21.1114 29.0671C21.1114 29.0501 21.1155 29.0333 21.1233 29.0181C21.1534 28.9639 21.2033 28.9588 21.2007 28.951C21.1981 28.9433 21.1895 28.9442 21.168 28.951C21.1371 28.9573 21.1099 28.9755 21.0924 29.0018C21.0787 29.0218 21.0704 29.0449 21.0683 29.069C21.0662 29.0931 21.0704 29.1173 21.0803 29.1394C21.0926 29.1675 21.1134 29.1911 21.1399 29.2067C21.1663 29.2222 21.197 29.229 21.2276 29.2261C21.2582 29.2231 21.287 29.2105 21.31 29.1902C21.333 29.1698 21.3489 29.1427 21.3555 29.1127C21.3567 29.101 21.3567 29.0892 21.3555 29.0775H21.3839L21.617 29.0603L22.4606 28.9863L22.6696 29.1583C22.6877 29.3578 22.7083 29.578 22.7298 29.811L22.0556 30.5472L22.0478 30.5558V30.5678C22.0547 30.628 22.0633 30.6925 22.071 30.7579L22.157 31.427V31.4519H22.1811L24.0731 31.2988L24.6364 31.2481Z" fill="white"/>
<path opacity="0.2" d="M23.5184 31.0107C23.478 30.5223 23.4324 30.008 23.392 29.486C23.386 29.4137 23.38 29.3423 23.3748 29.2701V29.2598L23.3662 29.2529L22.6464 28.6328L22.6378 28.626H22.6266L18.177 29.0611H18.1709H18.1666L15.4645 30.8749L15.4774 30.9075L18.1873 29.1015L22.6206 28.6715L23.3249 29.2735C23.3301 29.3415 23.3361 29.4094 23.3413 29.4782C23.386 30.0097 23.4273 30.5326 23.4703 31.0262V31.052H23.4961L29.443 30.536L29.4567 30.4973L23.5184 31.0107Z" fill="white"/>
<path opacity="0.2" d="M23.4118 28.2476C23.4281 28.3946 23.4522 28.6027 23.4814 28.8633V28.8693L23.4875 28.8736L24.7534 29.8549L24.7603 29.8601H24.768L26.4484 29.6992L29.3552 29.412L29.7594 29.369L29.7646 29.3389L29.3518 29.375L26.445 29.6502L24.7749 29.8145L23.5107 28.8564C23.4763 28.5984 23.4488 28.3946 23.4247 28.2484C23.4152 28.1813 23.4066 28.1272 23.4006 28.0859C23.3991 28.0672 23.3953 28.0487 23.3894 28.0308C23.3877 28.0494 23.3877 28.0681 23.3894 28.0867C23.3997 28.122 23.4049 28.1788 23.4118 28.2476Z" fill="white"/>
<path opacity="0.2" d="M24.8402 26.31H24.8334L24.8273 26.3143L24.3913 26.6213L23.0196 26.7641L22.6266 26.8088L22.532 26.8217C22.5281 26.7918 22.5142 26.7642 22.4924 26.7434C22.4696 26.7205 22.4387 26.7076 22.4064 26.7073C22.3849 26.7073 22.3738 26.7133 22.3746 26.7168C22.3755 26.7202 22.4236 26.7168 22.4606 26.7684C22.4746 26.7857 22.4824 26.8072 22.483 26.8294V26.8294C22.4846 26.8408 22.4846 26.8524 22.483 26.8638C22.477 26.8828 22.4657 26.8996 22.4505 26.9124C22.4352 26.9252 22.4167 26.9334 22.397 26.9361C22.377 26.9378 22.3569 26.9336 22.3393 26.924C22.3217 26.9143 22.3074 26.8997 22.2981 26.8819C22.2902 26.8667 22.286 26.8499 22.286 26.8329C22.286 26.8158 22.2902 26.799 22.2981 26.7838C22.3273 26.7288 22.3781 26.7236 22.3755 26.7159C22.3729 26.7082 22.3634 26.709 22.3419 26.7159C22.3112 26.7227 22.2842 26.7408 22.2663 26.7666C22.2526 26.7868 22.2444 26.8101 22.2423 26.8343C22.2401 26.8585 22.2443 26.8829 22.2542 26.9051C22.2669 26.9328 22.288 26.9558 22.3144 26.971C22.3408 26.9861 22.3713 26.9926 22.4016 26.9896C22.432 26.9866 22.4606 26.9741 22.4835 26.9541C22.5064 26.934 22.5224 26.9072 22.5294 26.8776C22.5324 26.8622 22.5324 26.8465 22.5294 26.8311L22.624 26.826L23.0179 26.7942L24.3939 26.6695H24.4008H24.4059L24.8428 26.365L25.5721 26.3083L27.827 26.1225L28.5098 26.0597L28.687 26.0417C28.6884 26.0605 28.6971 26.0781 28.7113 26.0906C28.7254 26.1032 28.7438 26.1098 28.7627 26.1091C28.7816 26.1084 28.7994 26.1004 28.8126 26.0868C28.8257 26.0731 28.833 26.055 28.833 26.0361C28.833 26.0172 28.8257 25.999 28.8126 25.9854C28.7994 25.9718 28.7816 25.9637 28.7627 25.963C28.7438 25.9623 28.7254 25.9689 28.7113 25.9815C28.6971 25.9941 28.6884 26.0116 28.687 26.0305L28.5098 26.0399L27.8218 26.0855L25.5669 26.2575L24.8402 26.31Z" fill="white"/>
<path opacity="0.2" d="M21.1139 33.8066C21.0941 33.5985 21.0734 33.3972 21.0545 33.2046V33.196L21.0442 33.1891L20.5772 32.8984L20.5703 32.8933H20.5626L19.4902 33.0077L19.1866 33.0438L19.1513 33.0481C19.1482 33.0297 19.1382 33.0132 19.1233 33.0019C19.1085 32.9905 19.0899 32.9852 19.0714 32.987C19.0523 32.9897 19.035 32.9997 19.0231 33.0149C19.0112 33.03 19.0056 33.0492 19.0075 33.0684C19.0094 33.0876 19.0186 33.1053 19.0332 33.1179C19.0478 33.1304 19.0667 33.1368 19.086 33.1358C19.1045 33.1339 19.1217 33.125 19.1339 33.1109C19.1462 33.0969 19.1527 33.0788 19.1522 33.0601H19.1875L19.4928 33.0369L20.5592 32.9423L21.0064 33.2261C21.0253 33.4153 21.0442 33.6131 21.0631 33.8161L21.2265 35.432L21.2661 35.438C21.2239 34.9865 21.1715 34.4215 21.1139 33.8066Z" fill="white"/>
<path opacity="0.2" d="M21.8362 35.0588L21.8431 35.0502V35.0399C21.7649 34.2392 21.69 33.4858 21.6255 32.8262V32.8168L21.6178 32.8107L20.9616 32.275C20.9031 31.7099 20.855 31.2481 20.8214 30.9222C20.8042 30.7648 20.7896 30.6401 20.7802 30.5507C20.775 30.512 20.7716 30.481 20.7681 30.4561H20.7836C20.7983 30.4546 20.8123 30.4488 20.8238 30.4395C20.8352 30.4301 20.8436 30.4175 20.8479 30.4034C20.8522 30.3892 20.8523 30.3741 20.848 30.3599C20.8437 30.3457 20.8353 30.3332 20.8238 30.3238C20.8124 30.3144 20.7984 30.3086 20.7837 30.3071C20.769 30.3057 20.7541 30.3086 20.7411 30.3156C20.728 30.3226 20.7173 30.3333 20.7104 30.3463C20.7034 30.3594 20.7004 30.3742 20.7019 30.389C20.7035 30.4048 20.7103 30.4197 20.7212 30.4313C20.732 30.443 20.7464 30.4507 20.7621 30.4535C20.7621 30.4784 20.7621 30.5102 20.7681 30.5498C20.7759 30.6358 20.7862 30.7648 20.7991 30.923C20.8292 31.2507 20.8713 31.716 20.9229 32.2853V32.293L20.9289 32.299L21.5808 32.8383C21.6436 33.4936 21.715 34.2392 21.7907 35.0321L21.7184 35.1181L21.4372 35.4621L21.4983 35.469C21.5843 35.3675 21.6703 35.2609 21.7563 35.1525L21.8362 35.0588Z" fill="white"/>
<path opacity="0.2" d="M28.6991 31.7512L24.9615 32.1072L24.1419 32.1872H24.1239L24.1196 32.2044L23.8616 33.1728V33.1814C23.9476 34.0164 24.0207 34.7517 24.0791 35.3314L24.111 35.3236C24.0568 34.7466 23.9888 34.0139 23.9106 33.1822C23.9966 32.8812 24.0826 32.5639 24.1686 32.2362L24.9701 32.1588L28.7068 31.7882L28.8848 31.7693L28.9055 31.7331L28.6991 31.7512Z" fill="white"/>
<path opacity="0.2" d="M23.994 28.7464V28.7584L24.0043 28.7653L24.2692 28.9536L25.0114 29.4791L25.0191 29.4842H25.026L26.9326 29.2899L27.4873 29.2288L27.6137 29.2125C27.6162 29.232 27.6264 29.2497 27.642 29.2617C27.6575 29.2737 27.6772 29.2791 27.6967 29.2766C27.7162 29.274 27.7339 29.2639 27.746 29.2483C27.758 29.2328 27.7633 29.2131 27.7608 29.1936C27.7599 29.1838 27.7572 29.1744 27.7526 29.1657C27.7481 29.1571 27.7419 29.1494 27.7344 29.1432C27.7268 29.1369 27.7182 29.1323 27.7088 29.1294C27.6995 29.1265 27.6897 29.1255 27.68 29.1265C27.6612 29.1284 27.6438 29.1374 27.6314 29.1516C27.619 29.1658 27.6123 29.1842 27.6129 29.203L27.4856 29.2116L26.9292 29.2581L25.0303 29.4301L24.2967 28.908L24.0387 28.7274C23.9811 28.1512 23.9278 27.6163 23.8813 27.1554V27.1339H23.8598L22.6558 27.2603L22.3196 27.299L22.274 27.305C22.268 27.2955 22.2608 27.2868 22.2525 27.2792C22.2412 27.268 22.2278 27.2591 22.213 27.253C22.1982 27.247 22.1824 27.2439 22.1665 27.2439C22.145 27.2439 22.1338 27.25 22.1347 27.2525C22.1355 27.2551 22.1837 27.2525 22.2207 27.3041C22.2224 27.3062 22.2238 27.3085 22.225 27.311L22.1957 27.317C22.1957 27.317 22.206 27.317 22.2267 27.317C22.2344 27.3298 22.2394 27.3441 22.2413 27.3589C22.2433 27.3737 22.2421 27.3887 22.2379 27.403C22.2324 27.4225 22.2211 27.4399 22.2055 27.4529C22.19 27.4659 22.1709 27.4739 22.1507 27.4758C22.1306 27.4778 22.1103 27.4736 22.0925 27.4638C22.0748 27.4541 22.0604 27.4392 22.0512 27.4211C22.0433 27.406 22.0392 27.3892 22.0392 27.3721C22.0392 27.355 22.0433 27.3382 22.0512 27.3231C22.0813 27.268 22.1312 27.2637 22.1286 27.2551C22.1261 27.2465 22.1166 27.2482 22.0951 27.2551C22.0645 27.2623 22.0376 27.2803 22.0194 27.3059C22.0058 27.326 21.9975 27.3493 21.9954 27.3735C21.9933 27.3978 21.9974 27.4221 22.0074 27.4443C22.02 27.472 22.041 27.4951 22.0674 27.5103C22.0937 27.5255 22.1242 27.5321 22.1545 27.5292C22.1848 27.5262 22.2134 27.5139 22.2364 27.4939C22.2594 27.4739 22.2755 27.4473 22.2826 27.4177C22.2905 27.3848 22.2859 27.3501 22.2697 27.3205H22.3118L22.6489 27.2938L23.8349 27.1872C23.8882 27.6438 23.9381 28.1753 23.994 28.7464Z" fill="white"/>
<path opacity="0.2" d="M29.7233 27.7144L29.0147 27.1304L29.0061 27.1236H28.9958L28.933 27.1304L25.8705 27.434L25.382 27.1579H25.376H25.37L24.7379 27.2216H24.7302L24.7259 27.2276L24.0912 28.0085V28.0128C24.1135 28.2183 24.1316 28.3774 24.1436 28.4892C24.1497 28.54 24.1548 28.5804 24.1583 28.6113C24.1593 28.625 24.1616 28.6385 24.1651 28.6518C24.1665 28.638 24.1665 28.6242 24.1651 28.6105C24.1651 28.5795 24.16 28.5391 24.1565 28.4875C24.1471 28.3774 24.1333 28.2192 24.1161 28.0154L24.7517 27.2526L25.3709 27.1949L25.8576 27.4744H25.8636H25.8714L28.9416 27.1803L28.9932 27.1751L29.7027 27.7582L29.7104 27.7642H29.7216L29.8738 27.7488C29.8738 27.7324 29.8738 27.7152 29.8738 27.6989L29.7233 27.7144Z" fill="white"/>
<path opacity="0.2" d="M19.9744 21.4183L19.983 21.4243L20.732 22.0401C20.8051 22.7702 20.8713 23.4247 20.9238 23.9493V23.9596L20.9333 23.9648L21.629 24.3088H21.6359L22.0659 24.2615L22.176 24.2468C22.1888 24.2458 22.2014 24.2435 22.2138 24.24C22.2012 24.2383 22.1885 24.2383 22.176 24.24L22.0642 24.2477L21.6393 24.283L20.9616 23.939C20.9118 23.4135 20.8507 22.7582 20.7819 22.028V22.016L20.7733 22.0091L20.0234 21.3908C20.0079 21.2411 19.9933 21.0932 19.9787 20.947L19.9305 20.9642C19.9443 21.1096 19.958 21.2566 19.9726 21.4063L19.9744 21.4183Z" fill="white"/>
<path opacity="0.2" d="M21.2136 21.9739L21.2076 21.9816V21.9911C21.2618 22.5071 21.3074 22.9474 21.3409 23.2673C21.3581 23.4187 21.3727 23.5408 21.383 23.6319C21.3866 23.6757 21.3935 23.7191 21.4037 23.7618C21.4054 23.7182 21.4037 23.6745 21.3985 23.6311C21.3916 23.5391 21.3822 23.4161 21.3701 23.2647C21.3418 22.9465 21.3022 22.5088 21.2558 21.9962L21.9532 21.1526L22.3265 20.6968L22.3333 20.689V20.6787L22.3204 20.5514H22.274L22.2852 20.6727L21.9171 21.1199L21.2136 21.9739Z" fill="white"/>
<path opacity="0.2" d="M22.0711 21.9429C22.0797 21.9293 22.0839 21.9134 22.0831 21.8973C22.0811 21.8776 22.0714 21.8595 22.0561 21.8469C22.0408 21.8343 22.0211 21.8283 22.0014 21.8302C21.9917 21.8311 21.9822 21.8339 21.9736 21.8384C21.9649 21.843 21.9572 21.8492 21.951 21.8567C21.9448 21.8642 21.9401 21.8729 21.9372 21.8822C21.9344 21.8915 21.9334 21.9014 21.9343 21.9111C21.9349 21.9251 21.9397 21.9387 21.9479 21.9502C21.9561 21.9616 21.9675 21.9703 21.9807 21.9754C21.9939 21.9804 22.0082 21.9815 22.022 21.9784C22.0357 21.9754 22.0483 21.9684 22.0582 21.9584L22.1347 22.0272C22.2164 22.1003 22.3333 22.1992 22.4701 22.3153C22.4804 22.4245 22.4916 22.5415 22.5028 22.6593C22.5286 22.9302 22.5552 23.1753 22.5776 23.3533C22.5842 23.4497 22.5997 23.5453 22.624 23.6388C22.6291 23.5424 22.6257 23.4457 22.6137 23.3499C22.6017 23.171 22.5802 22.925 22.5544 22.6541C22.5415 22.5286 22.5286 22.4082 22.5174 22.2972V22.2869L22.5096 22.2809C22.366 22.1648 22.243 22.0676 22.1545 22.0005L22.0711 21.9429Z" fill="white"/>
<path opacity="0.2" d="M22.9525 23.8756V23.8842L22.9577 23.8902L23.3473 24.2953L23.355 24.3039H23.3671L25.6435 24.0803L26.8174 23.9659H26.8286L26.8354 23.9573L27.7255 22.7903L27.692 22.755L26.801 23.9221L25.6383 24.0347L23.3757 24.2523L22.999 23.8627C22.8648 22.5228 22.7504 21.3808 22.6696 20.5706V20.556H22.6404V20.5741C22.7178 21.3859 22.8253 22.5323 22.9525 23.8756Z" fill="white"/>
<path opacity="0.2" d="M23.908 24.682L23.3679 24.7267L21.586 24.8953C21.5791 24.8179 21.5714 24.737 21.5628 24.6553V24.6364V24.6227L21.5507 24.6166L20.855 24.2228L20.8481 24.2185H20.8404L19.4111 24.3672L18.9974 24.4145L18.8873 24.4292C18.8744 24.4302 18.8617 24.4328 18.8495 24.4369C18.8623 24.439 18.8754 24.439 18.8882 24.4369L18.9991 24.43L19.4136 24.3973L20.8378 24.2675L21.5138 24.6528V24.6588C21.5232 24.7491 21.5318 24.8394 21.5404 24.9245V24.9503H21.5654L23.3714 24.7663L23.9097 24.7061L24.0551 24.6872C24.0721 24.686 24.0888 24.6825 24.1049 24.6768C24.0881 24.6746 24.071 24.6746 24.0542 24.6768L23.908 24.682Z" fill="white"/>
<path opacity="0.2" d="M17.372 22.4795L17.8476 22.9543L17.8562 22.962H17.8674L19.1574 22.8304C19.1875 23.1073 19.2124 23.3352 19.2305 23.5004C19.2382 23.5623 19.2451 23.6147 19.2502 23.6577C19.2502 23.6577 19.2442 23.6577 19.2442 23.6629C19.2442 23.6681 19.2442 23.6629 19.252 23.6672V23.6878C19.2532 23.71 19.2569 23.7319 19.2631 23.7532C19.2656 23.7312 19.2656 23.709 19.2631 23.687V23.6706C19.2902 23.6775 19.3143 23.6929 19.3319 23.7145C19.3427 23.7278 19.35 23.7435 19.3535 23.7603C19.3569 23.777 19.3563 23.7943 19.3517 23.8108C19.3462 23.8303 19.3349 23.8477 19.3194 23.8607C19.3039 23.8737 19.2847 23.8817 19.2646 23.8836C19.2444 23.8856 19.2241 23.8814 19.2064 23.8716C19.1886 23.8618 19.1742 23.8469 19.1651 23.8289C19.1572 23.8137 19.1531 23.7969 19.1531 23.7799C19.1531 23.7628 19.1572 23.746 19.1651 23.7308C19.1952 23.6758 19.2451 23.6706 19.2425 23.6629C19.2399 23.6552 19.2305 23.656 19.209 23.6629C19.1938 23.666 19.1793 23.6721 19.1665 23.6808C19.1536 23.6895 19.1427 23.7007 19.1341 23.7136C19.1201 23.7336 19.1116 23.7569 19.1093 23.7812C19.107 23.8054 19.1112 23.8299 19.1212 23.8521C19.1339 23.8798 19.155 23.9028 19.1814 23.918C19.2078 23.9331 19.2384 23.9396 19.2687 23.9366C19.299 23.9336 19.3276 23.9211 19.3505 23.9011C19.3734 23.881 19.3895 23.8542 19.3964 23.8246C19.4021 23.801 19.4016 23.7764 19.3948 23.7532C19.388 23.73 19.3752 23.7089 19.3577 23.6921C19.3349 23.6693 19.304 23.6563 19.2717 23.656C19.2675 23.6554 19.2631 23.6554 19.2588 23.656C19.2588 23.6122 19.252 23.5606 19.2477 23.4986C19.233 23.3266 19.2133 23.0944 19.1883 22.8106V22.79H19.1685L17.8785 22.9104L17.4141 22.4451L17.372 22.4795Z" fill="white"/>
</g>
<path d="M4.386 17.7074C4.386 17.7074 5.54958 16.77 9.41356 18.8082C9.41356 18.8082 13.3008 20.5007 12.0013 22.1175C10.8962 23.4935 8.6344 22.7109 7.3874 22.1261C6.66953 21.7758 5.99503 21.3428 5.37758 20.8361C4.386 20.0079 3.55696 18.7583 4.386 17.7074Z" fill="#202020"/>
<path opacity="0.4" d="M4.386 17.7074C4.386 17.7074 5.54958 16.77 9.41356 18.8082C9.41356 18.8082 13.3008 20.5007 12.0013 22.1175C10.8962 23.4935 8.6344 22.7109 7.3874 22.1261C6.66953 21.7758 5.99503 21.3428 5.37758 20.8361C4.386 20.0079 3.55696 18.7583 4.386 17.7074Z" fill="black"/>
<path d="M4.472 17.6386C4.472 17.6386 5.8394 16.217 9.70252 18.2569C9.70252 18.2569 13.496 20.4181 12.0529 21.9076C11.063 22.9285 8.92336 22.1596 7.67636 21.5748C7.0219 21.2678 6.10858 20.7535 5.55388 20.2848C4.558 19.4575 3.82614 18.404 4.472 17.6386Z" fill="#202020"/>
<path opacity="0.2" d="M11.3652 21.3775C11.713 20.7189 10.6269 19.4626 8.93939 18.5713C7.25187 17.6801 5.60191 17.4915 5.25412 18.15C4.90632 18.8086 5.99238 20.0649 7.6799 20.9561C9.36742 21.8474 11.0174 22.036 11.3652 21.3775Z" fill="white"/>
<path d="M10.4198 20.5755L9.89774 20.2754C9.76448 20.0128 9.54623 19.803 9.27854 19.6803C8.84854 19.4945 8.61204 19.5882 8.61204 19.5882C8.61204 19.5882 8.60344 19.1634 8.01004 18.8822C7.23604 18.5132 7.10188 18.7532 7.10188 18.7532L6.46376 18.3868L6.29176 18.6844L6.83528 18.9966L6.7854 19.0826L6.2264 18.7618L6.0458 19.0748L6.60996 19.375L6.52396 19.5177L9.33444 21.1328L9.4557 20.9221L10.0087 21.2403L10.1635 20.9711L9.64748 20.6744L9.7266 20.5368L10.2426 20.8335L10.4198 20.5755ZM7.93952 19.8953L7.2412 19.4936C7.2412 19.4936 7.4304 19.012 7.869 19.221C8.3076 19.43 7.93952 19.8953 7.93952 19.8953ZM9.08504 20.5239L8.48304 20.1799C8.48304 20.1799 8.56904 19.7258 8.98786 19.9168C9.47032 20.1335 9.08504 20.5239 9.08504 20.5239V20.5239Z" fill="#202020"/>
<path opacity="0.4" d="M10.4198 20.5755L9.89774 20.2754C9.76448 20.0128 9.54623 19.803 9.27854 19.6803C8.84854 19.4945 8.61204 19.5882 8.61204 19.5882C8.61204 19.5882 8.60344 19.1634 8.01004 18.8822C7.23604 18.5132 7.10188 18.7532 7.10188 18.7532L6.46376 18.3868L6.29176 18.6844L6.83528 18.9966L6.7854 19.0826L6.2264 18.7618L6.0458 19.0748L6.60996 19.375L6.52396 19.5177L9.33444 21.1328L9.4557 20.9221L10.0087 21.2403L10.1635 20.9711L9.64748 20.6744L9.7266 20.5368L10.2426 20.8335L10.4198 20.5755ZM7.93952 19.8953L7.2412 19.4936C7.2412 19.4936 7.4304 19.012 7.869 19.221C8.3076 19.43 7.93952 19.8953 7.93952 19.8953ZM9.08504 20.5239L8.48304 20.1799C8.48304 20.1799 8.56904 19.7258 8.98786 19.9168C9.47032 20.1335 9.08504 20.5239 9.08504 20.5239V20.5239Z" fill="black"/>
<path d="M10.5479 20.3476L10.0259 20.0475C9.89268 19.785 9.67439 19.5755 9.40668 19.4532C8.97668 19.2674 8.74104 19.3612 8.74104 19.3612C8.74104 19.3612 8.73244 18.9363 8.13904 18.6551C7.36504 18.2853 7.23174 18.5261 7.23174 18.5261L6.59362 18.1589L6.42162 18.4573L6.966 18.7695L6.91612 18.8555L6.35712 18.5339L6.17738 18.8478L6.74154 19.1479L6.65554 19.2898L9.46516 20.9057L9.58642 20.6942L10.1403 21.0124L10.2951 20.7441L9.77906 20.4465L9.85732 20.3098L10.3905 20.6159L10.5479 20.3476ZM8.06852 19.6673L7.3702 19.264C7.3702 19.264 7.55854 18.7824 7.998 18.9905C8.43746 19.1986 8.06852 19.6673 8.06852 19.6673V19.6673ZM9.21404 20.296L8.61204 19.952C8.61204 19.952 8.69804 19.4979 9.116 19.688C9.59932 19.9064 9.21404 20.296 9.21404 20.296Z" fill="#202020"/>
<path d="M4.644 17.5113C4.644 17.5113 4.6698 17.4881 4.73 17.4554C4.75838 17.4391 4.79278 17.4193 4.83578 17.3995C4.87878 17.3797 4.9278 17.3548 4.98542 17.3324C5.30903 17.2012 5.65171 17.1231 6.00022 17.1011C6.24087 17.0843 6.4825 17.0874 6.72262 17.1106C6.99758 17.1391 7.26989 17.1892 7.53704 17.2602C8.14102 17.4318 8.72731 17.6604 9.288 17.943C10.504 18.5167 11.4569 19.3259 11.9712 20.0449C12.2292 20.4061 12.3556 20.7561 12.3754 21.0047C12.3754 21.0356 12.3814 21.064 12.384 21.0907V21.1672C12.385 21.2075 12.3818 21.2479 12.3745 21.2876C12.3734 21.3207 12.3661 21.3534 12.353 21.3839C12.3393 21.3839 12.3642 21.2472 12.3247 21.0098C12.2555 20.6765 12.1081 20.3643 11.8947 20.0991C11.3735 19.4111 10.4327 18.6267 9.22866 18.0626C8.67258 17.7817 8.09231 17.5514 7.4949 17.3746C7.2367 17.3044 6.97369 17.2532 6.708 17.2215C6.47425 17.1947 6.23875 17.186 6.00366 17.1957C5.66236 17.2098 5.32476 17.272 5.0009 17.3806C4.7687 17.458 4.6483 17.5225 4.644 17.5113Z" fill="#FAFAFA"/>
<path opacity="0.4" d="M11.4062 21.2738C11.4062 21.2738 11.954 19.9348 9.0558 18.361C6.1576 16.7872 5.25288 18.146 5.25288 18.146C5.25288 18.146 6.00452 17.022 9.0214 18.6044C11.6487 19.9855 11.4062 21.2738 11.4062 21.2738Z" fill="black"/>
<path d="M10.664 22.8502C10.6468 22.8502 10.6735 22.741 10.7182 22.618C10.7388 22.5401 10.7742 22.4668 10.8222 22.4021C10.8151 22.4823 10.7942 22.5605 10.7603 22.6335C10.7374 22.7095 10.705 22.7823 10.664 22.8502V22.8502Z" fill="#263238"/>
<path d="M11.3804 22.6301C11.3632 22.6301 11.3804 22.5398 11.4191 22.4417C11.4578 22.3437 11.4956 22.2654 11.5051 22.2697C11.5036 22.3349 11.4877 22.3989 11.4586 22.4572C11.4416 22.5185 11.4152 22.5768 11.3804 22.6301Z" fill="#263238"/>
<path d="M10.0328 22.876C10.0402 22.7869 10.0626 22.6997 10.099 22.618C10.1213 22.5325 10.158 22.4514 10.2073 22.3781C10.1998 22.4672 10.1774 22.5543 10.1411 22.6361C10.119 22.7216 10.0823 22.8028 10.0328 22.876V22.876Z" fill="#263238"/>
<path d="M9.41785 22.8081C9.42725 22.7142 9.45164 22.6224 9.49009 22.5363C9.51397 22.4447 9.55261 22.3575 9.60447 22.2783C9.57089 22.4632 9.50788 22.6414 9.41785 22.8063V22.8081Z" fill="#263238"/>
<path d="M8.74878 22.6266C8.75817 22.5327 8.78256 22.441 8.82102 22.3548C8.84532 22.2634 8.88392 22.1763 8.9354 22.0968C8.9256 22.1906 8.90122 22.2823 8.86315 22.3686C8.83908 22.4602 8.80046 22.5473 8.74878 22.6266V22.6266Z" fill="#263238"/>
<path d="M8.13043 22.4065C8.13983 22.3126 8.16422 22.2208 8.20267 22.1347C8.22697 22.0432 8.26558 21.9561 8.31705 21.8767C8.30726 21.9705 8.28288 22.0622 8.24481 22.1484C8.22073 22.24 8.18212 22.3271 8.13043 22.4065V22.4065Z" fill="#263238"/>
<path d="M7.51209 22.188C7.52149 22.0941 7.54588 22.0024 7.58433 21.9162C7.60863 21.8248 7.64724 21.7377 7.69871 21.6582C7.66503 21.8436 7.60203 22.0225 7.51209 22.188Z" fill="#263238"/>
<path d="M6.93159 21.8595C6.94092 21.7657 6.96501 21.674 7.00297 21.5877C7.02749 21.4963 7.06608 21.4093 7.11735 21.3297C7.10803 21.4235 7.08394 21.5152 7.04597 21.6015C7.02146 21.6929 6.98287 21.7799 6.93159 21.8595V21.8595Z" fill="#263238"/>
<path d="M6.35539 21.5181C6.38917 21.333 6.45216 21.1545 6.54201 20.9892C6.53262 21.083 6.50823 21.1748 6.46977 21.2609C6.44539 21.3521 6.40679 21.4389 6.35539 21.5181V21.5181Z" fill="#263238"/>
<path d="M5.78436 21.1612C5.79425 21.0674 5.81862 20.9757 5.85659 20.8894C5.8809 20.7979 5.9195 20.7108 5.97097 20.6314C5.96118 20.7252 5.9368 20.8169 5.89873 20.9032C5.87465 20.9947 5.83604 21.0818 5.78436 21.1612V21.1612Z" fill="#263238"/>
<path d="M5.26147 20.7561C5.29525 20.571 5.35824 20.3925 5.44809 20.2272C5.4382 20.321 5.41383 20.4127 5.37585 20.499C5.35169 20.5902 5.31307 20.677 5.26147 20.7561V20.7561Z" fill="#263238"/>
<path d="M4.75751 20.2565C4.79129 20.0714 4.85428 19.8928 4.94414 19.7276C4.93424 19.8213 4.90987 19.913 4.8719 19.9993C4.84773 20.0906 4.80911 20.1774 4.75751 20.2565V20.2565Z" fill="#263238"/>
<path d="M4.37568 19.6674C4.38239 19.5836 4.40333 19.5016 4.4376 19.4248C4.4589 19.343 4.49441 19.2656 4.54252 19.1961C4.53557 19.279 4.51463 19.3601 4.4806 19.436C4.45981 19.5188 4.42427 19.5972 4.37568 19.6674V19.6674Z" fill="#263238"/>
<path d="M4.09704 19.0533C4.10375 18.9695 4.12469 18.8875 4.15896 18.8108C4.18014 18.7292 4.21566 18.652 4.26388 18.5829C4.25727 18.6667 4.23633 18.7487 4.20196 18.8254C4.18102 18.9071 4.14547 18.9843 4.09704 19.0533Z" fill="#263238"/>
<path d="M7.8733 18.9862C7.85696 19.0206 7.79246 19.0249 7.72366 19.0318C7.65486 19.0387 7.5895 19.043 7.568 19.012C7.55854 18.9965 7.568 18.9716 7.59122 18.9475C7.62542 18.9188 7.66769 18.9014 7.71221 18.8977C7.75672 18.894 7.80129 18.9042 7.83976 18.9269C7.869 18.9458 7.88018 18.9699 7.8733 18.9862Z" fill="#FAFAFA"/>
<path d="M9.10224 19.694C9.07988 19.7241 9.00936 19.7121 8.93024 19.7069C8.85111 19.7018 8.78231 19.7009 8.76597 19.6665C8.75823 19.6502 8.76597 19.6252 8.80209 19.6046C8.84434 19.5804 8.89293 19.5696 8.94145 19.5736C8.98996 19.5776 9.03613 19.5962 9.07386 19.6269C9.10396 19.6545 9.116 19.6803 9.10224 19.694Z" fill="#FAFAFA"/>
<path d="M8.213 18.6921C8.213 18.6998 8.18204 18.6921 8.13904 18.6809L7.96704 18.6156C7.88307 18.5834 7.79684 18.5576 7.70904 18.5382C7.60646 18.5133 7.49979 18.5104 7.396 18.5296C7.37451 18.5338 7.35348 18.5401 7.33322 18.5485C7.31695 18.5552 7.30139 18.5636 7.28678 18.5734L7.2455 18.6052L7.20766 18.5837C6.84818 18.3696 6.58674 18.1882 6.60566 18.1589C6.62458 18.1297 6.91096 18.2647 7.27646 18.4685L7.1982 18.478C7.22369 18.456 7.25279 18.4385 7.2842 18.4264C7.31166 18.4136 7.34053 18.4041 7.3702 18.398C7.49411 18.3744 7.62187 18.3812 7.74258 18.4178C7.83146 18.4455 7.91709 18.4827 7.998 18.5287C8.05577 18.5589 8.11049 18.5946 8.1614 18.6353C8.2001 18.662 8.21816 18.6844 8.213 18.6921Z" fill="#FAFAFA"/>
</svg>
