<?xml version="1.0"?>
<svg xmlns="http://www.w3.org/2000/svg" xmlns:xlink="http://www.w3.org/1999/xlink" xmlns:svgjs="http://svgjs.com/svgjs" version="1.1" width="512" height="512" x="0" y="0" viewBox="0 0 64 64" style="enable-background:new 0 0 512 512" xml:space="preserve" class=""><g><g xmlns="http://www.w3.org/2000/svg" fill="#732de2"><path d="m61 50v8l-7 3v-8z" fill="#727272" data-original="#732de2" style="" class=""/><path d="m61 28v8l-7 3v-8z" fill="#727272" data-original="#732de2" style="" class=""/><path d="m61 6v8l-7 3v-8z" fill="#727272" data-original="#732de2" style="" class=""/></g><path xmlns="http://www.w3.org/2000/svg" d="m61 6-7 3-7-3 7-3z" fill="#3e3e3e" data-original="#f4b34a" style="" class=""/><path xmlns="http://www.w3.org/2000/svg" d="m54 25 7 3-7 3-7-3z" fill="#3e3e3e" data-original="#f4b34a" style="" class=""/><path xmlns="http://www.w3.org/2000/svg" d="m54 47 7 3-7 3-7-3z" fill="#3e3e3e" data-original="#f4b34a" style="" class=""/><path xmlns="http://www.w3.org/2000/svg" d="m47 50 7 3v8l-7-3z" fill="#bababa" data-original="#e58842" style="" class=""/><path xmlns="http://www.w3.org/2000/svg" d="m47 28 7 3v8l-7-3z" fill="#bababa" data-original="#e58842" style="" class=""/><path xmlns="http://www.w3.org/2000/svg" d="m47 6 7 3v8l-7-3z" fill="#bababa" data-original="#e58842" style="" class=""/><path xmlns="http://www.w3.org/2000/svg" d="m39 58-7 3v-8l7-3z" fill="#727272" data-original="#732de2" style="" class=""/><path xmlns="http://www.w3.org/2000/svg" d="m39 36-7 3v-8l7-3z" fill="#727272" data-original="#732de2" style="" class=""/><path xmlns="http://www.w3.org/2000/svg" d="m39 14-7 3v-8l7-3z" fill="#727272" data-original="#732de2" style="" class=""/><path xmlns="http://www.w3.org/2000/svg" d="m39 6-7 3-7-3 7-3z" fill="#3e3e3e" data-original="#f4b34a" style="" class=""/><path xmlns="http://www.w3.org/2000/svg" d="m32 25 7 3-7 3-7-3z" fill="#3e3e3e" data-original="#f4b34a" style="" class=""/><path xmlns="http://www.w3.org/2000/svg" d="m32 47 7 3-7 3-7-3z" fill="#3e3e3e" data-original="#f4b34a" style="" class=""/><path xmlns="http://www.w3.org/2000/svg" d="m25 50 7 3v8l-7-3z" fill="#bababa" data-original="#e58842" style="" class=""/><path xmlns="http://www.w3.org/2000/svg" d="m25 28 7 3v8l-7-3z" fill="#bababa" data-original="#e58842" style="" class=""/><path xmlns="http://www.w3.org/2000/svg" d="m25 6 7 3v8l-7-3z" fill="#bababa" data-original="#e58842" style="" class=""/><path xmlns="http://www.w3.org/2000/svg" d="m17 58-7 3v-8l7-3z" fill="#727272" data-original="#732de2" style="" class=""/><path xmlns="http://www.w3.org/2000/svg" d="m17 36-7 3v-8l7-3z" fill="#727272" data-original="#732de2" style="" class=""/><path xmlns="http://www.w3.org/2000/svg" d="m17 14-7 3v-8l7-3z" fill="#727272" data-original="#732de2" style="" class=""/><path xmlns="http://www.w3.org/2000/svg" d="m17 6-7 3-7-3 7-3z" fill="#3e3e3e" data-original="#f4b34a" style="" class=""/><path xmlns="http://www.w3.org/2000/svg" d="m10 25 7 3-7 3-7-3z" fill="#3e3e3e" data-original="#f4b34a" style="" class=""/><path xmlns="http://www.w3.org/2000/svg" d="m10 47 7 3-7 3-7-3z" fill="#3e3e3e" data-original="#f4b34a" style="" class=""/><path xmlns="http://www.w3.org/2000/svg" d="m10 53v8l-7-3v-8z" fill="#bababa" data-original="#e58842" style="" class=""/><path xmlns="http://www.w3.org/2000/svg" d="m10 31v8l-7-3v-8z" fill="#bababa" data-original="#e58842" style="" class=""/><path xmlns="http://www.w3.org/2000/svg" d="m10 9v8l-7-3v-8z" fill="#bababa" data-original="#e58842" style="" class=""/><path xmlns="http://www.w3.org/2000/svg" d="m61.394 14.919c.368-.157.606-.519.606-.919v-8c0-.4-.238-.762-.606-.919l-7-3c-.25-.107-.537-.107-.787 0l-7 3c-.369.157-.607.519-.607.919v4h-6v-4c0-.4-.238-.762-.606-.919l-7-3c-.25-.107-.537-.107-.787 0l-7 3c-.369.157-.607.519-.607.919v4h-6v-4c0-.4-.238-.762-.606-.919l-7-3c-.25-.107-.537-.107-.787 0l-7 3c-.369.157-.607.519-.607.919v8c0 .4.238.762.606.919l6.394 2.74v6.682l-6.394 2.74c-.368.157-.606.519-.606.919v8c0 .4.238.762.606.919l6.394 2.74v6.682l-6.394 2.74c-.368.157-.606.519-.606.919v8c0 .4.238.762.606.919l7 3c.125.054.26.081.394.081s.269-.027.394-.081l7-3c.368-.157.606-.519.606-.919v-2h6v2c0 .4.238.762.606.919l7 3c.125.054.26.081.394.081s.269-.027.394-.081l7-3c.368-.157.606-.519.606-.919v-2h6v2c0 .4.238.762.606.919l7 3c.125.054.26.081.394.081s.269-.027.394-.081l7-3c.368-.157.606-.519.606-.919v-8c0-.4-.238-.762-.606-.919l-6.394-2.74v-6.682l6.394-2.74c.368-.157.606-.519.606-.919v-8c0-.4-.238-.762-.606-.919l-6.394-2.74v-6.682zm-6.394.565v-5.825l5-2.143v5.825zm-1-11.396 4.461 1.912-4.461 1.912-4.461-1.912zm-6 3.428 5 2.143v5.825l-5-2.143v-1.341h2v-2h-2zm-2 4.484v2c0 .4.238.762.606.919l6.394 2.74v6.682l-6.394 2.74c-.368.157-.606.519-.606.919v4h-6v-4c0-.4-.238-.762-.606-.919l-6.394-2.74v-6.682l6.394-2.74c.368-.157.606-.519.606-.919v-2zm7 25.484-5-2.143v-1.341h2v-2h-2v-2.484l5 2.143zm-15-3.484v1.341l-5 2.143v-5.825l5-2.143v2.484h-2v2zm-6 17.912-4.461-1.912 3.461-1.483v1.483h2v-1.483l3.461 1.483zm-6-17.912h2v-2h-2v-2.484l5 2.143v5.825l-5-2.143zm7-6v-1.483l3.461 1.483-4.461 1.912-4.461-1.912 3.461-1.483v1.483zm5-16v1.341l-5 2.143v-5.825l5-2.143v2.484h-2v2zm-6-7.912 4.461 1.912-4.461 1.912-4.461-1.912zm-6 3.428 5 2.143v5.825l-5-2.143v-1.341h2v-2h-2zm-2 4.484v2c0 .4.238.762.606.919l6.394 2.74v6.682l-6.394 2.74c-.368.157-.606.519-.606.919v4h-6v-4c0-.4-.238-.762-.606-.919l-6.394-2.74v-6.682l6.394-2.74c.368-.157.606-.519.606-.919v-2zm-8 22v1.341l-5 2.143v-5.825l5-2.143v2.484h-2v2zm0-22v1.341l-5 2.143v-5.825l5-2.143v2.484h-2v2zm-6-7.912 4.461 1.912-4.461 1.912-4.461-1.912zm-6 3.428 5 2.143v5.825l-5-2.143zm5 19.001v1.483h2v-1.483l3.461 1.483-4.461 1.912-4.461-1.912zm-5 2.999 5 2.143v5.825l-5-2.143zm5 19.001v1.483h2v-1.483l3.461 1.483-4.461 1.912-4.461-1.912zm-5 2.999 5 2.143v5.825l-5-2.143zm12 5.825-5 2.143v-5.825l5-2.143v2.484h-2v2h2zm2-3.341v-4c0-.4-.238-.762-.606-.919l-6.394-2.74v-6.682l6.394-2.74c.368-.157.606-.519.606-.919v-2h6v2c0 .4.238.762.606.919l6.394 2.74v6.682l-6.394 2.74c-.368.157-.606.519-.606.919v4zm8 2h2v-2h-2v-2.484l5 2.143v5.825l-5-2.143zm12 1.341-5 2.143v-5.825l5-2.143v2.484h-2v2h2zm2-3.341v-4c0-.4-.238-.762-.606-.919l-6.394-2.74v-6.682l6.394-2.74c.368-.157.606-.519.606-.919v-2h6v2c0 .4.238.762.606.919l6.394 2.74v6.682l-6.394 2.74c-.368.157-.606.519-.606.919v4zm8 2h2v-2h-2v-2.484l5 2.143v5.825l-5-2.143zm7 3.484v-5.825l5-2.143v5.825zm3.461-9.484-4.461 1.912-4.461-1.912 3.461-1.483v1.483h2v-1.483zm-3.461-12.516v-5.825l5-2.143v5.825zm3.461-9.484-4.461 1.912-4.461-1.912 3.461-1.483v1.483h2v-1.483z" fill="#202020" data-original="#0b052b" style="" class=""/></g></svg>
