<svg width="50" height="50" viewBox="0 0 50 50" fill="none" xmlns="http://www.w3.org/2000/svg">
<path d="M37.0967 25.0001C43.7775 25.0001 49.1934 19.5842 49.1934 12.9034C49.1934 6.22252 43.7775 0.806641 37.0967 0.806641C30.4159 0.806641 25 6.22252 25 12.9034C25 19.5842 30.4159 25.0001 37.0967 25.0001Z" fill="#F7931A"/>
<path d="M37.0968 21.7743C41.9961 21.7743 45.9677 17.8026 45.9677 12.9033C45.9677 8.00406 41.9961 4.03241 37.0968 4.03241C32.1975 4.03241 28.2259 8.00406 28.2259 12.9033C28.2259 17.8026 32.1975 21.7743 37.0968 21.7743Z" fill="white"/>
<path d="M12.9033 49.1935C19.5842 49.1935 25 43.7776 25 37.0968C25 30.4159 19.5842 25.0001 12.9033 25.0001C6.22252 25.0001 0.806648 30.4159 0.806648 37.0968C0.806648 43.7776 6.22252 49.1935 12.9033 49.1935Z" fill="#F7931A"/>
<path d="M12.9033 45.9677C17.8026 45.9677 21.7743 41.9961 21.7743 37.0968C21.7743 32.1975 17.8026 28.2259 12.9033 28.2259C8.00408 28.2259 4.03244 32.1975 4.03244 37.0968C4.03244 41.9961 8.00408 45.9677 12.9033 45.9677Z" fill="white"/>
<path d="M12.9033 46.7742V45.1613C17.3501 45.1613 20.9678 41.5436 20.9678 37.0968H22.5807C22.5807 42.4331 18.2396 46.7742 12.9033 46.7742Z" fill="#F9D18B"/>
<path d="M4.8389 37.0968H3.22601C3.22601 31.7606 7.56711 27.4194 12.9034 27.4194V29.0323C8.45662 29.0323 4.8389 32.6501 4.8389 37.0968Z" fill="#F9D18B"/>
<path d="M15.8211 37.0968C16.4985 36.5049 16.9356 35.646 16.9356 34.6775C16.9356 33.1783 15.9033 31.9267 14.5162 31.5662V29.8388H12.9033V31.4517H12.0969V29.8388H10.484V31.4517H8.87111V33.0646H9.67756V41.1291H8.87111V42.742H10.484V44.3548H12.0969V42.742H12.9033V44.3548H14.5162V42.6274C15.9033 42.267 16.9356 41.0153 16.9356 39.5162C16.9356 38.5476 16.4985 37.6888 15.8211 37.0968ZM13.7098 33.0646C14.5993 33.0646 15.3227 33.788 15.3227 34.6775C15.3227 35.567 14.5993 36.2904 13.7098 36.2904H11.2904V33.0646H13.7098ZM13.7098 41.1291H11.2904V37.9033H13.7098C14.5993 37.9033 15.3227 38.6266 15.3227 39.5162C15.3227 40.4057 14.5993 41.1291 13.7098 41.1291Z" fill="#F7931A"/>
<path d="M37.0968 22.5807V20.9678C41.5435 20.9678 45.1612 17.3501 45.1612 12.9033H46.7741C46.7741 18.2396 42.433 22.5807 37.0968 22.5807Z" fill="#F9D18B"/>
<path d="M29.0323 12.9034H27.4194C27.4194 7.56709 31.7605 3.22598 37.0968 3.22598V4.83888C32.65 4.83888 29.0323 8.4566 29.0323 12.9034Z" fill="#F9D18B"/>
<path d="M49.7636 24.43L46.5378 21.2042L45.3975 22.3445L48.0531 25.0001L38.1395 34.9138L39.2798 36.0541L49.7636 25.5703C50.0789 25.2549 50.0789 24.7453 49.7636 24.43Z" fill="#9E9CA7"/>
<path d="M10.7203 13.9461L0.23649 24.4299C-0.0788301 24.7452 -0.0788301 25.2549 0.23649 25.5702L3.46227 28.796L4.60259 27.6557L1.94696 25.0001L11.8606 15.0864L10.7203 13.9461Z" fill="#9E9CA7"/>
<path d="M25 1.94697L27.6557 4.6026L28.796 3.46228L25.5702 0.236491C25.2549 -0.0788303 24.7452 -0.0788303 24.4299 0.236491L13.7098 10.9566V7.25823H12.0969V12.9034C12.0969 13.3493 12.4582 13.7098 12.9033 13.7098H18.5485V12.0969H14.8501L25 1.94697Z" fill="#9E9CA7"/>
<path d="M37.0967 36.2904H31.4516V37.9033H35.1499L25 48.0532L21.9412 44.9944L20.8009 46.1347L24.4299 49.7637C24.5871 49.921 24.7936 50 25 50C25.2065 50 25.4129 49.921 25.5702 49.7637L36.2903 39.0436V42.742H37.9032V37.0968C37.9032 36.6509 37.5419 36.2904 37.0967 36.2904Z" fill="#9E9CA7"/>
<path d="M37.0968 12.0969C36.2073 12.0969 35.4839 11.3735 35.4839 10.484C35.4839 9.59447 36.2073 8.87108 37.0968 8.87108C37.9863 8.87108 38.7097 9.59447 38.7097 10.484H40.3226C40.3226 8.98479 39.2903 7.73319 37.9032 7.37271V5.64529H36.2903V7.37271C34.9032 7.73319 33.871 8.98479 33.871 10.484C33.871 12.263 35.3178 13.7098 37.0968 13.7098C37.9863 13.7098 38.7097 14.4332 38.7097 15.3227C38.7097 16.2122 37.9863 16.9356 37.0968 16.9356C36.2073 16.9356 35.4839 16.2122 35.4839 15.3227H33.871C33.871 16.8219 34.9032 18.0735 36.2903 18.4339V20.1614H37.9032V18.4339C39.2903 18.0735 40.3226 16.8219 40.3226 15.3227C40.3226 13.5436 38.8758 12.0969 37.0968 12.0969Z" fill="#F7931A"/>
<path d="M12.9032 49.9999C5.78872 49.9999 4.57764e-05 44.2113 4.57764e-05 37.0968C4.57764e-05 29.9823 5.78872 24.1936 12.9032 24.1936C20.0176 24.1936 25.8063 29.9823 25.8063 37.0968C25.8063 44.2113 20.0176 49.9999 12.9032 49.9999ZM12.9032 25.8065C6.67742 25.8065 1.61294 30.871 1.61294 37.0968C1.61294 43.3226 6.67742 48.387 12.9032 48.387C19.1289 48.387 24.1934 43.3226 24.1934 37.0968C24.1934 30.871 19.1289 25.8065 12.9032 25.8065Z" fill="#F9D18B"/>
<path d="M37.0967 25.8064C29.9823 25.8064 24.1936 20.0177 24.1936 12.9032C24.1936 5.78874 29.9823 6.10352e-05 37.0967 6.10352e-05C44.2112 6.10352e-05 49.9999 5.78874 49.9999 12.9032C49.9999 20.0177 44.2112 25.8064 37.0967 25.8064ZM37.0967 1.61296C30.871 1.61296 25.8065 6.67745 25.8065 12.9032C25.8065 19.129 30.871 24.1935 37.0967 24.1935C43.3225 24.1935 48.387 19.129 48.387 12.9032C48.387 6.67745 43.3225 1.61296 37.0967 1.61296Z" fill="#F9D18B"/>
</svg>
