<svg id="Layer_3" enable-background="new 0 0 64 64" height="512" viewBox="0 0 64 64" width="512" xmlns="http://www.w3.org/2000/svg"><g><circle cx="47" cy="17" fill="#f5b953" r="15"/><circle cx="47" cy="17" fill="#fff" r="11"/><circle cx="17" cy="47" fill="#f5b953" r="15"/><circle cx="17" cy="47" fill="#fff" r="11"/><g><path d="m17 59v-2c5.514 0 10-4.486 10-10h2c0 6.617-5.383 12-12 12z" fill="#f9d18b"/></g><g><path d="m7 47h-2c0-6.617 5.383-12 12-12v2c-5.514 0-10 4.486-10 10z" fill="#f9d18b"/></g><path d="m20.618 47c.84-.734 1.382-1.799 1.382-3 0-1.859-1.28-3.411-3-3.858v-2.142h-2v2h-1v-2h-2v2h-2v2h1v10h-1v2h2v2h2v-2h1v2h2v-2.142c1.72-.447 3-1.999 3-3.858 0-1.201-.542-2.266-1.382-3zm-2.618-5c1.103 0 2 .897 2 2s-.897 2-2 2h-3v-4zm0 10h-3v-4h3c1.103 0 2 .897 2 2s-.897 2-2 2z" fill="#f5b953"/><g><path d="m47 29v-2c5.514 0 10-4.486 10-10h2c0 6.617-5.383 12-12 12z" fill="#f9d18b"/></g><g><path d="m37 17h-2c0-6.617 5.383-12 12-12v2c-5.514 0-10 4.486-10 10z" fill="#f9d18b"/></g><g fill="#4d5d7a"><path d="m62.707 31.293-4-4-1.414 1.414 3.293 3.293-12.293 12.293 1.414 1.414 13-13c.391-.391.391-1.023 0-1.414z"/><path d="m14.293 18.293-13 13c-.391.391-.391 1.023 0 1.414l4 4 1.414-1.414-3.293-3.293 12.293-12.293z"/><path d="m32 3.414 3.293 3.293 1.414-1.414-4-4c-.391-.391-1.023-.391-1.414 0l-13.293 13.293v-4.586h-2v7c0 .553.448 1 1 1h7v-2h-4.586z"/><path d="m47 46h-7v2h4.586l-12.586 12.586-3.793-3.793-1.414 1.414 4.5 4.5c.195.195.451.293.707.293s.512-.098.707-.293l13.293-13.293v4.586h2v-7c0-.553-.448-1-1-1z"/></g><path d="m47 16c-1.103 0-2-.897-2-2s.897-2 2-2 2 .897 2 2h2c0-1.859-1.28-3.411-3-3.858v-2.142h-2v2.142c-1.72.447-3 1.999-3 3.858 0 2.206 1.794 4 4 4 1.103 0 2 .897 2 2s-.897 2-2 2-2-.897-2-2h-2c0 1.859 1.28 3.411 3 3.858v2.142h2v-2.142c1.72-.447 3-1.999 3-3.858 0-2.206-1.794-4-4-4z" fill="#f5b953"/><g><path d="m17 63c-8.822 0-16-7.178-16-16s7.178-16 16-16 16 7.178 16 16-7.178 16-16 16zm0-30c-7.72 0-14 6.28-14 14s6.28 14 14 14 14-6.28 14-14-6.28-14-14-14z" fill="#f9d18b"/></g><g><path d="m47 33c-8.822 0-16-7.178-16-16s7.178-16 16-16 16 7.178 16 16-7.178 16-16 16zm0-30c-7.72 0-14 6.28-14 14s6.28 14 14 14 14-6.28 14-14-6.28-14-14-14z" fill="#f9d18b"/></g></g></svg>