<?xml version="1.0"?>
<svg xmlns="http://www.w3.org/2000/svg" xmlns:xlink="http://www.w3.org/1999/xlink" xmlns:svgjs="http://svgjs.com/svgjs" version="1.1" width="512" height="512" x="0" y="0" viewBox="0 0 512 512" style="enable-background:new 0 0 512 512" xml:space="preserve" class=""><g><g xmlns="http://www.w3.org/2000/svg"><g><g><path d="m407.199 81.977c-1.916 0-3.831-.731-5.293-2.193-2.923-2.923-2.923-7.663.001-10.586l17.269-17.268c2.923-2.922 7.663-2.923 10.586.001 2.923 2.923 2.923 7.663-.001 10.586l-17.269 17.268c-1.462 1.461-3.378 2.192-5.293 2.192z" fill="#faa61a" data-original="#faa61a" style=""/></g><g><path d="m302.724 39.391c-4.134 0-7.485-3.351-7.485-7.485v-24.421c0-4.134 3.351-7.485 7.485-7.485s7.485 3.351 7.485 7.485v24.421c0 4.134-3.351 7.485-7.485 7.485z" fill="#faa61a" data-original="#faa61a" style=""/></g><g><path d="m198.247 81.977c-1.915 0-3.831-.731-5.292-2.192l-17.269-17.268c-2.924-2.923-2.924-7.663-.001-10.586 2.924-2.924 7.664-2.923 10.586-.001l17.269 17.268c2.924 2.923 2.924 7.663.001 10.586-1.462 1.462-3.379 2.193-5.294 2.193z" fill="#faa61a" data-original="#faa61a" style=""/></g><g><path d="m180.979 308.827c-1.916 0-3.831-.731-5.293-2.193-2.923-2.923-2.923-7.663.001-10.586l17.269-17.268c2.923-2.923 7.663-2.922 10.586.001s2.923 7.663-.001 10.586l-17.269 17.268c-1.462 1.461-3.378 2.192-5.293 2.192z" fill="#faa61a" data-original="#faa61a" style=""/></g><g><path d="m424.468 308.827c-1.915 0-3.831-.731-5.292-2.192l-17.269-17.268c-2.924-2.923-2.924-7.663-.001-10.586 2.924-2.924 7.664-2.923 10.586-.001l17.269 17.268c2.924 2.923 2.924 7.663.001 10.586-1.463 1.462-3.379 2.193-5.294 2.193z" fill="#faa61a" data-original="#faa61a" style=""/></g><g><path d="m154.97 186.132h-24.42c-4.134 0-7.485-3.351-7.485-7.485s3.351-7.485 7.485-7.485h24.421c4.134 0 7.485 3.351 7.485 7.485s-3.351 7.485-7.486 7.485z" fill="#faa61a" data-original="#faa61a" style=""/></g><g><path d="m474.498 186.132h-24.421c-4.134 0-7.485-3.351-7.485-7.485s3.351-7.485 7.485-7.485h24.421c4.134 0 7.485 3.351 7.485 7.485s-3.351 7.485-7.485 7.485z" fill="#faa61a" data-original="#faa61a" style=""/></g><g><circle cx="302.723" cy="179.007" fill="#fba615" r="113.149" data-original="#fba615" style="" class=""/></g><g><path d="m361.321 82.195c10.367 17.092 16.337 37.148 16.337 58.598 0 62.491-50.659 113.149-113.149 113.149-21.45 0-41.506-5.97-58.598-16.337 19.836 32.701 55.772 54.551 96.812 54.551 62.491 0 113.149-50.659 113.149-113.149 0-41.04-21.85-76.977-54.551-96.812z" fill="#f88604" data-original="#f88604" style=""/></g><g><path d="m302.724 299.641c-66.518 0-120.635-54.116-120.635-120.634s54.116-120.635 120.635-120.635 120.634 54.117 120.634 120.635-54.116 120.634-120.634 120.634zm0-226.299c-58.264 0-105.664 47.401-105.664 105.664s47.401 105.663 105.664 105.663 105.663-47.401 105.663-105.663c0-58.263-47.401-105.664-105.663-105.664z" fill="#ffeccf" data-original="#ffeccf" style="" class=""/></g><path d="m345.772 201.966c0-11.954-6.359-22.449-15.87-28.286 4.54-5.181 7.302-11.959 7.302-19.374 0-10.709-5.749-20.098-14.321-25.25v-17.439c0-4.134-3.351-7.485-7.485-7.485s-7.485 3.351-7.485 7.485v13.253c-.049 0-.097-.004-.146-.004h-12.093v-13.249c0-4.134-3.351-7.485-7.485-7.485s-7.485 3.351-7.485 7.485v13.249h-.65c-4.134 0-7.485 3.351-7.485 7.485v95.407c0 1.991.793 3.9 2.204 5.305 1.403 1.397 3.302 2.18 5.282 2.18h.033c.022 0 .245-.001.617-.003v11.704c0 4.134 3.351 7.485 7.485 7.485s7.485-3.351 7.485-7.485v-11.765c4.321-.017 8.766-.032 12.24-.041v11.807c0 4.134 3.351 7.485 7.485 7.485s7.485-3.351 7.485-7.485v-13.452c13.27-4.335 22.887-16.825 22.887-31.527zm-23.538-47.659c0 7.977-6.49 14.468-14.468 14.468-2.052 0-20.229.026-20.229.026v-28.962h20.229c7.978-.001 14.468 6.489 14.468 14.468zm-9.628 65.855c-4.551 0-16.944.048-25.069.081v-36.433c3.065-.013 25.069-.039 25.069-.039 10.033 0 18.196 8.163 18.196 18.196s-8.163 18.195-18.196 18.195z" fill="#ffeccf" data-original="#ffeccf" style="" class=""/></g><g><g><g><path d="m285.489 507.547-87.601-41.527c-7.349-3.484-15.38-5.291-23.513-5.291h-84.732l.538-65.589 195.679 1.023 49.99 38.706 110.495-57.903 21.693-11.368c11.56-6.058 25.835-2.165 32.72 8.922 7.373 11.873 3.536 27.488-8.502 34.591l-18.864 11.131-144.64 85.348c-13.203 7.791-29.41 8.524-43.263 1.957z" fill="#767676" data-original="#fdad9d" style="" class=""/></g></g><g><g><g><path d="m500.757 374.52c-6.885-11.087-21.161-14.979-32.72-8.922l-21.693 11.368c10.68-1.539 21.677 3.24 27.671 12.892 6.007 9.673 5.362 21.56-.623 30.384l18.864-11.131c12.037-7.103 15.875-22.717 8.501-34.591z" fill="#818181" data-original="#f59380" style="" class=""/></g></g></g><g><g><path d="m333.716 458.513-32.212-29.921c-10.634-10.69-25.09-16.7-40.169-16.7h-133.58v-69.453l135.919.412c22.631.069 44.271 9.294 59.99 25.575l49.525 50.614c10.9 10.9 10.9 28.573 0 39.473-10.9 10.9-28.573 10.9-39.473 0z" fill="#a7a7a7" data-original="#ffcbbe" style="" class=""/></g></g><g><g><path d="m144.706 474.527h-125.887c-6.256 0-11.328-5.072-11.328-11.328v-123.537c0-6.256 5.072-11.328 11.328-11.328h125.887c6.256 0 11.328 5.072 11.328 11.328v123.537c0 6.256-5.072 11.328-11.328 11.328z" fill="#b1abb5" data-original="#b1abb5" style="" class=""/></g></g><g><g><path d="m144.449 328.334h-36.869v120.161c0 6.398-5.186 11.584-11.584 11.584h-88.505v2.863c0 6.398 5.186 11.584 11.584 11.584h125.375c6.398 0 11.584-5.186 11.584-11.584v-123.024c0-6.398-5.187-11.584-11.585-11.584z" fill="#786e79" data-original="#786e79" style="" class=""/></g></g></g></g></g></svg>
