<svg width="50" height="50" viewBox="0 0 50 50" fill="none" xmlns="http://www.w3.org/2000/svg">
<path d="M28.3015 26.9198H49.4632V31.5358H28.3015V26.9198Z" fill="#767676"/>
<path d="M49.4632 26.9198H28.3015V23.319C28.3015 22.7583 28.7633 22.3037 29.3327 22.3037H48.432C49.0016 22.3037 49.4632 22.7584 49.4632 23.319V26.9198Z" fill="#9E9CA7"/>
<path d="M28.3015 31.5359H49.4632V36.152H28.3015V31.5359Z" fill="#9E9CA7"/>
<path d="M28.3015 36.1519H49.4632V40.768H28.3015V36.1519Z" fill="#767676"/>
<path d="M28.3015 40.7679H49.4632V45.384H28.3015V40.7679Z" fill="#9E9CA7"/>
<path d="M48.5335 50H29.2312C28.7178 50 28.3015 49.5902 28.3015 49.0846V45.3839H49.4632V49.0846C49.4632 49.5902 49.047 50 48.5335 50Z" fill="#767676"/>
<path d="M22.8435 40.4602H1.68184V36.871C1.68184 36.3039 2.14873 35.8441 2.72471 35.8441H21.8006C22.3766 35.8441 22.8435 36.3039 22.8435 36.871V40.4602Z" fill="#9E9CA7"/>
<path d="M1.68184 40.4602H22.8435V45.0762H1.68184V40.4602Z" fill="#767676"/>
<path d="M21.8006 49.6923H2.72471C2.14873 49.6923 1.68184 49.2326 1.68184 48.6655V45.0762H22.8435V48.6655C22.8435 49.2325 22.3766 49.6923 21.8006 49.6923Z" fill="#9E9CA7"/>
<path d="M38.6735 22.2596C44.929 22.2596 50 17.2766 50 11.1298C50 4.98298 44.929 0 38.6735 0C32.4181 0 27.3471 4.98298 27.3471 11.1298C27.3471 17.2766 32.4181 22.2596 38.6735 22.2596Z" fill="#F7931A"/>
<path d="M43.119 0.890373C44.1757 2.5822 44.7853 4.57268 44.7853 6.70316C44.7853 12.85 39.7143 17.833 33.4588 17.833C31.8807 17.833 30.3782 17.5155 29.0133 16.9425C31.0051 20.1319 34.5863 22.2595 38.6735 22.2595C44.929 22.2596 50 17.2765 50 11.1298C50 6.53364 47.1647 2.58855 43.119 0.890373V0.890373Z" fill="#FE7D43"/>
<path d="M38.6736 19.4161C43.3315 19.4161 47.1074 15.7062 47.1074 11.1298C47.1074 6.55338 43.3315 2.84345 38.6736 2.84345C34.0158 2.84345 30.2398 6.55338 30.2398 11.1298C30.2398 15.7062 34.0158 19.4161 38.6736 19.4161Z" fill="#FEE45A"/>
<path d="M44.7008 5.34164C44.7563 5.78799 44.7853 6.24222 44.7853 6.70328C44.7853 12.7645 39.8544 17.6937 33.7193 17.8298C35.1114 18.8263 36.8233 19.4162 38.6735 19.4162C43.3239 19.4162 47.1073 15.699 47.1073 11.1297C47.1073 8.87914 46.1882 6.83645 44.7008 5.34164Z" fill="#FED230"/>
<path d="M43.149 13.0784C43.149 12.0823 42.6106 11.2077 41.8054 10.7211C42.1611 10.2575 42.3724 9.68047 42.3724 9.05499C42.3724 7.79633 41.5128 6.7322 40.341 6.39922V5.80566C40.341 5.38893 39.9977 5.05114 39.5741 5.05114C39.1506 5.05114 38.8072 5.38893 38.8072 5.80566V6.29047H37.6525V5.80566C37.6525 5.38893 37.3093 5.05114 36.8856 5.05114C36.4621 5.05114 36.1187 5.38893 36.1187 5.80566V6.29047H34.9649C34.5414 6.29047 34.198 6.62826 34.198 7.04499C34.198 7.46172 34.5413 7.79951 34.9649 7.79951H35.4038V11.0684V14.3374H34.9649C34.5414 14.3374 34.198 14.6752 34.198 15.0919C34.198 15.5086 34.5413 15.8464 34.9649 15.8464H36.1187V16.3313C36.1187 16.7481 36.462 17.0859 36.8856 17.0859C37.3092 17.0859 37.6525 16.7481 37.6525 16.3313V15.8464H38.8072V16.3313C38.8072 16.7481 39.1505 17.0859 39.5741 17.0859C39.9976 17.0859 40.341 16.7481 40.341 16.3313V15.8463C41.8894 15.8456 43.149 14.6059 43.149 13.0784ZM40.8387 9.05864C40.8387 9.75076 40.2663 10.3139 39.5629 10.3139H36.9377V7.79951H39.5629C40.2663 7.79951 40.8387 8.36268 40.8387 9.05864ZM40.3394 14.3374H36.9377V11.823H39.5629H40.3394C41.0429 11.823 41.6152 12.3861 41.6152 13.0821C41.6152 13.7742 41.0429 14.3374 40.3394 14.3374Z" fill="#F7931A"/>
<path d="M12.2627 35.6954C19.0352 35.6954 24.5254 30.3024 24.5254 23.6498C24.5254 16.9972 19.0352 11.6042 12.2627 11.6042C5.4902 11.6042 0 16.9972 0 23.6498C0 30.3024 5.4902 35.6954 12.2627 35.6954Z" fill="#F7931A"/>
<path d="M15.5282 12.0369C17.1916 14.093 18.1858 16.6948 18.1858 19.5251C18.1858 26.1777 12.6956 31.5707 5.92315 31.5707C4.79219 31.5707 3.69737 31.4195 2.65752 31.138C4.90401 33.9146 8.37139 35.6954 12.2626 35.6954C19.0351 35.6954 24.5253 30.3024 24.5253 23.6498C24.5253 18.1082 20.7153 13.4412 15.5282 12.0369V12.0369Z" fill="#FE7D43"/>
<path d="M12.2627 32.618C17.3056 32.618 21.3937 28.6028 21.3937 23.6498C21.3937 18.6968 17.3056 14.6816 12.2627 14.6816C7.21981 14.6816 3.13174 18.6968 3.13174 23.6498C3.13174 28.6028 7.21981 32.618 12.2627 32.618Z" fill="#FEE45A"/>
<path d="M17.8027 16.5262C18.0528 17.4849 18.1859 18.4897 18.1859 19.5251C18.1859 25.5711 13.6512 30.5761 7.74053 31.4388C9.07452 32.1889 10.6185 32.6181 12.2626 32.6181C17.2974 32.6181 21.3936 28.595 21.3936 23.6499C21.3936 20.7493 19.9839 18.1664 17.8027 16.5262V16.5262Z" fill="#FED230"/>
<path d="M14.5466 27.4398H10.6524L11.5734 23.981L13.2892 23.4851C13.6955 23.3676 13.9281 22.9483 13.8088 22.5485C13.6893 22.1487 13.2636 21.9197 12.8568 22.0372L12.0272 22.277L13.1937 17.8962C13.301 17.4931 13.0559 17.0807 12.6462 16.9751C12.2367 16.8695 11.8174 17.1107 11.7101 17.5138L10.3096 22.7735L8.46788 23.3058C8.06153 23.4233 7.82891 23.8426 7.94825 24.2424C8.04649 24.5713 8.35215 24.7844 8.68379 24.7844C8.75528 24.7844 8.82813 24.7745 8.9003 24.7537L9.85586 24.4775L8.91709 28.0033C8.85684 28.2294 8.90665 28.4703 9.05176 28.6554C9.19688 28.8405 9.4212 28.949 9.65889 28.949H14.5467C14.9702 28.949 15.3136 28.6112 15.3136 28.1944C15.3135 27.7776 14.9701 27.4398 14.5466 27.4398V27.4398Z" fill="#F7931A"/>
</svg>
