<svg width="30" height="30" viewBox="0 0 30 30" fill="none" xmlns="http://www.w3.org/2000/svg">
<path d="M16.9809 16.1519H29.6779V18.9215H16.9809V16.1519Z" fill="#767676"/>
<path d="M29.6779 16.1519H16.9809V13.9914C16.9809 13.655 17.258 13.3822 17.5996 13.3822H29.0592C29.4009 13.3822 29.6779 13.655 29.6779 13.9914V16.1519Z" fill="#9E9CA7"/>
<path d="M16.9809 18.9215H29.6779V21.6912H16.9809V18.9215Z" fill="#9E9CA7"/>
<path d="M16.9809 21.6912H29.6779V24.4608H16.9809V21.6912Z" fill="#767676"/>
<path d="M16.9809 24.4607H29.6779V27.2304H16.9809V24.4607Z" fill="#9E9CA7"/>
<path d="M29.1201 30H17.5387C17.2307 30 16.9809 29.7541 16.9809 29.4508V27.2304H29.6779V29.4508C29.6779 29.7541 29.4282 30 29.1201 30Z" fill="#767676"/>
<path d="M13.7061 24.2761H1.0091V22.1226C1.0091 21.7823 1.28924 21.5065 1.63482 21.5065H13.0804C13.4259 21.5065 13.7061 21.7823 13.7061 22.1226V24.2761Z" fill="#9E9CA7"/>
<path d="M1.0091 24.2761H13.7061V27.0457H1.0091V24.2761Z" fill="#767676"/>
<path d="M13.0804 29.8154H1.63482C1.28924 29.8154 1.0091 29.5395 1.0091 29.1993V27.0457H13.7061V29.1993C13.7061 29.5395 13.4259 29.8154 13.0804 29.8154Z" fill="#9E9CA7"/>
<path d="M23.2041 13.3558C26.9574 13.3558 30 10.366 30 6.67788C30 2.98979 26.9574 0 23.2041 0C19.4509 0 16.4082 2.98979 16.4082 6.67788C16.4082 10.366 19.4509 13.3558 23.2041 13.3558Z" fill="#FD9468"/>
<path d="M25.8714 0.534225C26.5054 1.54932 26.8712 2.74361 26.8712 4.0219C26.8712 7.70999 23.8286 10.6998 20.0753 10.6998C19.1284 10.6998 18.2269 10.5093 17.408 10.1655C18.603 12.0791 20.7518 13.3557 23.2041 13.3557C26.9574 13.3558 30 10.3659 30 6.67788C30 3.92019 28.2988 1.55313 25.8714 0.534225V0.534225Z" fill="#FE7D43"/>
<path d="M23.2042 11.6497C25.9989 11.6497 28.2645 9.42373 28.2645 6.67788C28.2645 3.93202 25.9989 1.70607 23.2042 1.70607C20.4095 1.70607 18.1439 3.93202 18.1439 6.67788C18.1439 9.42373 20.4095 11.6497 23.2042 11.6497Z" fill="#FEE45A"/>
<path d="M26.8205 3.20499C26.8538 3.47279 26.8712 3.74533 26.8712 4.02197C26.8712 7.65872 23.9126 10.6162 20.2316 10.6979C21.0668 11.2958 22.094 11.6497 23.2041 11.6497C25.9944 11.6497 28.2644 9.41937 28.2644 6.67783C28.2644 5.32749 27.7129 4.10187 26.8205 3.20499Z" fill="#FED230"/>
<path d="M25.8894 7.84701C25.8894 7.24938 25.5664 6.72461 25.0832 6.43269C25.2967 6.15449 25.4235 5.80828 25.4235 5.43299C25.4235 4.6778 24.9077 4.03932 24.2046 3.83953V3.4834C24.2046 3.23336 23.9986 3.03069 23.7445 3.03069C23.4903 3.03069 23.2843 3.23336 23.2843 3.4834V3.77428H22.5915V3.4834C22.5915 3.23336 22.3856 3.03069 22.1314 3.03069C21.8773 3.03069 21.6712 3.23336 21.6712 3.4834V3.77428H20.979C20.7248 3.77428 20.5188 3.97695 20.5188 4.22699C20.5188 4.47703 20.7248 4.6797 20.979 4.6797H21.2423V6.64107V8.60244H20.979C20.7248 8.60244 20.5188 8.80511 20.5188 9.05515C20.5188 9.30519 20.7248 9.50786 20.979 9.50786H21.6712V9.7988C21.6712 10.0488 21.8772 10.2515 22.1314 10.2515C22.3855 10.2515 22.5915 10.0488 22.5915 9.7988V9.50786H23.2843V9.7988C23.2843 10.0488 23.4903 10.2515 23.7445 10.2515C23.9986 10.2515 24.2046 10.0488 24.2046 9.7988V9.5078C25.1337 9.50734 25.8894 8.76351 25.8894 7.84701ZM24.5032 5.43519C24.5032 5.85045 24.1598 6.18836 23.7377 6.18836H22.1626V4.6797H23.7377C24.1598 4.6797 24.5032 5.01761 24.5032 5.43519ZM24.2037 8.60244H22.1626V7.09378H23.7377H24.2037C24.6257 7.09378 24.9691 7.43169 24.9691 7.84926C24.9691 8.26453 24.6257 8.60244 24.2037 8.60244Z" fill="#FD9468"/>
<path d="M7.35762 21.4172C11.4211 21.4172 14.7152 18.1814 14.7152 14.1899C14.7152 10.1983 11.4211 6.96254 7.35762 6.96254C3.29412 6.96254 0 10.1983 0 14.1899C0 18.1814 3.29412 21.4172 7.35762 21.4172Z" fill="#FD9468"/>
<path d="M9.31694 7.22215C10.315 8.45579 10.9115 10.0169 10.9115 11.7151C10.9115 15.7066 7.61736 18.9424 3.55389 18.9424C2.87531 18.9424 2.21842 18.8517 1.59451 18.6828C2.9424 20.3488 5.02283 21.4172 7.35756 21.4172C11.421 21.4172 14.7152 18.1814 14.7152 14.1899C14.7152 10.8649 12.4292 8.06475 9.31694 7.22215V7.22215Z" fill="#FE7D43"/>
<path d="M7.35762 19.5708C10.3834 19.5708 12.8362 17.1617 12.8362 14.1899C12.8362 11.2181 10.3834 8.80898 7.35762 8.80898C4.33189 8.80898 1.87904 11.2181 1.87904 14.1899C1.87904 17.1617 4.33189 19.5708 7.35762 19.5708Z" fill="#FEE45A"/>
<path d="M10.6816 9.9157C10.8316 10.4909 10.9115 11.0938 10.9115 11.7151C10.9115 15.3426 8.19071 18.3457 4.64432 18.8633C5.44471 19.3133 6.37108 19.5709 7.35756 19.5709C10.3784 19.5709 12.8361 17.157 12.8361 14.19C12.8361 12.4496 11.9903 10.8999 10.6816 9.9157V9.9157Z" fill="#FED230"/>
<path d="M8.72796 16.4639H6.39147L6.94407 14.3886L7.9735 14.0911C8.21731 14.0206 8.35688 13.769 8.28528 13.5291C8.21356 13.2892 7.95815 13.1518 7.71411 13.2223L7.21629 13.3662L7.9162 10.7377C7.98059 10.4959 7.83352 10.2484 7.58772 10.1851C7.34204 10.1217 7.09043 10.2664 7.02604 10.5083L6.18575 13.6641L5.08073 13.9835C4.83692 14.054 4.69735 14.3056 4.76895 14.5455C4.82789 14.7428 5.01129 14.8707 5.21028 14.8707C5.25317 14.8707 5.29688 14.8647 5.34018 14.8522L5.91352 14.6865L5.35026 16.802C5.31411 16.9377 5.34399 17.0822 5.43106 17.1932C5.51813 17.3043 5.65272 17.3694 5.79534 17.3694H8.72801C8.98213 17.3694 9.18815 17.1667 9.18815 16.9167C9.18809 16.6666 8.98208 16.4639 8.72796 16.4639V16.4639Z" fill="#FD9468"/>
</svg>
