<?xml version="1.0"?>
<svg xmlns="http://www.w3.org/2000/svg" xmlns:xlink="http://www.w3.org/1999/xlink" xmlns:svgjs="http://svgjs.com/svgjs" version="1.1" width="512" height="512" x="0" y="0" viewBox="0 0 512 512" style="enable-background:new 0 0 512 512" xml:space="preserve" class=""><g>
<g xmlns="http://www.w3.org/2000/svg">
	<path style="" d="M452.793,79.015v342.71H38.616V282.897c0-4.945,4.382-8.741,9.276-8.036l96.518,13.902   c2.47,0.356,4.966-0.444,6.77-2.169l138.669-132.652c2.618-2.505,6.579-2.971,9.707-1.144l39.537,23.095   c3.079,1.798,6.971,1.378,9.594-1.037L452.793,79.015z" fill="#f5ad61" data-original="#ff3c63" class=""/>
	<path style="" d="M452.793,231.784v189.942H243.537c-6.363-16.745-9.844-34.911-9.844-53.889   c0-83.818,67.955-151.763,151.773-151.763C409.641,216.074,432.505,221.727,452.793,231.784z" fill="#f5ad61" data-original="#ff3c63" class=""/>
</g>
<path xmlns="http://www.w3.org/2000/svg" style="" d="M452.793,172.77v248.957H38.616v-54.448l105.794,15.238c2.47,0.356,4.967-0.444,6.77-2.169  l141.156-135.04c1.146-1.096,2.88-1.301,4.249-0.502l0,0l47.689,27.848l60.192-55.402L452.793,172.77z" fill="#db8b37" data-original="#00d8de" class=""/>
<path xmlns="http://www.w3.org/2000/svg" style="" d="M452.793,231.784v189.942H243.537c-6.363-16.745-9.844-34.911-9.844-53.889  c0-50.622,24.793-95.458,62.891-123.032l47.689,27.848l60.192-55.402C421.626,219.393,437.905,224.406,452.793,231.784z" fill="#93530f" data-original="#00b6be" class=""/>
<g xmlns="http://www.w3.org/2000/svg">
	<path style="" d="M38.617,443.315H20.079c-4.204,0-7.611,3.408-7.611,7.612s3.408,7.611,7.611,7.611h18.538   c4.204,0,7.611-3.408,7.611-7.611S42.821,443.315,38.617,443.315z" fill="#9e9ca7" data-original="#787780" class=""/>
	<path style="" d="M113.747,443.315H95.21c-4.204,0-7.611,3.408-7.611,7.612s3.408,7.611,7.611,7.611h18.537   c4.204,0,7.611-3.408,7.611-7.611S117.95,443.315,113.747,443.315z" fill="#9e9ca7" data-original="#787780" class=""/>
	<path style="" d="M188.877,443.315h-18.538c-4.204,0-7.611,3.408-7.611,7.612s3.408,7.611,7.611,7.611h18.538   c4.204,0,7.611-3.408,7.611-7.611S193.081,443.315,188.877,443.315z" fill="#9e9ca7" data-original="#787780" class=""/>
	<path style="" d="M264.007,443.315H245.47c-4.204,0-7.611,3.408-7.611,7.612s3.408,7.611,7.611,7.611h18.537   c4.204,0,7.612-3.408,7.612-7.611S268.211,443.315,264.007,443.315z" fill="#9e9ca7" data-original="#787780" class=""/>
	<path style="" d="M471.334,108.147c4.204,0,7.612-3.408,7.612-7.611s-3.407-7.611-7.612-7.611h-10.926V46.674h10.926   c4.204,0,7.612-3.408,7.612-7.611s-3.407-7.611-7.612-7.611h-10.926v-6.22c0-4.204-3.407-7.611-7.612-7.611   s-7.611,3.408-7.611,7.611v388.883H7.611c-4.204,0-7.611,3.408-7.611,7.611c0,4.204,3.408,7.612,7.611,7.612h445.185   c4.204,0,7.612-3.408,7.612-7.612V231.092h10.926c4.204,0,7.612-3.408,7.612-7.611c0-4.204-3.407-7.611-7.612-7.611h-10.926   v-46.249h10.926c4.204,0,7.612-3.408,7.612-7.611c0-4.204-3.407-7.611-7.612-7.611h-10.926V108.15h10.926V108.147z" fill="#9e9ca7" data-original="#787780" class=""/>
	<path style="" d="M46.538,57.317h14.344c4.204,0,7.611-3.408,7.611-7.611s-3.408-7.611-7.611-7.611H46.538   c-4.204,0-7.611,3.408-7.611,7.611S42.334,57.317,46.538,57.317z" fill="#9e9ca7" data-original="#787780" class=""/>
	<path style="" d="M88.037,57.317h82.302c4.204,0,7.611-3.408,7.611-7.611s-3.408-7.611-7.611-7.611H88.037   c-4.204,0-7.611,3.408-7.611,7.611S83.833,57.317,88.037,57.317z" fill="#9e9ca7" data-original="#787780" class=""/>
	<path style="" d="M39.275,79.021c0,4.204,3.408,7.611,7.611,7.611h144.17c4.204,0,7.611-3.408,7.611-7.611   s-3.408-7.611-7.611-7.611H46.886C42.682,71.409,39.275,74.816,39.275,79.021z" fill="#9e9ca7" data-original="#787780" class=""/>
	<path style="" d="M186.373,100.535c0-4.204-3.408-7.611-7.611-7.611H46.886c-4.204,0-7.611,3.408-7.611,7.611   s3.408,7.611,7.611,7.611h131.875C182.965,108.147,186.373,104.739,186.373,100.535z" fill="#9e9ca7" data-original="#787780" class=""/>
	<path style="" d="M46.886,114.439c-4.204,0-7.611,3.408-7.611,7.611s3.408,7.611,7.611,7.611h104.211   c4.204,0,7.611-3.408,7.611-7.611s-3.408-7.611-7.611-7.611C151.097,114.439,46.886,114.439,46.886,114.439z" fill="#9e9ca7" data-original="#787780" class=""/>
</g>
<circle xmlns="http://www.w3.org/2000/svg" style="" cx="385.46" cy="367.839" r="126.54" fill="#ffce00" data-original="#ffce00" class=""/>
<circle xmlns="http://www.w3.org/2000/svg" style="" cx="385.46" cy="367.839" r="112.17" fill="#ffa81e" data-original="#ffa81e" class=""/>
<circle xmlns="http://www.w3.org/2000/svg" style="" cx="385.46" cy="367.839" r="100.32" fill="#ffe571" data-original="#ffe571"/>
<circle xmlns="http://www.w3.org/2000/svg" style="" cx="385.46" cy="367.839" r="85.05" fill="#ffce00" data-original="#ffce00" class=""/>
<circle xmlns="http://www.w3.org/2000/svg" style="" cx="385.46" cy="367.839" r="69.25" fill="#ffe571" data-original="#ffe571"/>
<path xmlns="http://www.w3.org/2000/svg" style="" d="M420.119,382.518c0-9.351-4.544-17.66-11.537-22.84c2.483-3.594,3.943-7.948,3.943-12.638  c0-10.227-6.925-18.861-16.33-21.475v-2.991c0-4.204-3.407-7.612-7.611-7.612s-7.612,3.408-7.612,7.612v2.175h-2.699v-7.068  c0-4.204-3.407-7.611-7.612-7.611s-7.611,3.408-7.611,7.611v7.068h-4.633c-4.204,0-7.612,3.408-7.612,7.611  c0,3.164,1.931,5.876,4.679,7.025l0.003,56.905c-2.75,1.148-4.682,3.86-4.682,7.026c0,4.204,3.407,7.611,7.612,7.611h4.633v7.068  c0,4.204,3.407,7.612,7.611,7.612s7.612-3.408,7.612-7.612v-7.068h2.699v2.175c0,4.204,3.407,7.612,7.612,7.612  s7.611-3.408,7.611-7.612v-2.532C409.735,408.413,420.119,396.656,420.119,382.518z M390.234,354.108h-19.526l-0.001-14.136h19.527  c3.897,0,7.067,3.17,7.067,7.068S394.131,354.108,390.234,354.108z M391.709,395.704H370.71l-0.001-26.374h21  c7.272,0,13.187,5.916,13.187,13.187S398.98,395.704,391.709,395.704z" fill="#ff8800" data-original="#ff8800" class=""/>
<g xmlns="http://www.w3.org/2000/svg">
</g>
<g xmlns="http://www.w3.org/2000/svg">
</g>
<g xmlns="http://www.w3.org/2000/svg">
</g>
<g xmlns="http://www.w3.org/2000/svg">
</g>
<g xmlns="http://www.w3.org/2000/svg">
</g>
<g xmlns="http://www.w3.org/2000/svg">
</g>
<g xmlns="http://www.w3.org/2000/svg">
</g>
<g xmlns="http://www.w3.org/2000/svg">
</g>
<g xmlns="http://www.w3.org/2000/svg">
</g>
<g xmlns="http://www.w3.org/2000/svg">
</g>
<g xmlns="http://www.w3.org/2000/svg">
</g>
<g xmlns="http://www.w3.org/2000/svg">
</g>
<g xmlns="http://www.w3.org/2000/svg">
</g>
<g xmlns="http://www.w3.org/2000/svg">
</g>
<g xmlns="http://www.w3.org/2000/svg">
</g>
</g></svg>
