<?xml version="1.0"?>
<svg xmlns="http://www.w3.org/2000/svg" xmlns:xlink="http://www.w3.org/1999/xlink" xmlns:svgjs="http://svgjs.com/svgjs" version="1.1" width="512" height="512" x="0" y="0" viewBox="0 0 512 512" style="enable-background:new 0 0 512 512" xml:space="preserve" class=""><g><path xmlns="http://www.w3.org/2000/svg" d="m270 175.522c0 59.925-48.572 108.497-108.497 108.497s-108.497-48.572-108.497-108.497c0-59.981 48.642-108.497 108.497-108.497 59.828 0 108.497 48.489 108.497 108.497z" fill="#ffb446" data-original="#ffb446" style="" class=""/><circle xmlns="http://www.w3.org/2000/svg" cx="161.503" cy="175.522" fill="#fedf84" r="74.235" data-original="#fedf84" style="" class=""/><path xmlns="http://www.w3.org/2000/svg" d="m270 175.522c0 84.107-91.556 135.632-163.157 93.742 14.39-5.082 27.935-12.129 40.247-20.911 72.775 14.448 118.838-75.67 65.738-126.451.034-17.04-2.558-32.412-5.767-44.872 39.409 18.541 62.939 56.983 62.939 98.492z" fill="#fba930" data-original="#fba930" style="" class=""/><path xmlns="http://www.w3.org/2000/svg" d="m235.738 175.522c0 46.842-42.891 81.914-88.648 72.83 40.1-28.596 65.604-74.315 65.738-126.451 14.116 13.5 22.91 32.538 22.91 53.621z" fill="#fed66b" data-original="#fed66b" style=""/><path xmlns="http://www.w3.org/2000/svg" d="m147.758 102.566c-44.628 8.348-71.561 54.885-56.19 97.91-10.633 6.91-21.38 11.626-31.03 14.87-25.424-64.407 15.541-136.666 84.696-147.11 1.862 9.502 3.187 21.277 2.524 34.33z" fill="#ffc673" data-original="#ffc673" style="" class=""/><path xmlns="http://www.w3.org/2000/svg" d="m147.758 102.566c-2.111 41.244-23.611 76.796-56.19 97.91-15.4-43.107 11.637-89.575 56.19-97.91z" fill="#fee59b" data-original="#fee59b" style=""/><path xmlns="http://www.w3.org/2000/svg" d="m403.821 158.821c-1.559-1.559-4.086-1.563-5.65-.007-124.065 123.444-192.443 191.472-192.342 191.372-1.563 1.555-4.09 1.552-5.65-.007l-106.35-106.35c-1.562-1.562-4.095-1.562-5.657 0-85.302 85.301-80.172 79.328-80.172 81.828v178.343h485c0-271.736.65-255.35-1.172-257.172z" fill="#b9b9b9" data-original="#e2f2fe" style="" class=""/><path xmlns="http://www.w3.org/2000/svg" d="m180.72 137.196v-6.176c0-4.418-3.582-8-8-8s-8 3.582-8 8v4.47h-6.44v-4.47c0-4.418-3.582-8-8-8s-8 3.582-8 8v4.47h-6.97c-4.418 0-8 3.582-8 8s3.582 8 8 8h1.98v48.02h-1.98c-4.418 0-8 3.582-8 8s3.582 8 8 8h6.97v4.47c0 4.418 3.582 8 8 8s8-3.582 8-8v-4.47h6.44v4.47c0 4.418 3.582 8 8 8s8-3.582 8-8v-6.162c15.368-6.139 20.088-25.959 8.576-38.309 11.392-12.205 6.97-32.078-8.576-38.313zm-3.317 60.028c-3.028 3.028-4.56 2.286-24.113 2.286v-15.59h18.6c6.955 0 10.394 8.423 5.513 13.304zm-5.513-45.734c6.959 0 10.384 8.442 5.523 13.303-3.031 3.02-4.53 2.287-24.123 2.287v-15.59z" fill="#ffb446" data-original="#ffb446" style="" class=""/><g xmlns="http://www.w3.org/2000/svg" fill="#cfebfc"><path d="m493 494c-4.418 0-8-3.582-8-8v-34c0-4.418 3.582-8 8-8s8 3.582 8 8v34c0 4.419-3.581 8-8 8zm0-68c-4.418 0-8-3.582-8-8v-34c0-4.418 3.582-8 8-8s8 3.582 8 8v34c0 4.419-3.581 8-8 8zm0-68c-4.418 0-8-3.582-8-8v-34c0-4.418 3.582-8 8-8s8 3.582 8 8v34c0 4.419-3.581 8-8 8zm0-68c-4.418 0-8-3.582-8-8v-34c0-4.418 3.582-8 8-8s8 3.582 8 8v34c0 4.419-3.581 8-8 8z" fill="#9e9ca7" data-original="#cfebfc" style="" class=""/><path d="m91 487c-4.418 0-8-3.582-8-8v-34c0-4.418 3.582-8 8-8s8 3.582 8 8v34c0 4.419-3.581 8-8 8zm0-68c-4.418 0-8-3.582-8-8v-34c0-4.418 3.582-8 8-8s8 3.582 8 8v34c0 4.419-3.581 8-8 8zm0-68c-4.418 0-8-3.582-8-8v-34c0-4.418 3.582-8 8-8s8 3.582 8 8v34c0 4.419-3.581 8-8 8zm0-68c-4.418 0-8-3.582-8-8v-34c0-4.418 3.582-8 8-8s8 3.582 8 8v34c0 4.419-3.581 8-8 8z" fill="#9e9ca7" data-original="#cfebfc" style="" class=""/><path d="m203 512c-4.418 0-8-3.582-8-8v-3c0-4.418 3.582-8 8-8s8 3.582 8 8v3c0 4.419-3.581 8-8 8zm0-40c-4.418 0-8-3.582-8-8v-37c0-4.418 3.582-8 8-8s8 3.582 8 8v37c0 4.419-3.581 8-8 8zm0-74c-4.418 0-8-3.582-8-8v-37c0-4.418 3.582-8 8-8s8 3.582 8 8v37c0 4.419-3.581 8-8 8z" fill="#9e9ca7" data-original="#cfebfc" style="" class=""/><path d="m302 512c-4.418 0-8-3.582-8-8v-26c0-4.418 3.582-8 8-8s8 3.582 8 8v26c0 4.419-3.581 8-8 8zm0-63c-4.418 0-8-3.582-8-8v-37c0-4.418 3.582-8 8-8s8 3.582 8 8v37c0 4.419-3.581 8-8 8zm0-74c-4.418 0-8-3.582-8-8v-37c0-4.418 3.582-8 8-8s8 3.582 8 8v37c0 4.419-3.581 8-8 8zm0-74c-4.418 0-8-3.582-8-8v-37c0-4.418 3.582-8 8-8s8 3.582 8 8v37c0 4.419-3.581 8-8 8z" fill="#9e9ca7" data-original="#cfebfc" style="" class=""/><path d="m401 512c-4.418 0-8-3.582-8-8v-8c0-4.418 3.582-8 8-8s8 3.582 8 8v8c0 4.419-3.581 8-8 8zm0-42c-4.418 0-8-3.582-8-8v-34c0-4.418 3.582-8 8-8s8 3.582 8 8v34c0 4.419-3.581 8-8 8zm0-68c-4.418 0-8-3.582-8-8v-34c0-4.418 3.582-8 8-8s8 3.582 8 8v34c0 4.419-3.581 8-8 8zm0-68c-4.418 0-8-3.582-8-8v-34c0-4.418 3.582-8 8-8s8 3.582 8 8v34c0 4.419-3.581 8-8 8zm0-68c-4.418 0-8-3.582-8-8v-34c0-4.418 3.582-8 8-8s8 3.582 8 8v34c0 4.419-3.581 8-8 8zm0-68c-4.418 0-8-3.582-8-8v-34c0-4.418 3.582-8 8-8s8 3.582 8 8v34c0 4.419-3.581 8-8 8z" fill="#9e9ca7" data-original="#cfebfc" style="" class=""/><path d="m197.343 358.657-106.343-106.343-77.343 77.343c-3.124 3.124-8.189 3.124-11.313 0-3.125-3.124-3.125-8.189 0-11.313l83-83c3.124-3.124 8.189-3.124 11.313 0l106.357 106.357 192.343-191.372c3.126-3.111 8.18-3.104 11.299.014l92 92c3.125 3.124 3.125 8.189 0 11.313-3.124 3.124-8.189 3.124-11.313 0l-86.357-86.357-192.343 191.372c-3.111 3.095-8.165 3.12-11.3-.014z" fill="#9e9ca7" data-original="#cfebfc" style="" class=""/></g><path xmlns="http://www.w3.org/2000/svg" d="m504 512h-496c-4.418 0-8-3.582-8-8v-496c0-4.418 3.582-8 8-8s8 3.582 8 8v488h488c4.418 0 8 3.582 8 8s-3.581 8-8 8z" fill="#42434d" data-original="#42434d" style=""/></g></svg>
