<?xml version="1.0"?>
<svg xmlns="http://www.w3.org/2000/svg" xmlns:xlink="http://www.w3.org/1999/xlink" xmlns:svgjs="http://svgjs.com/svgjs" version="1.1" width="512" height="512" x="0" y="0" viewBox="0 0 512 512" style="enable-background:new 0 0 512 512" xml:space="preserve" class=""><g><g xmlns="http://www.w3.org/2000/svg" fill="#42434d"><path d="m485 325c-4.418 0-8-3.582-8-8v-84h-35c-4.418 0-8-3.582-8-8s3.582-8 8-8h43c4.418 0 8 3.582 8 8v92c0 4.418-3.582 8-8 8z" fill="#42434d" data-original="#42434d" style="" class=""/><path d="m131 121c-4.418 0-8 6.585-8 2.167v-40.167h-49c-4.418 0-8-3.582-8-8v-29c0-4.418 3.582-8 8-8s8 3.582 8 8v21h49c4.418 0 8 3.582 8 8v38c0 4.418-3.582 8-8 8z" fill="#42434d" data-original="#42434d" style="" class=""/><path d="m256 76c-4.418 0-8-3.582-8-8v-41c0-4.418 3.582-8 8-8h89c4.418 0 8 3.582 8 8s-3.582 8-8 8h-81v33c0 4.418-3.582 8-8 8z" fill="#42434d" data-original="#42434d" style="" class=""/><path d="m424 136.42h-29.91c-4.418 0-8.005-3.582-8.005-8s-4.418-8 0-8h29.915v-28.42c0-4.418 3.582-8 8-8h42c4.418 0 8 3.582 8 8s-3.582 8-8 8h-34v28.42c0 4.418-3.582 8-8 8z" fill="#42434d" data-original="#42434d" style="" class=""/><path d="m256 493h-84c-4.418 0-8-3.582-8-8s3.582-8 8-8h76v-33c0-4.418 3.582-8 8-8s8 3.582 8 8v41c0 4.418-3.582 8-8 8z" fill="#42434d" data-original="#42434d" style="" class=""/><path d="m434 456h-56.72c-4.418 0-8-3.582-8-8v-48.34c0-4.418 3.582-8.005 8-8.005s8-4.418 8 0v48.345h48.72c4.418 0 8 3.582 8 8s-3.582 8-8 8z" fill="#42434d" data-original="#42434d" style="" class=""/><path d="m44 437c-4.418 0-8-3.582-8-8v-42.31c0-4.418 3.582-8 8-8h76.85c4.418 0 8.005 3.582 8.005 8s4.647 8 .228 8h-77.083v34.31c0 4.418-3.582 8-8 8z" fill="#42434d" data-original="#42434d" style="" class=""/><path d="m68 264h-41c-4.418 0-8-3.582-8-8v-83c0-4.418 3.582-8 8-8s8 3.582 8 8v75h33c4.418 0 8 3.582 8 8s-3.582 8-8 8z" fill="#42434d" data-original="#42434d" style="" class=""/></g><path xmlns="http://www.w3.org/2000/svg" d="m83 0h-18c-9.925 0-18 8.075-18 18v18c0 9.925 8.075 18 18 18h18c9.925 0 18-8.075 18-18v-18c0-9.925-8.075-18-18-18z" fill="#9e9ca7" data-original="#8ab2ff" style="" class=""/><path xmlns="http://www.w3.org/2000/svg" d="m373 0h-18c-9.925 0-18 8.075-18 18v18c0 9.925 8.075 18 18 18h18c9.925 0 18-8.075 18-18v-18c0-9.925-8.075-18-18-18z" fill="#9e9ca7" data-original="#8ab2ff" style="" class=""/><path xmlns="http://www.w3.org/2000/svg" d="m494 65h-18c-9.925 0-18 8.075-18 18v18c0 9.925 8.075 18 18 18h18c9.925 0 18-8.075 18-18v-18c0-9.925-8.075-18-18-18z" fill="#9e9ca7" data-original="#8ab2ff" style="" class=""/><path xmlns="http://www.w3.org/2000/svg" d="m494 310h-18c-9.925 0-18 8.075-18 18v18c0 9.925 8.075 18 18 18h18c9.925 0 18-8.075 18-18v-18c0-9.925-8.075-18-18-18z" fill="#9e9ca7" data-original="#8ab2ff" style="" class=""/><path xmlns="http://www.w3.org/2000/svg" d="m462 421h-18c-9.925 0-18 8.075-18 18v18c0 9.925 8.075 18 18 18h18c9.925 0 18-8.075 18-18v-18c0-9.925-8.075-18-18-18z" fill="#9e9ca7" data-original="#8ab2ff" style="" class=""/><path xmlns="http://www.w3.org/2000/svg" d="m162 458h-18c-9.925 0-18 8.075-18 18v18c0 9.925 8.075 18 18 18h18c9.925 0 18-8.075 18-18v-18c0-9.925-8.075-18-18-18z" fill="#9e9ca7" data-original="#8ab2ff" style="" class=""/><path xmlns="http://www.w3.org/2000/svg" d="m53 421h-18c-9.925 0-18 8.075-18 18v18c0 9.925 8.075 18 18 18h18c9.925 0 18-8.075 18-18v-18c0-9.925-8.075-18-18-18z" fill="#9e9ca7" data-original="#8ab2ff" style="" class=""/><path xmlns="http://www.w3.org/2000/svg" d="m36 127h-18c-9.925 0-18 8.075-18 18v18c0 9.925 8.075 18 18 18h18c9.925 0 18-8.075 18-18v-18c0-9.925-8.075-18-18-18z" fill="#9e9ca7" data-original="#8ab2ff" style="" class=""/><path xmlns="http://www.w3.org/2000/svg" d="m444.01 256c0 103.835-84.165 188-188 188s-188-84.165-188-188c0-103.933 84.286-188 188-188 103.668 0 188 84.02 188 188z" fill="#ffb446" data-original="#ffb446" style="" class=""/><circle xmlns="http://www.w3.org/2000/svg" cx="256.01" cy="256" fill="#fedf84" r="128.632" data-original="#fedf84" style=""/><path xmlns="http://www.w3.org/2000/svg" d="m444.01 256c0 145.737-158.645 235.018-282.712 162.432 24.935-8.806 48.405-21.016 69.738-36.235 79.296 15.743 153.605-45.039 153.605-126.197 0-36.531-15.238-69.52-39.698-92.912.059-29.526-4.433-56.163-9.994-77.753 68.289 32.128 109.061 98.74 109.061 170.665z" fill="#fba930" data-original="#fba930" style=""/><path xmlns="http://www.w3.org/2000/svg" d="m384.641 256c0 81.166-74.319 141.938-153.606 126.198 69.483-49.549 113.677-128.77 113.908-219.109 24.461 23.391 39.698 56.38 39.698 92.911z" fill="#fed66b" data-original="#fed66b" style=""/><path xmlns="http://www.w3.org/2000/svg" d="m232.193 129.585c-77.329 14.466-123.998 95.102-97.364 169.655-18.424 11.973-37.046 20.146-53.768 25.766-44.054-111.602 26.929-236.81 146.759-254.908 3.226 16.465 5.521 36.867 4.373 59.487z" fill="#ffc673" data-original="#ffc673" style="" class=""/><path xmlns="http://www.w3.org/2000/svg" d="m232.193 129.585c-3.658 71.467-40.913 133.069-97.364 169.655-26.685-74.696 20.164-155.214 97.364-169.655z" fill="#fee59b" data-original="#fee59b" style="" class=""/><path xmlns="http://www.w3.org/2000/svg" d="m300.508 257.99c26.853-20.201 18.162-62.123-13.688-70.551v-18.439c0-4.418-3.582-8-8-8s-8 3.582-8 8v17.1h-29.64v-17.1c0-4.418-3.582-8-8-8s-8 3.582-8 8v17.1c-6.176 0-11.223 0-21.67 0-4.418 0-8 3.582-8 8s3.582 8 8 8h12.54v111.8h-12.54c-4.418 0-8 3.582-8 8s3.582 8 8 8h21.67v17.1c0 4.418 3.582 8 8 8s8-3.582 8-8v-17.1h29.64v17.1c0 4.418 3.582 8 8 8s8-3.582 8-8v-18.447c31.971-8.522 40.476-50.383 13.688-70.563zm-.018-31.94c0 13.206-10.744 23.95-23.95 23.95h-44.49v-47.9h44.49c13.231 0 23.95 10.717 23.95 23.95zm-23.95 87.85h-44.49v-47.9h44.49c6.395 0 12.408 2.492 16.933 7.017 14.947 14.948 4.484 40.883-16.933 40.883z" fill="#ffb446" data-original="#ffb446" style="" class=""/></g></svg>
