<?xml version="1.0"?>
<svg xmlns="http://www.w3.org/2000/svg" viewBox="0 0 64 64" width="512" height="512"><g id="Bitcoin"><path d="M40,27a6.006,6.006,0,0,0-6-6V18a1,1,0,0,0-2,0v3H30.009L30,18a1,1,0,0,0-1-1h0a1,1,0,0,0-1,1l.009,3H23a1,1,0,0,0,0,2h3V41H23a1,1,0,0,0,0,2h5v3a1,1,0,0,0,2,0V43h2.018L32,45.994A1,1,0,0,0,32.994,47H33a1,1,0,0,0,1-.994L34.019,43A6,6,0,0,0,37.31,32,6,6,0,0,0,40,27ZM38,37a4,4,0,0,1-4,4H28V33h6A4,4,0,0,1,38,37Zm-4-6H28V23h6a4,4,0,0,1,0,8Z"/><path d="M61,33a1,1,0,0,0,0-2H50.949a18.838,18.838,0,0,0-.639-4H56a3,3,0,0,0,3-3V20.858a4,4,0,1,0-2,0V24a1,1,0,0,1-1,1H49.647A19.1,19.1,0,0,0,41,15.273V10a1,1,0,0,1,1-1h2.142a4,4,0,1,0,0-2H42a3,3,0,0,0-3,3v4.353a18.833,18.833,0,0,0-6-1.3V3a1,1,0,0,0-2,0V13.051a18.833,18.833,0,0,0-6,1.3V10a3,3,0,0,0-3-3H19.858a4,4,0,1,0,0,2H22a1,1,0,0,1,1,1v5.273A19.1,19.1,0,0,0,14.353,25H8a1,1,0,0,1-1-1V20.858a4,4,0,1,0-2,0V24a3,3,0,0,0,3,3h5.69a18.838,18.838,0,0,0-.639,4H3a1,1,0,0,0,0,2H13.051a18.838,18.838,0,0,0,.639,4H8a3,3,0,0,0-3,3v3.142a4,4,0,1,0,2,0V40a1,1,0,0,1,1-1h6.353A19.1,19.1,0,0,0,23,48.727V54a1,1,0,0,1-1,1H19.858a4,4,0,1,0,0,2H22a3,3,0,0,0,3-3V49.647a18.833,18.833,0,0,0,6,1.3V61a1,1,0,0,0,2,0V50.949a18.833,18.833,0,0,0,6-1.3V54a3,3,0,0,0,3,3h2.142a4,4,0,1,0,0-2H42a1,1,0,0,1-1-1V48.727A19.1,19.1,0,0,0,49.647,39H56a1,1,0,0,1,1,1v3.142a4,4,0,1,0,2,0V40a3,3,0,0,0-3-3H50.31a18.838,18.838,0,0,0,.639-4ZM56,17a2,2,0,1,1,2,2A2,2,0,0,1,56,17ZM48,6a2,2,0,1,1-2,2A2,2,0,0,1,48,6ZM16,10a2,2,0,1,1,2-2A2,2,0,0,1,16,10ZM4,17a2,2,0,1,1,2,2A2,2,0,0,1,4,17ZM8,47a2,2,0,1,1-2-2A2,2,0,0,1,8,47Zm8,11a2,2,0,1,1,2-2A2,2,0,0,1,16,58Zm32-4a2,2,0,1,1-2,2A2,2,0,0,1,48,54Zm12-7a2,2,0,1,1-2-2A2,2,0,0,1,60,47ZM32,49A17,17,0,1,1,49,32,17.019,17.019,0,0,1,32,49Z"/></g></svg>
