<?xml version="1.0" encoding="iso-8859-1"?>
<!-- Generator: Adobe Illustrator 19.0.0, SVG Export Plug-In . SVG Version: 6.00 Build 0)  -->
<svg version="1.1" id="Capa_1" xmlns="http://www.w3.org/2000/svg" xmlns:xlink="http://www.w3.org/1999/xlink" x="0px" y="0px"
	 viewBox="0 0 512 512" style="enable-background:new 0 0 512 512;" xml:space="preserve">
<g>
	<g>
		<path d="M158.701,343.182v-23.489c5.065,0.407,7.701,1.654,12.946,4.271c2.73,1.371,6.068,0.812,8.208-2.813
			c6.709-11.41-7.977-16.205-21.154-16.205v-3.504c0-1.983-2.449-3.37-4.538-3.37c-2.332,0-4.537,1.421-4.537,3.337v3.737
			c-15.538,2.05-25.894,10.418-25.894,26.026c0,16.171,11.828,21.457,25.894,26.827v26.561c-7.085-0.855-10.462-3.643-17.084-8.609
			c-3.292-2.467-6.551-1.575-9.01,1.877c-8.488,11.942,10.166,22.547,26.094,22.547v3.772c0,1.924,2.185,3.367,4.537,3.367
			c2.074,0,4.538-1.365,4.538-3.336v-4.138c13.983-2.161,25.226-11.03,25.226-28.295
			C183.926,355.497,173.692,348.638,158.701,343.182z M150.693,340.247c-3.115-1.245-5.672-2.624-7.674-4.138
			c-4.268-3.223-5.99-13.862,7.674-16.016V340.247z M157.633,384.423V361.2c2.847,1.247,5.227,2.781,7.141,4.604
			C168.96,369.799,170.284,381.748,157.633,384.423z"/>
	</g>
</g>
<g>
	<g>
		<path d="M364.913,343.182v-23.489c10.816,0.87,14.113,7.575,18.952,3.935c4.435-3.342,9.367-15.306-11.746-18.147
			c-2.669-0.356-5.071-0.535-7.206-0.535v-3.504c0-1.983-2.449-3.37-4.538-3.37c-2.332,0-4.537,1.421-4.537,3.337v3.737
			c-15.538,2.05-25.894,10.418-25.894,26.026c0,16.171,11.828,21.457,25.894,26.827v26.561c-7.085-0.855-10.462-3.643-17.084-8.609
			c-3.292-2.467-6.551-1.575-9.01,1.877c-8.487,11.942,10.166,22.547,26.094,22.547v3.772c0,1.924,2.185,3.367,4.537,3.367
			c2.074,0,4.538-1.365,4.538-3.336v-4.138c13.983-2.161,25.226-11.03,25.226-28.295
			C390.138,355.581,380.041,348.688,364.913,343.182z M356.905,340.247c-8.109-3.241-10.678-5.849-10.678-10.812
			c0-5.81,4.917-8.435,10.678-9.343V340.247z M363.844,384.423V361.2c8.306,3.638,10.011,7.595,10.011,12.279
			C373.855,379.636,369.87,383.149,363.844,384.423z"/>
	</g>
</g>
<g>
	<g>
		<path d="M252.302,143.621v-23.489c5.065,0.407,7.701,1.654,12.946,4.271c2.73,1.371,6.068,0.812,8.208-2.813
			c6.709-11.41-7.977-16.205-21.154-16.205v-3.504c0-1.983-2.449-3.37-4.538-3.37c-2.332,0-4.537,1.421-4.537,3.337v3.737
			c-15.538,2.05-25.894,10.418-25.894,26.026c0,16.171,11.828,21.457,25.894,26.827v26.561c-7.085-0.855-10.462-3.643-17.084-8.609
			c-3.292-2.467-6.551-1.575-9.01,1.877c-8.487,11.942,10.166,22.547,26.094,22.547v3.772c0,1.924,2.185,3.367,4.537,3.367
			c2.074,0,4.538-1.365,4.538-3.336v-4.138c13.983-2.161,25.226-11.03,25.226-28.295
			C277.528,155.936,267.293,149.077,252.302,143.621z M244.294,140.685c-3.115-1.245-5.672-2.624-7.674-4.138
			c-4.268-3.223-5.99-13.862,7.674-16.016V140.685z M251.234,184.863V161.64c2.847,1.247,5.227,2.781,7.141,4.604
			C262.561,170.238,263.886,182.187,251.234,184.863z"/>
	</g>
</g>
<g>
	<g>
		<path d="M359.106,238.521c-64.657,0-117.259,52.602-117.259,117.258c0,64.657,52.602,117.259,117.259,117.259
			c64.656,0,117.258-52.602,117.258-117.259C476.364,291.124,423.762,238.521,359.106,238.521z M359.106,458.038
			c-56.385,0-102.258-45.873-102.258-102.258s45.873-102.257,102.258-102.257s102.257,45.872,102.257,102.257
			S415.491,458.038,359.106,458.038z"/>
	</g>
</g>
<g>
	<g>
		<path d="M390.962,206.233c3.64-10.494,6.139-21.372,7.414-32.463c0.473-4.114-2.479-7.834-6.595-8.308
			c-4.105-0.466-7.834,2.479-8.309,6.595c-1.25,10.878-3.788,21.532-7.556,31.752c-7.016-0.769-14.601-1.08-21.922-0.838
			c6.412-14.702,9.761-30.632,9.761-46.751c0-64.657-52.602-117.259-117.259-117.259c-64.656,0-117.258,52.602-117.258,117.259
			c0,60.22,45.204,108.746,101.742,116.21c-3.857,5.91-7.506,12.449-10.64,19.189c-64.088-12.382-111.737-69.601-111.737-135.399
			c0-76.035,61.858-137.893,137.892-137.893c69.319,0,128.133,51.814,136.803,120.524c0.519,4.11,4.265,7.018,8.382,6.502
			c4.109-0.519,7.021-4.271,6.502-8.381C388.568,60.782,323.357,3.326,246.496,3.326c-84.306,0-152.893,68.588-152.893,152.894
			c0,18.872,3.51,37.421,10.184,54.769C42.274,231.892,0,290.258,0,355.779c0,84.306,68.588,152.894,152.894,152.894
			c38.488,0,74.803-14.171,103.065-40.056c22.813,20.886,52.065,35.007,84.747,38.945c4.112,0.482,7.848-2.437,8.344-6.549
			c0.495-4.112-2.437-7.848-6.549-8.344c-68.971-8.312-121.289-67.069-121.289-136.89c0-78.298,65.606-141.443,144.452-137.733
			c73.018,3.435,131.335,63.917,131.335,137.733c0,69.707-52.143,128.558-121.289,136.89c-4.112,0.496-7.044,4.231-6.549,8.344
			c0.492,4.081,4.19,7.041,8.345,6.549C454.179,498.323,512,433.07,512,355.779C512,282.395,460.029,220.93,390.962,206.233z
			 M245.396,457.951c-25.428,23.091-57.997,35.722-92.502,35.722c-76.036,0-137.893-61.859-137.893-137.893
			c0-59.536,38.693-112.528,94.851-131.01c2.842,5.642,6.796,12.395,10.867,18.28c-49.851,14.28-85.083,60.048-85.083,112.73
			c0,64.657,52.602,117.259,117.259,117.259c29.583,0,58.138-11.33,79.744-31.373C236.522,447.379,240.787,452.819,245.396,457.951z
			 M224.653,428.548c-19.086,18.803-44.941,29.489-71.758,29.489c-56.385,0-102.258-45.873-102.258-102.258
			c0-48.187,33.431-89.486,80.092-99.799c21.931,25.421,51.466,42.86,83.896,49.776c-5.444,15.682-8.412,32.511-8.412,50.022
			C206.211,381.994,212.87,406.82,224.653,428.548z M336.556,204.551c-38.088,5.655-71.639,25.404-95.161,53.761
			c-53.894-2.685-97.156-47.745-97.156-102.093c0-56.385,45.872-102.258,102.257-102.258c56.385,0,102.258,45.873,102.258,102.258
			C348.754,173.091,344.545,189.722,336.556,204.551z"/>
	</g>
</g>
<g>
</g>
<g>
</g>
<g>
</g>
<g>
</g>
<g>
</g>
<g>
</g>
<g>
</g>
<g>
</g>
<g>
</g>
<g>
</g>
<g>
</g>
<g>
</g>
<g>
</g>
<g>
</g>
<g>
</g>
</svg>
